<svg width="80" height="80" viewBox="0 0 80 80" fill="none" xmlns="http://www.w3.org/2000/svg">
<path d="M42.8996 63.248H17.3616C16.0206 63.248 14.9326 62.16 14.9326 60.819V16.031C14.9326 14.689 16.0206 13.602 17.3616 13.602H53.7836C55.1246 13.602 56.2126 14.689 56.2126 16.031V42.206" stroke="#0039D1" stroke-width="1.75"></path>
<path d="M18.6279 22.5088H31.1919" stroke="#0039D1" stroke-width="1.75"></path>
<path d="M18.6279 31.1543H25.0519" stroke="#0039D1" stroke-width="1.75"></path>
<path d="M39.1787 31.1543H45.3657" stroke="#0039D1" stroke-width="1.75"></path>
<path d="M29.3535 28.8232V28.8232C30.1595 28.8232 30.8125 29.4762 30.8125 30.2832V32.0262C30.8125 32.8322 30.1595 33.4852 29.3535 33.4852C28.5475 33.4852 27.8945 32.8322 27.8945 32.0262" stroke="#0039D1" stroke-width="1.75"></path>
<path d="M34.9248 28.8232V28.8232C35.7308 28.8232 36.3838 29.4762 36.3838 30.2832V32.0262C36.3838 32.8322 35.7308 33.4852 34.9248 33.4852C34.1188 33.4852 33.4658 32.8322 33.4658 32.0262" stroke="#0039D1" stroke-width="1.75"></path>
<path d="M35.3145 20.1777V20.1777C36.1205 20.1777 36.7735 20.8307 36.7735 21.6367V23.3797C36.7735 24.1867 36.1205 24.8397 35.3145 24.8397C34.5085 24.8397 33.8555 24.1867 33.8555 23.3797" stroke="#0039D1" stroke-width="1.75"></path>
<path d="M40.8858 20.1777V20.1777C41.6918 20.1777 42.3448 20.8307 42.3448 21.6367V23.3797C42.3448 24.1867 41.6918 24.8397 40.8858 24.8397C40.0798 24.8397 39.4268 24.1867 39.4268 23.3797" stroke="#0039D1" stroke-width="1.75"></path>
<path d="M46.457 20.1777V20.1777C47.263 20.1777 47.916 20.8307 47.916 21.6367V23.3797C47.916 24.1867 47.263 24.8397 46.457 24.8397C45.651 24.8397 44.998 24.1867 44.998 23.3797" stroke="#0039D1" stroke-width="1.75"></path>
<path d="M25.6582 38.2383V38.2383C26.4642 38.2383 27.1172 38.8913 27.1172 39.6983V41.4413C27.1172 42.2473 26.4642 42.9003 25.6582 42.9003C24.8522 42.9003 24.1992 42.2473 24.1992 41.4413" stroke="#0039D1" stroke-width="1.75"></path>
<path d="M31.2295 38.2383V38.2383C32.0355 38.2383 32.6885 38.8913 32.6885 39.6983V41.4413C32.6885 42.2473 32.0355 42.9003 31.2295 42.9003C30.4235 42.9003 29.7705 42.2473 29.7705 41.4413" stroke="#0039D1" stroke-width="1.75"></path>
<path d="M35.3145 40.5693H40.2495" stroke="#0039D1" stroke-width="1.75"></path>
<path d="M18.6279 40.5693H21.8399" stroke="#0039D1" stroke-width="1.75"></path>
<path d="M65.0681 62.0049V63.8119C65.0681 64.4969 64.6071 65.0969 63.9451 65.2739C58.3231 66.7729 52.4061 66.7729 46.7841 65.2739C46.1221 65.0969 45.6611 64.4969 45.6611 63.8119V62.0049" stroke="#0039D1" stroke-width="1.75"></path>
<path d="M65.0681 56.4541V58.2621C65.0681 58.9471 64.6071 59.5471 63.9451 59.7241C58.3231 61.2231 52.4061 61.2231 46.7841 59.7241C46.1221 59.5471 45.6611 58.9471 45.6611 58.2621V56.4541" stroke="#0039D1" stroke-width="1.75"></path>
<path d="M65.0681 50.9043V52.7113C65.0681 53.3963 64.6071 53.9963 63.9451 54.1733C58.3231 55.6723 52.4061 55.6723 46.7841 54.1733C46.1221 53.9963 45.6611 53.3963 45.6611 52.7113V50.9043" stroke="#0039D1" stroke-width="1.75"></path>
<path fill-rule="evenodd" clip-rule="evenodd" d="M55.3641 44.8711C50.0051 44.8711 45.6611 46.1011 45.6611 47.6191C45.6611 49.1371 50.0051 50.3671 55.3641 50.3671C60.7231 50.3671 65.0671 49.1371 65.0671 47.6191C65.0671 46.1011 60.7231 44.8711 55.3641 44.8711ZM55.3641 46.6211C58.7821 46.6211 61.2681 47.1421 62.5491 47.6191C61.2681 48.0971 58.7821 48.6171 55.3641 48.6171C51.9461 48.6171 49.4601 48.0971 48.1791 47.6191C49.4601 47.1421 51.9461 46.6211 55.3641 46.6211Z" fill="#0039D1"></path>
</svg>