<svg width="62" height="27" viewBox="0 0 62 27" fill="none" xmlns="http://www.w3.org/2000/svg">
<mask id="mask0" mask-type="alpha" maskUnits="userSpaceOnUse" x="0" y="0" width="18" height="22">
<path fill-rule="evenodd" clip-rule="evenodd" d="M0 0.000244141H17.2284V21.2338H0V0.000244141Z" fill="white"/>
</mask>
<g mask="url(#mask0)">
<path fill-rule="evenodd" clip-rule="evenodd" d="M12.8454 5.15551C11.0954 5.05051 9.59743 6.13351 8.77243 6.13351C7.94843 6.13351 6.65943 5.20751 5.26743 5.20751C3.46543 5.25951 1.81443 6.23851 0.889429 7.88751C-0.965571 11.1355 0.374429 15.9235 2.22943 18.5515C3.10743 19.8395 4.18943 21.2835 5.57743 21.2325C6.91743 21.1795 7.43243 20.3545 9.03043 20.3545C10.6284 20.3545 11.0904 21.2325 12.5354 21.1795C13.9804 21.1265 14.9064 19.8915 15.7834 18.5515C16.8134 17.0595 17.2284 15.6135 17.2284 15.5615C17.1764 15.5085 14.3954 14.4795 14.3954 11.2835C14.3434 8.60351 16.5604 7.31551 16.6604 7.26351C15.4734 5.41251 13.5134 5.20251 12.8454 5.15551ZM11.7624 3.40051C12.4834 2.47551 12.9984 1.23551 12.8454 -0.000488281C11.7624 0.0525117 10.4754 0.719512 9.70243 1.59751C9.03443 2.37051 8.41543 3.65751 8.56743 4.84551C9.80743 4.99751 10.9904 4.33051 11.7624 3.40051Z" fill="black"/>
</g>
<path fill-rule="evenodd" clip-rule="evenodd" d="M49.9438 26.2771V23.9071C50.1488 23.9601 50.6638 23.9601 50.8688 23.9601C52.2098 23.9601 52.9288 23.3921 53.3918 21.9521C53.3918 21.8991 53.6488 21.0741 53.6488 21.0741L48.4988 6.85307H51.6408L55.2468 18.4471H55.2988L58.9048 6.85307H61.9998L56.6918 21.8471C55.4568 25.2991 54.0638 26.3821 51.1268 26.3821C50.9218 26.3301 50.2018 26.3301 49.9438 26.2771ZM44.4308 15.7141V14.5791L40.9248 14.7841C39.1748 14.8891 38.1928 15.6621 38.1928 16.8961C38.1928 18.1311 39.2228 18.9571 40.7678 18.9571C42.8338 18.9621 44.4308 17.5691 44.4308 15.7141ZM35.2078 17.0021C35.2078 14.5261 37.1148 12.9811 40.5148 12.7761L44.4308 12.5711V11.4881C44.4308 9.89107 43.3478 8.96507 41.5978 8.96507C39.8948 8.96507 38.8648 9.79107 38.6078 11.0261H35.8278C35.9798 8.45107 38.1978 6.54307 41.7028 6.54307C45.1558 6.54307 47.3688 8.34607 47.3688 11.2311V21.0221H44.5888V18.7041H44.5358C43.7108 20.3011 41.9078 21.2791 40.0518 21.2791C37.1628 21.2791 35.2078 19.5291 35.2078 17.0021ZM23.7188 11.7981H27.1718C29.7988 11.7981 31.2928 10.3541 31.2928 7.93607C31.2928 5.46107 29.7988 4.07307 27.1718 4.07307H23.6668V11.8031H23.7188V11.7981ZM27.9918 1.49707C31.8018 1.49707 34.4298 4.12507 34.4298 7.88807C34.4298 11.6981 31.7498 14.3261 27.8868 14.3261H23.7138V20.9741H20.6758V1.49707H27.9918Z" fill="black"/>
</svg>
