<svg width="81" height="80" viewBox="0 0 81 80" fill="none" xmlns="http://www.w3.org/2000/svg">
<path d="M67.9365 31.201V59.786C67.9365 61.278 66.7265 62.4881 65.2345 62.4881H15.4325C13.9395 62.4881 12.7295 61.278 12.7295 59.786V31.201" stroke="#0039D1" stroke-width="1.75"></path>
<path d="M22.1854 22.5692C22.0574 22.8702 21.9824 23.2002 21.9824 23.5482C21.9824 24.9622 23.1284 26.1072 24.5414 26.1072C25.9544 26.1072 27.0994 24.9622 27.0994 23.5482C27.0994 23.2002 27.0254 22.8702 26.8974 22.5692" stroke="#0039D1" stroke-width="1.75"></path>
<path d="M24.541 23.5038V17.5118" stroke="#0039D1" stroke-width="1.75"></path>
<path d="M58.4804 22.5692C58.6084 22.8702 58.6834 23.2002 58.6834 23.5482C58.6834 24.9622 57.5374 26.1072 56.1254 26.1072C54.7114 26.1072 53.5664 24.9622 53.5664 23.5482C53.5664 23.2002 53.6404 22.8702 53.7694 22.5692" stroke="#0039D1" stroke-width="1.75"></path>
<path d="M56.125 23.5038V17.5118" stroke="#0039D1" stroke-width="1.75"></path>
<path d="M53.2971 19.1727H27.3691" stroke="#0039D1" stroke-width="1.75"></path>
<path d="M21.7135 19.1727H15.4315C13.9395 19.1727 12.7295 20.3827 12.7295 21.8747V31.2007H67.9365V21.8747C67.9365 20.3827 66.7265 19.1727 65.2345 19.1727H58.9525" stroke="#0039D1" stroke-width="1.75"></path>
<path d="M28.3721 37.1259V42.7359" stroke="#0039D1" stroke-width="1.75"></path>
<path d="M36.3457 37.1259V42.7359" stroke="#0039D1" stroke-width="1.75"></path>
<path d="M44.3203 37.1259V42.7359" stroke="#0039D1" stroke-width="1.75"></path>
<path d="M52.2939 37.1259V42.7359" stroke="#0039D1" stroke-width="1.75"></path>
<path d="M28.3721 50.8602V56.4702" stroke="#0039D1" stroke-width="1.75"></path>
<path d="M36.3457 50.8602V56.4702" stroke="#0039D1" stroke-width="1.75"></path>
<path d="M44.3203 50.8602V56.4702" stroke="#0039D1" stroke-width="1.75"></path>
<path d="M52.2939 50.8602V56.4702" stroke="#0039D1" stroke-width="1.75"></path>
<path d="M23.876 46.8446H56.79" stroke="#0039D1" stroke-width="1.75"></path>
<path d="M49.8545 23.7538H30.8125" stroke="#0039D1" stroke-width="1.75"></path>
</svg>