<svg width="60" height="60" viewBox="0 0 60 60" fill="none" xmlns="http://www.w3.org/2000/svg">
<path d="M48.1711 29.3826V45.3196C48.1711 46.1656 47.4851 46.8526 46.6381 46.8526H13.3621C12.5151 46.8526 11.8291 46.1656 11.8291 45.3196V29.3826" stroke="#0039D1" stroke-width="1.5"></path>
<path d="M27.7463 30.8336C22.2033 30.7236 16.6663 30.2036 11.1813 29.2746C10.8523 29.2196 10.6113 28.9326 10.6113 28.5996V19.6626C10.6123 18.8156 11.2983 18.1296 12.1443 18.1296H47.8563C48.7033 18.1296 49.3893 18.8156 49.3893 19.6626V28.5996C49.3893 28.9326 49.1483 29.2196 48.8193 29.2746C43.3343 30.2036 37.7973 30.7236 32.2543 30.8336" stroke="#0039D1" stroke-width="1.5"></path>
<path fill-rule="evenodd" clip-rule="evenodd" d="M31.7571 28.6023H28.2441C27.9691 28.6023 27.7461 28.8253 27.7461 29.1003V32.6133C27.7461 32.8873 27.9691 33.1103 28.2441 33.1103H31.7571C32.0321 33.1103 32.2551 32.8873 32.2551 32.6133V29.1003C32.2551 28.8253 32.0321 28.6023 31.7571 28.6023ZM29.2471 31.6103H30.7551V30.1023H29.2471V31.6103Z" fill="#0039D1"></path>
<path d="M29.2783 30.8562H30.7213" stroke="#0039D1" stroke-width="1.5"></path>
<path d="M27.7461 35.0222H32.2541" stroke="#0039D1" stroke-width="1.5"></path>
<path d="M38.4518 18.1296V14.9426C38.4518 13.9506 37.6478 13.1476 36.6568 13.1476H23.3438C22.3528 13.1476 21.5488 13.9506 21.5488 14.9426V18.1296" stroke="#0039D1" stroke-width="1.5"></path>
<path d="M24.1846 18.1297V15.7187C24.1846 15.6087 24.2776 15.5197 24.3926 15.5197H35.6066C35.7216 15.5197 35.8146 15.6087 35.8146 15.7187V18.1297" stroke="#0039D1" stroke-width="1.5"></path>
</svg>