<svg width="80" height="80" viewBox="0 0 80 80" fill="none" xmlns="http://www.w3.org/2000/svg">
<path d="M29.252 41.2002C30.741 43.1672 33.101 44.4372 35.758 44.4372C40.262 44.4372 43.914 40.7852 43.914 36.2812C43.914 31.7762 40.262 28.1252 35.758 28.1252" stroke="#0039D1" stroke-width="1.75"></path>
<path fill-rule="evenodd" clip-rule="evenodd" d="M35.7578 35.6553C35.4128 35.6553 35.1328 35.9353 35.1328 36.2813C35.1328 36.6273 35.4128 36.9073 35.7578 36.9073C36.1038 36.9073 36.3838 36.6273 36.3838 36.2813C36.3838 35.9353 36.1038 35.6553 35.7578 35.6553Z" fill="#0039D1"></path>
<path d="M35.7581 20.9092V36.2812L23.6191 45.4642" stroke="#0039D1" stroke-width="1.75"></path>
<path d="M42.6076 59.0605C40.4386 59.7115 38.1386 60.0625 35.7576 60.0625C22.6236 60.0625 11.9766 49.4145 11.9766 36.2815C11.9766 23.1475 22.6236 12.4995 35.7576 12.4995C48.8916 12.4995 59.5386 23.1475 59.5386 36.2815C59.5386 38.2025 59.3116 40.0705 58.8806 41.8595" stroke="#0039D1" stroke-width="1.75"></path>
<path d="M11.9775 36.2812H15.1945" stroke="#0039D1" stroke-width="1.75"></path>
<path d="M56.3223 36.2812H59.5393" stroke="#0039D1" stroke-width="1.75"></path>
<path d="M35.7578 12.5V15.718" stroke="#0039D1" stroke-width="1.75"></path>
<path d="M35.7578 56.8447V60.0627" stroke="#0039D1" stroke-width="1.75"></path>
<path fill-rule="evenodd" clip-rule="evenodd" d="M54.9051 41.2646C47.6601 41.2646 41.7871 47.1376 41.7871 54.3826C41.7871 61.6266 47.6601 67.4996 54.9051 67.4996C62.1501 67.4996 68.0231 61.6266 68.0231 54.3826C68.0231 47.1376 62.1501 41.2646 54.9051 41.2646ZM54.9051 43.0146C61.1731 43.0146 66.2731 48.1146 66.2731 54.3826C66.2731 60.6506 61.1731 65.7496 54.9051 65.7496C48.6371 65.7496 43.5371 60.6506 43.5371 54.3826C43.5371 48.1146 48.6371 43.0146 54.9051 43.0146Z" fill="#0039D1"></path>
<path d="M46.7352 53.0469C46.5662 52.0749 47.3802 51.0519 48.3632 50.9969C49.3472 50.9429 50.2692 51.8709 50.2082 52.8549C50.0572 55.2639 46.2952 55.5809 46.6562 58.1039H50.1022" stroke="#0039D1" stroke-width="1.75"></path>
<path d="M55.7166 58.1035V50.6615H54.4166L52.3926 54.8685V55.9565H53.8666" stroke="#0039D1" stroke-width="1.75"></path>
<path d="M59.7783 58.1035V55.0625C59.7783 54.1235 60.5403 53.3615 61.4793 53.3615C62.4183 53.3615 63.1803 54.1235 63.1803 55.0625V58.1035" stroke="#0039D1" stroke-width="1.75"></path>
<path d="M59.7783 55.3594V50.6614" stroke="#0039D1" stroke-width="1.75"></path>
</svg>