<svg width="60" height="60" viewBox="0 0 60 60" fill="none" xmlns="http://www.w3.org/2000/svg">
<path d="M21.7816 43.5046H8.30664" stroke="#0039D1" stroke-width="1.5"></path>
<path d="M8.30762 23.9441H21.3476" stroke="#0039D1" stroke-width="1.5"></path>
<path fill-rule="evenodd" clip-rule="evenodd" d="M21.5747 21.1189H8.5137C7.6157 21.1189 6.8877 21.8479 6.8877 22.7459V46.5439C6.8877 47.3369 7.5307 47.9789 8.3237 47.9789H21.7657C22.5587 47.9789 23.2007 47.3369 23.2007 46.5439V22.7459C23.2007 21.8479 22.4727 21.1189 21.5747 21.1189ZM21.5747 22.6189C21.6447 22.6189 21.7007 22.6769 21.7007 22.7459V46.4789H8.3877V22.7459C8.3877 22.6769 8.4447 22.6189 8.5137 22.6189H21.5747Z" fill="#0039D1"></path>
<path fill-rule="evenodd" clip-rule="evenodd" d="M15.0447 44.7351C14.4757 44.7351 14.0137 45.1971 14.0137 45.7661C14.0137 46.3361 14.4757 46.7981 15.0447 46.7981C15.6137 46.7981 16.0757 46.3361 16.0757 45.7661C16.0757 45.1971 15.6137 44.7351 15.0447 44.7351Z" fill="#0039D1"></path>
<path d="M13.4277 22.5476H16.6607" stroke="#0039D1" stroke-width="1.5"></path>
<path d="M36.9307 14.1648H42.2787" stroke="#0039D1" stroke-width="1.5"></path>
<path fill-rule="evenodd" clip-rule="evenodd" d="M50.9767 12.0203H28.2337C27.0537 12.0203 26.0977 12.9773 26.0977 14.1573V45.8433C26.0977 47.0233 27.0537 47.9793 28.2337 47.9793H50.9767C52.1567 47.9793 53.1127 47.0233 53.1127 45.8433V14.1573C53.1127 12.9773 52.1567 12.0203 50.9767 12.0203ZM50.9767 13.5203C51.3277 13.5203 51.6127 13.8063 51.6127 14.1573V45.8433C51.6127 46.1943 51.3277 46.4793 50.9767 46.4793H28.2337C27.8827 46.4793 27.5977 46.1943 27.5977 45.8433V14.1573C27.5977 13.8063 27.8827 13.5203 28.2337 13.5203H50.9767Z" fill="#0039D1"></path>
<path d="M36.9307 45.8357H42.2787" stroke="#0039D1" stroke-width="1.5"></path>
<path d="M26.0967 16.3083H53.1117" stroke="#0039D1" stroke-width="1.5"></path>
<path d="M53.1117 43.6921H26.0967" stroke="#0039D1" stroke-width="1.5"></path>
<path fill-rule="evenodd" clip-rule="evenodd" d="M36.0352 40.368C35.9552 40.368 35.8912 40.432 35.8912 40.513C35.8912 40.593 35.9552 40.657 36.0352 40.657C36.1152 40.657 36.1792 40.593 36.1792 40.513C36.1792 40.432 36.1152 40.368 36.0352 40.368Z" fill="#0039D1"></path>
<path fill-rule="evenodd" clip-rule="evenodd" d="M39.5508 40.368C39.4708 40.368 39.4068 40.432 39.4068 40.513C39.4068 40.593 39.4708 40.657 39.5508 40.657C39.6308 40.657 39.6948 40.593 39.6948 40.513C39.6948 40.432 39.6308 40.368 39.5508 40.368Z" fill="#0039D1"></path>
<path fill-rule="evenodd" clip-rule="evenodd" d="M43.0674 40.368C42.9874 40.368 42.9234 40.432 42.9234 40.513C42.9234 40.593 42.9874 40.657 43.0674 40.657C43.1474 40.657 43.2114 40.593 43.2114 40.513C43.2114 40.432 43.1474 40.368 43.0674 40.368Z" fill="#0039D1"></path>
</svg>