<svg width="82" height="80" viewBox="0 0 82 80" fill="none" xmlns="http://www.w3.org/2000/svg">
<path d="M59.531 54.145H5.412C2.975 54.145 1 52.169 1 49.733V30.413C1 27.976 2.975 26 5.412 26H76.587C79.024 26 81 27.976 81 30.413V49.733C81 52.169 79.024 54.145 76.587 54.145H67.304" stroke="#0039D1" stroke-width="1.75"></path>
<path fill-rule="evenodd" clip-rule="evenodd" d="M56.7314 46.8892L60.8224 62.1562L65.3194 57.6592L72.4994 64.8382L74.6804 62.6582L67.5004 55.4782L71.9984 50.9802L56.7314 46.8892ZM59.2064 49.3652L68.6174 51.8862L66.2624 54.2412L65.3194 55.1832L65.2454 55.2582L65.0254 55.4782L64.0824 56.4202L61.7284 58.7752L59.2064 49.3652Z" fill="#0039D1"></path>
<path d="M51.0723 31.7202L39.3143 45.9272L30.9263 37.5392" stroke="#0039D1" stroke-width="1.75"></path>
</svg>