<svg width="105" height="25" viewBox="0 0 105 25" fill="none" xmlns="http://www.w3.org/2000/svg">
<path fill-rule="evenodd" clip-rule="evenodd" d="M64.9488 7.4245H61.7818L61.7878 13.3485C61.7878 15.0795 61.0458 16.4795 59.3148 16.4795C57.5828 16.4795 56.8338 15.0795 56.8338 13.3485V7.4305H53.6758L53.6748 13.3485C53.6748 16.7695 55.8738 19.5415 59.2958 19.5415C62.7158 19.5415 64.9478 16.7695 64.9478 13.3485L64.9488 7.4245Z" fill="#009CDE"/>
<mask id="mask0" mask-type="alpha" maskUnits="userSpaceOnUse" x="0" y="0" width="105" height="25">
<path fill-rule="evenodd" clip-rule="evenodd" d="M0 24.0272H105V0.000213623H0V24.0272Z" fill="white"/>
</mask>
<g mask="url(#mask0)">
<path fill-rule="evenodd" clip-rule="evenodd" d="M93.498 19.2352H96.648V3.81522H93.498V19.2352Z" fill="#009CDE"/>
<path fill-rule="evenodd" clip-rule="evenodd" d="M98.9746 4.38353V3.82953H101.43V4.38353H100.532V6.82553H99.8726V4.38353H98.9746Z" fill="#009CDE"/>
<path fill-rule="evenodd" clip-rule="evenodd" d="M102.7 3.8298L103.401 5.8898H103.409L104.072 3.8298H104.999V6.8258H104.383V4.7028H104.374L103.64 6.8258H103.133L102.398 4.7238H102.39V6.8258H101.774V3.8298H102.7Z" fill="#009CDE"/>
<path fill-rule="evenodd" clip-rule="evenodd" d="M51.1008 7.29561C48.3858 6.66861 46.6718 9.36661 46.6008 9.51161C46.5658 9.58261 46.5648 9.62461 46.4448 9.62061C46.3448 9.61861 46.3338 9.51161 46.3338 9.51161L45.9968 7.44761H43.1738V19.2256H46.3378V12.8506C46.3378 12.3296 47.7408 9.83261 50.4588 10.4746C51.8338 10.7996 52.4168 11.3826 52.4168 11.3826V7.79561C52.0038 7.56761 51.5608 7.39961 51.1008 7.29561Z" fill="#009CDE"/>
<path fill-rule="evenodd" clip-rule="evenodd" d="M72.3083 10.2805C74.0523 10.2805 75.4653 11.6935 75.4643 13.4365C75.4643 15.1795 74.0513 16.5925 72.3083 16.5925C70.5653 16.5925 69.1523 15.1795 69.1523 13.4365V13.4355C69.1523 11.6935 70.5653 10.2805 72.3083 10.2805ZM69.2423 23.1045V18.8665L69.2433 18.8675V17.2805C69.2433 17.2805 69.2483 17.1535 69.3623 17.1525C69.4653 17.1515 69.4883 17.2185 69.5123 17.2805C69.7523 17.8775 71.0713 20.1515 73.9983 19.4385C77.3133 18.5035 79.2423 15.0575 78.3073 11.7435C77.3713 8.42852 73.9263 6.49952 70.6123 7.43552C67.9253 8.19352 66.0703 10.6445 66.0693 13.4355V23.1045H69.2423Z" fill="#009CDE"/>
<path fill-rule="evenodd" clip-rule="evenodd" d="M89.1361 13.4357C89.1361 15.1787 87.7241 16.5927 85.9811 16.5927C84.2381 16.5937 82.8241 15.1807 82.8231 13.4377C82.8231 11.6947 84.2361 10.2807 85.9791 10.2807H85.9801C87.7231 10.2807 89.1361 11.6937 89.1361 13.4357ZM89.0471 19.2307H92.2191V13.4357C92.2181 9.99171 89.4261 7.19971 85.9821 7.20071C82.5381 7.20071 79.7461 9.99271 79.7461 13.4367C79.7461 16.2287 81.6021 18.6797 84.2891 19.4387C87.2171 20.1517 88.5351 17.8767 88.7761 17.2807C88.8011 17.2187 88.8231 17.1517 88.9251 17.1527C89.0401 17.1537 89.0451 17.2807 89.0451 17.2807" fill="#009CDE"/>
<path fill-rule="evenodd" clip-rule="evenodd" d="M34.123 6.47772H32.851V16.5347L34.158 16.5687C36.837 16.5687 38.562 16.3247 38.562 11.5077C38.562 6.88872 37.039 6.47772 34.123 6.47772ZM33.264 19.2067H29.665V3.80872H33.527C38.202 3.80872 41.748 4.66572 41.748 11.5067C41.748 18.2827 37.992 19.2067 33.264 19.2067Z" fill="#009CDE"/>
<path fill-rule="evenodd" clip-rule="evenodd" d="M10.896 11.5417L9.12495 9.60672C6.44695 12.2547 7.89095 14.7427 8.28095 14.7547C8.32195 14.7567 8.38995 14.7617 8.43595 14.6327C8.65995 14.0077 10.461 12.2017 10.884 11.7677C10.949 11.7157 10.96 11.6207 10.908 11.5547C10.904 11.5497 10.9 11.5457 10.896 11.5417Z" fill="#009CDE"/>
<path fill-rule="evenodd" clip-rule="evenodd" d="M11.9469 12.548C11.9469 12.548 10.6969 13.908 10.3009 14.392C9.95588 14.796 9.76188 15.309 9.75488 15.84C9.75388 17.051 10.7359 18.033 11.9469 18.034C13.1579 18.034 14.1399 17.053 14.1399 15.842V15.84C14.1449 15.304 13.9489 14.785 13.5909 14.387C13.1789 13.928 11.9469 12.548 11.9469 12.548Z" fill="#009CDE"/>
<path fill-rule="evenodd" clip-rule="evenodd" d="M11.947 19.6467C8.427 19.6427 5.574 16.7907 5.571 13.2697C5.571 10.2827 7.565 8.2907 9.323 6.5337C10.495 5.3617 11.614 4.2447 11.947 2.9837C12.28 4.2447 13.399 5.3617 14.572 6.5337C16.33 8.2907 18.324 10.2827 18.324 13.2697C18.321 16.7907 15.468 19.6427 11.947 19.6467ZM12.013 0.000701904C5.379 0.000701904 0 5.3787 0 12.0137C0 18.6487 5.379 24.0277 12.013 24.0277C18.648 24.0277 24.027 18.6487 24.027 12.0137C24.027 5.3787 18.648 0.000701904 12.013 0.000701904Z" fill="#009CDE"/>
<path fill-rule="evenodd" clip-rule="evenodd" d="M11.9471 6.65302C11.9471 6.65302 11.0701 7.52902 10.7701 7.83002C10.5301 8.07002 10.0131 8.52802 10.6141 9.17702C11.2981 9.91602 14.9511 13.734 15.3691 14.354C15.5601 14.636 15.5881 14.768 15.8461 14.758C15.9901 14.753 16.0981 14.58 16.1451 14.477C16.3661 13.992 16.7421 12.526 15.6521 10.83C14.5631 9.13402 11.9471 6.65302 11.9471 6.65302Z" fill="#009CDE"/>
</g>
</svg>
