<svg width="82" height="82" viewBox="0 0 82 82" fill="none" xmlns="http://www.w3.org/2000/svg">
<path d="M54.9985 26.5425C58.6785 30.1275 60.9635 35.1375 60.9635 40.6815" stroke="#0039D1" stroke-width="1.75"></path>
<path d="M25.25 29.0903C28.837 24.1533 34.657 20.9443 41.227 20.9443C44.379 20.9443 47.359 21.6833 50.002 22.9963" stroke="#0039D1" stroke-width="1.75"></path>
<path d="M22.2501 49.3531C21.4651 47.2251 21.0371 44.9251 21.0371 42.5251C21.0371 39.3181 21.8021 36.2891 23.1591 33.6121" stroke="#0039D1" stroke-width="1.75"></path>
<path d="M30.6938 32.394C30.7278 32.352 30.7618 32.309 30.7968 32.267C33.2298 29.299 36.9978 27.395 41.2268 27.395C46.7298 27.395 50.7678 30.324 53.1818 35.006C54.4458 37.458 55.0818 40.184 55.1818 42.942C55.3168 46.651 55.2018 51.657 54.3258 56.636" stroke="#0039D1" stroke-width="1.75"></path>
<path d="M27.021 54.5785C29.12 50.2935 28.667 44.6975 28.253 41.9195C28.081 40.7625 28.063 39.5925 28.2 38.4465" stroke="#0039D1" stroke-width="1.75"></path>
<path d="M48.4926 47.5093C48.4306 51.0843 47.9716 55.5503 46.5156 60.0273" stroke="#0039D1" stroke-width="1.75"></path>
<path d="M32.2881 58.6341C32.2881 58.6341 36.5861 53.0041 34.8311 45.1331C34.8311 45.1331 33.0621 36.8811 38.6691 34.6321C39.6021 34.2581 40.6161 34.1211 41.6191 34.1951C43.5051 34.3331 46.6211 35.1921 47.8221 39.1801C47.9731 39.6791 48.0671 40.1921 48.1351 40.7091C48.2241 41.3811 48.3481 42.4931 48.4261 43.9281" stroke="#0039D1" stroke-width="1.75"></path>
<path d="M41.488 52.4712C41.067 55.3022 40.221 58.2892 38.666 61.0562" stroke="#0039D1" stroke-width="1.75"></path>
<path d="M41.1262 40.0483C41.1262 40.0483 41.8962 43.3373 41.8482 47.8083" stroke="#0039D1" stroke-width="1.75"></path>
<path d="M21.061 1.00049H8.439C4.331 1.00049 1 4.33049 1 8.43849V21.0615" stroke="#0039D1" stroke-width="1.75"></path>
<path d="M81.0005 21.061V8.439C81.0005 4.331 77.6695 1 73.5615 1H60.9395" stroke="#0039D1" stroke-width="1.75"></path>
<path d="M60.9399 80.9995H73.5619C77.6699 80.9995 81.0009 77.6695 81.0009 73.5615V60.9385" stroke="#0039D1" stroke-width="1.75"></path>
<path d="M1.00049 60.939V73.561C1.00049 77.669 4.33149 81 8.43949 81H21.0615" stroke="#0039D1" stroke-width="1.75"></path>
</svg>