<svg width="81" height="80" viewBox="0 0 81 80" fill="none" xmlns="http://www.w3.org/2000/svg">
<path d="M20.7363 42.0702H57.5383" stroke="#0039D1" stroke-width="1.75"></path>
<path d="M39.1377 23.6688V42.0888" stroke="#0039D1" stroke-width="1.75"></path>
<path d="M20.7363 42.0886C20.7363 31.9247 28.9763 23.6656 39.1403 23.6656C49.3033 23.6656 57.5433 31.9527 57.5433 42.1166" stroke="#0039D1" stroke-width="1.75"></path>
<path d="M39.1404 23.6659C39.1404 23.6659 29.2754 27.6039 29.2754 42.0699" stroke="#0039D1" stroke-width="1.75"></path>
<path d="M39.1406 23.6659C39.1406 23.6659 49.0056 27.6039 49.0056 42.0699" stroke="#0039D1" stroke-width="1.75"></path>
<path d="M39.1378 34.1747C28.9748 34.1747 26.3428 28.8447 26.3428 28.8447" stroke="#0039D1" stroke-width="1.75"></path>
<path d="M51.9376 28.8446C51.9376 28.8446 49.3046 34.1746 39.1426 34.1746" stroke="#0039D1" stroke-width="1.75"></path>
<path d="M39.1426 60.4901V42.0701" stroke="#0039D1" stroke-width="1.75"></path>
<path d="M57.5433 42.0887C57.5433 52.2527 49.3033 60.4927 39.1403 60.4927C28.9763 60.4927 20.7363 52.2527 20.7363 42.0887" stroke="#0039D1" stroke-width="1.75"></path>
<path d="M39.1406 60.493C39.1406 60.493 49.0056 56.554 49.0056 42.089" stroke="#0039D1" stroke-width="1.75"></path>
<path d="M39.1404 60.493C39.1404 60.493 29.2754 56.554 29.2754 42.089" stroke="#0039D1" stroke-width="1.75"></path>
<path d="M51.9376 55.3143C51.9376 55.3143 49.3046 49.9843 39.1426 49.9843" stroke="#0039D1" stroke-width="1.75"></path>
<path d="M26.3428 55.3143C26.3428 55.3143 28.9748 49.9843 39.1378 49.9843" stroke="#0039D1" stroke-width="1.75"></path>
<path d="M35.1953 13.6415C33.4203 17.6205 29.2443 17.7865 24.4703 20.8555C20.7403 23.2525 17.8523 26.8735 15.9463 30.8825C12.8933 37.2995 12.6613 44.9995 15.3223 51.5895" stroke="#0039D1" stroke-width="1.75"></path>
<path d="M31.877 13.1238L36.201 12.1368L37.189 16.4598" stroke="#0039D1" stroke-width="1.75"></path>
<path d="M16.4717 59.7255C20.8047 59.2735 23.0357 62.8075 28.0807 65.4075C32.0227 67.4385 36.6027 68.1285 41.0277 67.7755C48.1117 67.2105 54.8957 63.5615 59.2717 57.9615" stroke="#0039D1" stroke-width="1.75"></path>
<path d="M17.683 62.8583L14.665 59.6073L17.916 56.5903" stroke="#0039D1" stroke-width="1.75"></path>
<path d="M65.7444 52.8994C63.1854 49.3724 65.1304 45.6724 64.8594 40.0034C64.6484 35.5754 62.9554 31.2634 60.4374 27.6084C56.4064 21.7554 49.8544 17.7054 42.8164 16.7144" stroke="#0039D1" stroke-width="1.75"></path>
<path d="M67.8516 50.2841L66.5446 54.5221L62.3066 53.2161" stroke="#0039D1" stroke-width="1.75"></path>
</svg>