<svg width="80" height="80" viewBox="0 0 80 80" fill="none" xmlns="http://www.w3.org/2000/svg">
<path d="M20.2646 37.9404C20.2646 27.0404 29.1006 18.2044 40.0006 18.2044C50.8996 18.2044 59.7366 27.0404 59.7366 37.9404" stroke="#0039D1" stroke-width="1.75"></path>
<path fill-rule="evenodd" clip-rule="evenodd" d="M58.8817 37.8203H56.7627V49.3513H58.8817C61.6507 49.3513 63.8957 47.1063 63.8957 44.3373V42.8343C63.8957 40.0653 61.6507 37.8203 58.8817 37.8203ZM58.8817 39.5703C60.6817 39.5703 62.1457 41.0343 62.1457 42.8343V44.3373C62.1457 46.1363 60.6817 47.6013 58.8817 47.6013H58.5127V39.5703H58.8817Z" fill="#0039D1"></path>
<path fill-rule="evenodd" clip-rule="evenodd" d="M55.2445 35.5459H54.7895C53.9535 35.5459 53.2705 36.2299 53.2705 37.0649V50.1069C53.2705 50.9419 53.9535 51.6249 54.7895 51.6249H55.2445C56.0795 51.6249 56.7625 50.9419 56.7625 50.1069V37.0649C56.7625 36.2299 56.0795 35.5459 55.2445 35.5459Z" fill="#0039D1"></path>
<path fill-rule="evenodd" clip-rule="evenodd" d="M25.2103 35.5459H24.7553C23.9193 35.5459 23.2363 36.2299 23.2363 37.0649V50.1069C23.2363 50.9419 23.9193 51.6249 24.7553 51.6249H25.2103C26.0453 51.6249 26.7283 50.9419 26.7283 50.1069V37.0649C26.7283 36.2299 26.0453 35.5459 25.2103 35.5459Z" fill="#0039D1"></path>
<path fill-rule="evenodd" clip-rule="evenodd" d="M23.2375 37.8203H21.1185C18.3495 37.8203 16.1045 40.0653 16.1045 42.8343V44.3373C16.1045 47.1063 18.3495 49.3513 21.1185 49.3513H23.2375V37.8203ZM21.4875 39.5703V47.6013H21.1185C19.3185 47.6013 17.8545 46.1363 17.8545 44.3373V42.8343C17.8545 41.0343 19.3185 39.5703 21.1185 39.5703H21.4875Z" fill="#0039D1"></path>
<path d="M44.3184 61.7959H46.3854C52.1174 61.7959 56.7624 57.1499 56.7624 51.4189V49.3519" stroke="#0039D1" stroke-width="1.75"></path>
<path fill-rule="evenodd" clip-rule="evenodd" d="M44.6648 58.1377H41.9738C41.0958 58.1377 40.3828 58.8497 40.3828 59.7287V60.2047C40.3828 61.0827 41.0958 61.7957 41.9738 61.7957H44.6648C45.5428 61.7957 46.2548 61.0827 46.2548 60.2047V59.7287C46.2548 58.8497 45.5428 58.1377 44.6648 58.1377ZM42.1328 60.0457H44.5048V59.8877H42.1328V60.0457Z" fill="#0039D1"></path>
<path d="M35.0205 43.5859H36.2915" stroke="#0039D1" stroke-width="1.75"></path>
<path d="M39.3643 43.5859H40.6353" stroke="#0039D1" stroke-width="1.75"></path>
<path d="M43.708 43.5859H44.979" stroke="#0039D1" stroke-width="1.75"></path>
</svg>