<svg width="845" height="479" viewBox="0 0 845 479" fill="none" xmlns="http://www.w3.org/2000/svg">
<g clip-path="url(#clip0)">
<path fill-rule="evenodd" clip-rule="evenodd" d="M570.378 424.126L306.328 687.746C265.004 729.004 198.002 729.004 156.677 687.746V687.745C115.352 646.487 115.352 579.595 156.677 538.337L420.725 274.718L291.899 231.167L66.7096 455.991C-22.2365 544.79 -22.2365 688.766 66.7096 777.565V777.567C155.656 866.367 299.865 866.367 388.811 777.567L614 552.743L570.378 424.126Z" fill="#0039D1"/>
<mask id="mask0" mask-type="alpha" maskUnits="userSpaceOnUse" x="377" y="0" width="469" height="468">
<path fill-rule="evenodd" clip-rule="evenodd" d="M377.665 0H845.167V467.502H377.665V0Z" fill="white"/>
</mask>
<g mask="url(#mask0)">
<path fill-rule="evenodd" clip-rule="evenodd" d="M778.519 66.8148C689.655 -22.0493 545.579 -22.0493 456.715 66.8148L377.665 145.865L421.247 274.574L539.121 156.699C580.407 115.412 647.348 115.412 688.635 156.699C729.922 197.986 729.922 264.925 688.635 306.213L570.76 424.087L699.469 467.669L778.519 388.619C867.383 299.755 867.383 155.679 778.519 66.8148Z" fill="#00C67A"/>
</g>
</g>
<g filter="url(#filter0_i)">
<path fill-rule="evenodd" clip-rule="evenodd" d="M657.286 232.639C658.805 232.639 660.19 232.266 661.44 231.518C662.691 230.771 663.692 229.77 664.444 228.514C665.196 227.259 665.571 225.86 665.571 224.32C665.571 222.779 665.196 221.381 664.444 220.125C663.692 218.87 662.691 217.868 661.44 217.121C660.19 216.374 658.805 216 657.286 216C655.813 216 654.447 216.377 653.189 217.132C651.931 217.887 650.918 218.896 650.151 220.16C649.384 221.423 649 222.81 649 224.32C649 225.86 649.372 227.259 650.116 228.514C650.86 229.77 651.862 230.771 653.12 231.518C654.378 232.266 655.767 232.639 657.286 232.639ZM654.857 249.852L683.857 220.78L679.714 216.574L650.714 245.693L654.857 249.852ZM655.726 227.038C656.202 227.33 656.722 227.475 657.286 227.475C657.85 227.475 658.37 227.33 658.845 227.038C659.321 226.747 659.703 226.363 659.993 225.885C660.284 225.408 660.429 224.886 660.429 224.32C660.429 223.753 660.284 223.231 659.993 222.754C659.703 222.277 659.321 221.892 658.845 221.601C658.37 221.31 657.85 221.164 657.286 221.164C656.722 221.164 656.202 221.31 655.726 221.601C655.251 221.892 654.868 222.277 654.578 222.754C654.288 223.231 654.143 223.753 654.143 224.32C654.143 224.886 654.288 225.408 654.578 225.885C654.868 226.363 655.251 226.747 655.726 227.038ZM676.714 251C678.233 251 679.622 250.626 680.88 249.879C682.138 249.132 683.14 248.13 683.884 246.875C684.628 245.619 685 244.221 685 242.68C685 241.14 684.628 239.741 683.884 238.486C683.14 237.23 682.138 236.229 680.88 235.481C679.622 234.734 678.233 234.361 676.714 234.361C675.241 234.361 673.876 234.738 672.617 235.493C671.359 236.248 670.347 237.257 669.579 238.52C668.812 239.784 668.429 241.17 668.429 242.68C668.429 244.221 668.804 245.619 669.556 246.875C670.308 248.13 671.309 249.132 672.56 249.879C673.81 250.626 675.195 251 676.714 251ZM675.011 245.399C675.443 245.69 675.916 245.836 676.429 245.836C676.941 245.836 677.414 245.69 677.846 245.399C678.278 245.108 678.626 244.723 678.89 244.246C679.154 243.769 679.286 243.247 679.286 242.68C679.286 242.114 679.154 241.592 678.89 241.115C678.626 240.637 678.278 240.253 677.846 239.962C677.414 239.67 676.941 239.525 676.429 239.525C675.916 239.525 675.443 239.67 675.011 239.962C674.579 240.253 674.231 240.637 673.967 241.115C673.703 241.592 673.571 242.114 673.571 242.68C673.571 243.247 673.703 243.769 673.967 244.246C674.231 244.723 674.579 245.108 675.011 245.399Z" fill="#0039D1"/>
</g>
<g filter="url(#filter1_i)">
<path d="M565.785 252.153V240.443H539.767L554.055 227.543C556.453 225.39 558.496 223.447 560.185 221.713L560.498 221.39C562.245 219.575 563.563 217.593 564.452 215.443C565.34 213.293 565.785 210.587 565.785 207.323C565.785 202.901 564.837 199.013 562.941 195.659C561.046 192.304 558.446 189.689 555.144 187.813C551.841 185.938 548.102 185 543.925 185C539.364 185 535.365 185.9 531.93 187.699C528.494 189.498 525.813 192.045 523.888 195.338C521.963 198.632 521 202.535 521 207.049H533.44C533.381 205.219 533.781 203.519 534.64 201.948C535.499 200.378 536.706 199.112 538.261 198.152C539.816 197.191 541.615 196.711 543.659 196.711C545.614 196.711 547.317 197.16 548.768 198.06C550.22 198.96 551.345 200.195 552.145 201.765C552.945 203.336 553.344 205.128 553.344 207.14C553.344 208.543 552.93 210.053 552.1 211.669C551.271 213.285 549.849 215.009 547.835 216.838L521 241.358V252.153H565.785Z" fill="#0039D1"/>
</g>
<g filter="url(#filter2_i)">
<path d="M575.546 264.769C579.624 265.442 582.653 264.646 584.633 262.382C586.613 260.117 587.603 256.782 587.603 252.376V239.891H575.546V252.376H581.752C581.959 253.844 581.892 255.137 581.552 256.254C581.213 257.371 580.599 258.228 579.713 258.825C578.826 259.421 577.674 259.658 576.255 259.536L575.546 264.769Z" fill="#0039D1"/>
</g>
<g filter="url(#filter3_i)">
<path d="M635.364 252.153V241.889H641V230.25H635.364V213.754H623.209V230.25H609.381L629.374 186.168H615.635L595.642 230.25V241.889H623.209V252.153H635.364Z" fill="#0039D1"/>
</g>
<g filter="url(#filter4_i)">
<path fill-rule="evenodd" clip-rule="evenodd" d="M550.2 271.562C550.723 271.562 551.201 271.433 551.635 271.175C552.069 270.917 552.415 270.573 552.673 270.142C552.931 269.711 553.06 269.231 553.06 268.702H551.286C551.286 269.004 551.18 269.261 550.969 269.472C550.759 269.682 550.502 269.788 550.2 269.788C549.898 269.788 549.642 269.682 549.431 269.472C549.22 269.261 549.115 269.004 549.115 268.702H547.341C547.341 269.231 547.47 269.711 547.728 270.142C547.986 270.573 548.332 270.917 548.766 271.175C549.2 271.433 549.678 271.562 550.2 271.562ZM523.274 282.906V277.168H529.711V282.906H531.976V269.316H529.711V275.035H523.274V269.316H521V282.906H523.274ZM537.469 283.189C538.387 283.189 539.153 283.018 539.767 282.675C540.176 282.446 540.551 282.13 540.891 281.727L541.045 281.534L541.046 282.906H543.037V276.649C543.037 276.209 543.018 275.801 542.98 275.427C542.943 275.052 542.833 274.686 542.65 274.327C542.317 273.654 541.805 273.17 541.116 272.874C540.428 272.578 539.63 272.43 538.724 272.43C537.522 272.43 536.568 272.691 535.86 273.214C535.152 273.736 534.672 274.428 534.42 275.29L536.497 275.941C536.667 275.419 536.965 275.051 537.393 274.837C537.821 274.623 538.265 274.516 538.724 274.516C539.485 274.516 540.026 274.683 540.347 275.016C540.597 275.276 540.748 275.647 540.799 276.131L540.807 276.235L540.261 276.314L539.606 276.408C538.962 276.5 538.364 276.599 537.813 276.706C537.263 276.813 536.783 276.932 536.374 277.064C535.833 277.247 535.393 277.481 535.053 277.767C534.713 278.054 534.461 278.393 534.298 278.787C534.134 279.18 534.052 279.622 534.052 280.113C534.052 280.673 534.183 281.185 534.444 281.651C534.705 282.117 535.091 282.489 535.6 282.769C536.11 283.049 536.733 283.189 537.469 283.189ZM537.021 281.207C537.263 281.321 537.563 281.377 537.922 281.377C538.438 281.377 538.878 281.286 539.243 281.104C539.608 280.921 539.899 280.698 540.116 280.433C540.333 280.169 540.479 279.921 540.555 279.688C540.674 279.398 540.742 279.067 540.758 278.692L540.766 278.476C540.769 278.407 540.771 278.341 540.773 278.277L540.777 278.1L540.524 278.14C540.23 278.187 539.96 278.231 539.715 278.272C539.224 278.354 538.803 278.431 538.45 278.503C538.098 278.576 537.787 278.656 537.516 278.744C537.252 278.839 537.028 278.949 536.846 279.074C536.663 279.2 536.523 279.345 536.426 279.509C536.328 279.672 536.28 279.864 536.28 280.084C536.28 280.336 536.343 280.558 536.468 280.75C536.594 280.942 536.778 281.094 537.021 281.207ZM552.144 276.253L547.293 282.906H545.472V272.713H547.652V279.197L552.522 272.713H554.325V282.906H552.144V276.253ZM559.27 282.906V277.999L563.168 282.906H566.178L561.884 277.81L565.839 272.713H562.998L559.27 277.621V272.713H556.967L556.948 282.906H559.27ZM569.396 282.39L569.397 287.436H567.103V272.713H569.113L569.113 273.443L569.282 273.296C569.352 273.24 569.423 273.185 569.496 273.133C570.153 272.665 570.966 272.43 571.935 272.43C572.898 272.43 573.733 272.665 574.441 273.133C575.149 273.602 575.698 274.241 576.088 275.049C576.478 275.858 576.673 276.778 576.673 277.81C576.673 278.829 576.481 279.745 576.097 280.556C575.714 281.368 575.172 282.01 574.474 282.481C573.776 282.953 572.958 283.189 572.02 283.189L571.727 283.182C570.861 283.14 570.125 282.906 569.519 282.481L569.396 282.39ZM571.671 281.151C571.061 281.151 570.568 281.011 570.194 280.731C569.82 280.451 569.546 280.059 569.373 279.556C569.2 279.052 569.113 278.47 569.113 277.81C569.113 277.143 569.2 276.559 569.373 276.059C569.546 275.559 569.815 275.169 570.18 274.889C570.545 274.609 571.017 274.469 571.596 274.469C572.206 274.469 572.709 274.618 573.106 274.917C573.502 275.216 573.795 275.619 573.983 276.125C574.172 276.632 574.266 277.193 574.266 277.81C574.266 278.433 574.174 278.997 573.988 279.504C573.802 280.01 573.518 280.411 573.134 280.707C572.75 281.003 572.263 281.151 571.671 281.151ZM583.898 282.675C583.284 283.018 582.518 283.189 581.6 283.189C580.863 283.189 580.241 283.049 579.731 282.769C579.221 282.489 578.836 282.117 578.575 281.651C578.314 281.185 578.183 280.673 578.183 280.113C578.183 279.622 578.265 279.18 578.429 278.787C578.592 278.393 578.844 278.054 579.184 277.767C579.523 277.481 579.964 277.247 580.505 277.064C580.914 276.932 581.394 276.813 581.944 276.706C582.495 276.599 583.092 276.5 583.737 276.408L584.392 276.314L584.938 276.235L584.93 276.131C584.878 275.647 584.728 275.276 584.478 275.016C584.157 274.683 583.616 274.516 582.855 274.516C582.395 274.516 581.952 274.623 581.524 274.837C581.096 275.051 580.797 275.419 580.627 275.941L578.551 275.29C578.803 274.428 579.283 273.736 579.99 273.214C580.698 272.691 581.653 272.43 582.855 272.43C583.761 272.43 584.558 272.578 585.247 272.874C585.936 273.17 586.447 273.654 586.781 274.327C586.963 274.686 587.073 275.052 587.111 275.427C587.149 275.801 587.168 276.209 587.168 276.649V282.906H585.176L585.176 281.534L585.022 281.727C584.681 282.13 584.307 282.446 583.898 282.675ZM582.053 281.377C581.694 281.377 581.394 281.321 581.151 281.207C580.909 281.094 580.725 280.942 580.599 280.75C580.473 280.558 580.41 280.336 580.41 280.084C580.41 279.864 580.459 279.672 580.557 279.509C580.654 279.345 580.794 279.2 580.977 279.074C581.159 278.949 581.383 278.839 581.647 278.744C581.917 278.656 582.229 278.576 582.581 278.503C582.933 278.431 583.355 278.354 583.846 278.272C584.091 278.231 584.361 278.187 584.655 278.14L584.908 278.1L584.904 278.277C584.902 278.341 584.9 278.407 584.897 278.476L584.889 278.692C584.873 279.067 584.805 279.398 584.686 279.688C584.61 279.921 584.464 280.169 584.247 280.433C584.03 280.698 583.739 280.921 583.374 281.104C583.009 281.286 582.569 281.377 582.053 281.377ZM602.853 280.886V285.049H600.579V282.906H589.603V272.713H591.783V280.886H594.661V272.713H596.841V280.886H599.72V272.713H601.9V280.886H602.853ZM606.166 282.906L611.017 276.253V282.906H613.197V272.713H611.394L606.525 279.197V272.713H604.344V282.906H606.166ZM621.984 271.175C621.549 271.433 621.071 271.562 620.549 271.562C620.027 271.562 619.549 271.433 619.115 271.175C618.68 270.917 618.334 270.573 618.076 270.142C617.818 269.711 617.689 269.231 617.689 268.702H619.464C619.464 269.004 619.569 269.261 619.78 269.472C619.991 269.682 620.247 269.788 620.549 269.788C620.851 269.788 621.107 269.682 621.318 269.472C621.529 269.261 621.634 269.004 621.634 268.702H623.409C623.409 269.231 623.28 269.711 623.022 270.142C622.764 270.573 622.418 270.917 621.984 271.175ZM617.642 282.906L622.493 276.253V282.906H624.673V272.713H622.871L618.001 279.197V272.713H615.821V282.906H617.642ZM635.923 274.733V282.906H633.649V274.733H630.242V272.713H639.33V274.733H635.923ZM643.738 283.189C644.656 283.189 645.422 283.018 646.036 282.675C646.445 282.446 646.819 282.13 647.16 281.727L647.314 281.534L647.314 282.906H649.306V276.649C649.306 276.209 649.287 275.801 649.249 275.427C649.211 275.052 649.101 274.686 648.919 274.327C648.585 273.654 648.074 273.17 647.385 272.874C646.696 272.578 645.899 272.43 644.993 272.43C643.791 272.43 642.836 272.691 642.128 273.214C641.421 273.736 640.941 274.428 640.689 275.29L642.765 275.941C642.935 275.419 643.234 275.051 643.662 274.837C644.09 274.623 644.533 274.516 644.993 274.516C645.754 274.516 646.295 274.683 646.616 275.016C646.866 275.276 647.016 275.647 647.068 276.131L647.076 276.235L646.53 276.314L645.875 276.408C645.23 276.5 644.633 276.599 644.082 276.706C643.531 276.813 643.052 276.932 642.643 277.064C642.102 277.247 641.661 277.481 641.321 277.767C640.982 278.054 640.73 278.393 640.566 278.787C640.403 279.18 640.321 279.622 640.321 280.113C640.321 280.673 640.452 281.185 640.713 281.651C640.974 282.117 641.359 282.489 641.869 282.769C642.378 283.049 643.001 283.189 643.738 283.189ZM643.289 281.207C643.531 281.321 643.832 281.377 644.191 281.377C644.706 281.377 645.147 281.286 645.512 281.104C645.877 280.921 646.168 280.698 646.385 280.433C646.602 280.169 646.748 279.921 646.824 279.688C646.943 279.398 647.011 279.067 647.027 278.692L647.035 278.476C647.038 278.407 647.04 278.341 647.042 278.277L647.046 278.1L646.793 278.14C646.499 278.187 646.229 278.231 645.984 278.272C645.493 278.354 645.071 278.431 644.719 278.503C644.367 278.576 644.055 278.656 643.785 278.744C643.52 278.839 643.297 278.949 643.115 279.074C642.932 279.2 642.792 279.345 642.695 279.509C642.597 279.672 642.548 279.864 642.548 280.084C642.548 280.336 642.611 280.558 642.737 280.75C642.863 280.942 643.047 281.094 643.289 281.207ZM654.034 287.436L654.034 282.39L654.157 282.481C654.763 282.906 655.499 283.14 656.364 283.182L656.658 283.189C657.595 283.189 658.413 282.953 659.112 282.481C659.81 282.01 660.351 281.368 660.735 280.556C661.119 279.745 661.311 278.829 661.311 277.81C661.311 276.778 661.115 275.858 660.725 275.049C660.335 274.241 659.786 273.602 659.079 273.133C658.371 272.665 657.535 272.43 656.573 272.43C655.604 272.43 654.791 272.665 654.133 273.133C654.06 273.185 653.989 273.24 653.92 273.296L653.751 273.443L653.751 272.713H651.741V287.436H654.034ZM654.832 280.731C655.206 281.011 655.698 281.151 656.309 281.151C656.9 281.151 657.388 281.003 657.771 280.707C658.155 280.411 658.44 280.01 658.626 279.504C658.811 278.997 658.904 278.433 658.904 277.81C658.904 277.193 658.81 276.632 658.621 276.125C658.432 275.619 658.139 275.216 657.743 274.917C657.347 274.618 656.843 274.469 656.233 274.469C655.654 274.469 655.182 274.609 654.817 274.889C654.452 275.169 654.183 275.559 654.01 276.059C653.837 276.559 653.751 277.143 653.751 277.81C653.751 278.47 653.837 279.052 654.01 279.556C654.183 280.059 654.457 280.451 654.832 280.731ZM665.189 282.906L670.04 276.253V282.906H672.221V272.713H670.418L665.548 279.197V272.713H663.368V282.906H665.189ZM681.658 283.085V287.153H679.639V283.085C678.644 283.243 677.743 283.136 676.935 282.765C676.126 282.393 675.484 281.789 675.009 280.953C674.534 280.116 674.297 279.068 674.297 277.81C674.297 276.558 674.534 275.51 675.009 274.667C675.484 273.824 676.126 273.218 676.935 272.85C677.743 272.482 678.644 272.377 679.639 272.534V269.476H681.658V272.534C682.652 272.377 683.554 272.482 684.362 272.85C685.171 273.218 685.812 273.824 686.287 274.667C686.762 275.51 687 276.558 687 277.81C687 279.068 686.762 280.116 686.287 280.953C685.812 281.789 685.171 282.393 684.362 282.765C683.554 283.136 682.652 283.243 681.658 283.085ZM682.961 281C682.583 281.113 682.149 281.129 681.658 281.047V274.592C682.168 274.503 682.613 274.514 682.994 274.625C683.374 274.735 683.689 274.933 683.937 275.219C684.186 275.505 684.373 275.866 684.499 276.3C684.625 276.734 684.688 277.237 684.688 277.81C684.688 278.382 684.622 278.887 684.49 279.325C684.357 279.762 684.164 280.122 683.909 280.405C683.654 280.688 683.338 280.886 682.961 281ZM678.336 280.995C678.714 281.111 679.148 281.129 679.639 281.047V274.592C679.129 274.503 678.684 274.518 678.303 274.634C677.922 274.75 677.608 274.952 677.359 275.238C677.111 275.524 676.924 275.886 676.798 276.323C676.672 276.761 676.609 277.256 676.609 277.81C676.609 278.37 676.674 278.867 676.803 279.301C676.932 279.735 677.125 280.097 677.383 280.386C677.641 280.676 677.959 280.879 678.336 280.995Z" fill="#0039D1"/>
</g>
<defs>
<filter id="filter0_i" x="649" y="216" width="36" height="38" filterUnits="userSpaceOnUse" color-interpolation-filters="sRGB">
<feFlood flood-opacity="0" result="BackgroundImageFix"/>
<feBlend mode="normal" in="SourceGraphic" in2="BackgroundImageFix" result="shape"/>
<feColorMatrix in="SourceAlpha" type="matrix" values="0 0 0 0 0 0 0 0 0 0 0 0 0 0 0 0 0 0 127 0" result="hardAlpha"/>
<feOffset dy="3"/>
<feGaussianBlur stdDeviation="1.5"/>
<feComposite in2="hardAlpha" operator="arithmetic" k2="-1" k3="1"/>
<feColorMatrix type="matrix" values="0 0 0 0 0 0 0 0 0 0 0 0 0 0 0 0 0 0 0.2 0"/>
<feBlend mode="normal" in2="shape" result="effect1_innerShadow"/>
</filter>
<filter id="filter1_i" x="521" y="185" width="44.7847" height="70.1533" filterUnits="userSpaceOnUse" color-interpolation-filters="sRGB">
<feFlood flood-opacity="0" result="BackgroundImageFix"/>
<feBlend mode="normal" in="SourceGraphic" in2="BackgroundImageFix" result="shape"/>
<feColorMatrix in="SourceAlpha" type="matrix" values="0 0 0 0 0 0 0 0 0 0 0 0 0 0 0 0 0 0 127 0" result="hardAlpha"/>
<feOffset dy="3"/>
<feGaussianBlur stdDeviation="1.5"/>
<feComposite in2="hardAlpha" operator="arithmetic" k2="-1" k3="1"/>
<feColorMatrix type="matrix" values="0 0 0 0 0 0 0 0 0 0 0 0 0 0 0 0 0 0 0.2 0"/>
<feBlend mode="normal" in2="shape" result="effect1_innerShadow"/>
</filter>
<filter id="filter2_i" x="575.546" y="239.891" width="12.0574" height="28.1095" filterUnits="userSpaceOnUse" color-interpolation-filters="sRGB">
<feFlood flood-opacity="0" result="BackgroundImageFix"/>
<feBlend mode="normal" in="SourceGraphic" in2="BackgroundImageFix" result="shape"/>
<feColorMatrix in="SourceAlpha" type="matrix" values="0 0 0 0 0 0 0 0 0 0 0 0 0 0 0 0 0 0 127 0" result="hardAlpha"/>
<feOffset dy="3"/>
<feGaussianBlur stdDeviation="1.5"/>
<feComposite in2="hardAlpha" operator="arithmetic" k2="-1" k3="1"/>
<feColorMatrix type="matrix" values="0 0 0 0 0 0 0 0 0 0 0 0 0 0 0 0 0 0 0.2 0"/>
<feBlend mode="normal" in2="shape" result="effect1_innerShadow"/>
</filter>
<filter id="filter3_i" x="595.642" y="186.168" width="45.3589" height="68.9854" filterUnits="userSpaceOnUse" color-interpolation-filters="sRGB">
<feFlood flood-opacity="0" result="BackgroundImageFix"/>
<feBlend mode="normal" in="SourceGraphic" in2="BackgroundImageFix" result="shape"/>
<feColorMatrix in="SourceAlpha" type="matrix" values="0 0 0 0 0 0 0 0 0 0 0 0 0 0 0 0 0 0 127 0" result="hardAlpha"/>
<feOffset dy="3"/>
<feGaussianBlur stdDeviation="1.5"/>
<feComposite in2="hardAlpha" operator="arithmetic" k2="-1" k3="1"/>
<feColorMatrix type="matrix" values="0 0 0 0 0 0 0 0 0 0 0 0 0 0 0 0 0 0 0.2 0"/>
<feBlend mode="normal" in2="shape" result="effect1_innerShadow"/>
</filter>
<filter id="filter4_i" x="521" y="268.702" width="166" height="21.7339" filterUnits="userSpaceOnUse" color-interpolation-filters="sRGB">
<feFlood flood-opacity="0" result="BackgroundImageFix"/>
<feBlend mode="normal" in="SourceGraphic" in2="BackgroundImageFix" result="shape"/>
<feColorMatrix in="SourceAlpha" type="matrix" values="0 0 0 0 0 0 0 0 0 0 0 0 0 0 0 0 0 0 127 0" result="hardAlpha"/>
<feOffset dy="3"/>
<feGaussianBlur stdDeviation="1.5"/>
<feComposite in2="hardAlpha" operator="arithmetic" k2="-1" k3="1"/>
<feColorMatrix type="matrix" values="0 0 0 0 0 0 0 0 0 0 0 0 0 0 0 0 0 0 0.2 0"/>
<feBlend mode="normal" in2="shape" result="effect1_innerShadow"/>
</filter>
<clipPath id="clip0">
<rect width="845" height="479" fill="white"/>
</clipPath>
</defs>
</svg>
