<svg width="105" height="22" viewBox="0 0 105 22" fill="none" xmlns="http://www.w3.org/2000/svg">
<path fill-rule="evenodd" clip-rule="evenodd" d="M40.9059 7.91418C37.2839 7.91418 34.3369 9.64018 34.3369 12.4342C34.3369 15.2282 37.2839 16.9542 40.9059 16.9542C44.5289 16.9542 47.4749 15.2282 47.4749 12.4342C47.4749 9.64018 44.5289 7.91418 40.9059 7.91418ZM45.9419 12.4342C45.9419 14.7352 43.6819 15.8812 40.9059 15.8812C38.1299 15.8812 35.8709 14.7352 35.8709 12.4342C35.8709 10.1332 38.1299 8.98718 40.9059 8.98718C43.6819 8.98718 45.9419 10.1332 45.9419 12.4342Z" fill="#12110C"/>
<path fill-rule="evenodd" clip-rule="evenodd" d="M54.6325 7.91418C51.0095 7.91418 48.0635 9.64018 48.0635 12.4342C48.0635 15.2282 51.0095 16.9542 54.6325 16.9542C58.2555 16.9542 61.2015 15.2282 61.2015 12.4342C61.2015 9.64018 58.2555 7.91418 54.6325 7.91418ZM59.6675 12.4342C59.6675 14.7352 57.4085 15.8812 54.6325 15.8812C51.8565 15.8812 49.5975 14.7352 49.5975 12.4342C49.5975 10.1332 51.8565 8.98718 54.6325 8.98718C57.4085 8.98718 59.6675 10.1332 59.6675 12.4342Z" fill="#12110C"/>
<mask id="mask0" mask-type="alpha" maskUnits="userSpaceOnUse" x="0" y="-1" width="105" height="23">
<path fill-rule="evenodd" clip-rule="evenodd" d="M0 21.3968H105V-0.000213623H0V21.3968Z" fill="white"/>
</mask>
<g mask="url(#mask0)">
<path fill-rule="evenodd" clip-rule="evenodd" d="M80.9102 16.8038H82.4712V3.99179H80.9102V16.8038Z" fill="#12110C"/>
<path fill-rule="evenodd" clip-rule="evenodd" d="M90.1872 15.881C87.4112 15.881 85.1522 14.735 85.1522 12.434C85.1522 10.133 87.4112 8.987 90.1872 8.987C92.9632 8.987 95.0902 10.426 95.0902 12.891V13.896C94.5862 14.735 92.4012 15.881 90.1872 15.881ZM95.0902 8.006V9.504C93.9142 8.54 92.1672 7.914 90.1872 7.914C86.5652 7.914 83.6182 9.64 83.6182 12.434C83.6182 15.229 86.5652 16.954 90.1872 16.954C92.1672 16.954 93.9142 16.438 95.0902 15.513V16.804H96.6512V8.006H95.0902Z" fill="#12110C"/>
<path fill-rule="evenodd" clip-rule="evenodd" d="M78.2575 8.8561C77.5185 8.3271 76.4565 7.9151 75.0075 7.9151C73.4575 7.9151 72.3705 8.3281 71.6275 8.8161C71.3015 9.0301 71.0415 9.2571 70.8375 9.4711C70.6375 9.2361 70.3835 9.0001 70.0665 8.7831C69.3475 8.2941 68.2975 7.9151 66.7795 7.9151C65.3175 7.9151 64.2685 8.3201 63.5405 8.7941V7.9991H61.9805V16.8201H63.5405V10.6041C63.8445 10.0781 64.7155 8.9871 66.7795 8.9871C69.5655 8.9871 70.0625 10.8331 70.0665 10.8541V16.8201H71.6275V10.9681C71.6645 10.8911 71.8885 8.9871 75.0075 8.9871C77.8865 8.9871 78.2525 11.0941 78.2575 11.1141V16.8201H79.6205V10.8531C79.6205 10.4141 79.2085 9.5381 78.2575 8.8561Z" fill="#12110C"/>
<path fill-rule="evenodd" clip-rule="evenodd" d="M33.5251 12.836V12.844V12.815C33.5251 12.819 33.5251 12.827 33.5251 12.836V4.00897H31.9861V12.844C31.9861 12.844 32.0451 14.099 31.2991 14.815C30.6531 15.436 29.9041 15.76 28.4181 15.683C27.4951 15.636 26.2461 15.445 25.2431 15.292C25.0621 15.265 24.8911 15.232 24.7311 15.196L24.1641 16.376C24.4901 16.421 24.8461 16.474 25.1241 16.516C26.1631 16.674 27.1911 16.852 28.1971 16.903C30.0431 16.999 31.3931 16.745 32.4331 15.74C33.4761 14.733 33.5291 13.116 33.5251 12.836Z" fill="#12110C"/>
<path fill-rule="evenodd" clip-rule="evenodd" d="M99.744 15.1476C99.078 15.1476 98.54 15.5536 98.54 16.0546C98.54 16.5566 99.078 16.9626 99.744 16.9626C100.409 16.9626 100.948 16.5566 100.948 16.0546C100.948 15.5536 100.409 15.1476 99.744 15.1476ZM98.963 13.9586H100.524V3.99258H98.963V13.9586Z" fill="#12110C"/>
<path fill-rule="evenodd" clip-rule="evenodd" d="M102.062 5.2418V4.0338H101.437V3.8718H102.942V4.0338H102.314V5.2418H102.062Z" fill="#12110C"/>
<path fill-rule="evenodd" clip-rule="evenodd" d="M103.189 5.2418V3.8718H103.566L104.015 4.8408C104.056 4.9318 104.086 4.9988 104.106 5.0438C104.127 4.9948 104.161 4.9208 104.207 4.8248L104.662 3.8718H105V5.2418H104.757V4.0948L104.205 5.2418H103.979L103.431 4.0758V5.2418H103.189Z" fill="#12110C"/>
<path fill-rule="evenodd" clip-rule="evenodd" d="M16.1675 0.896097C15.8005 1.2631 15.5425 1.7141 15.3995 2.2081C13.8775 1.8971 12.2825 2.3341 11.1365 3.3801C11.0825 3.4301 11.0285 3.4801 10.9765 3.5321L6.39453 8.1141L8.79153 10.5111L13.3125 5.9901C13.6175 5.6851 14.0185 5.5161 14.4385 5.5161C14.8305 5.5161 15.1935 5.6651 15.4635 5.9341C16.0405 6.5111 16.0155 7.4771 15.4065 8.0851L15.3785 8.1141L17.7745 10.5111L17.8645 10.4211C17.9175 10.3691 17.9665 10.3151 18.0165 10.2611C19.0625 9.1141 19.5005 7.5201 19.1895 5.9971C19.6825 5.8541 20.1335 5.5971 20.5005 5.2301C21.6955 4.0351 21.6955 2.0911 20.5005 0.896097C19.3065 -0.298903 17.3625 -0.298903 16.1675 0.896097Z" fill="#F0A049"/>
<path fill-rule="evenodd" clip-rule="evenodd" d="M10.2612 3.38049C10.1952 3.32049 10.1283 3.26249 10.0592 3.20649C8.93225 2.28749 7.43225 1.91549 5.99725 2.20849C5.85425 1.71449 5.59725 1.26349 5.23025 0.896494C4.03425 -0.298506 2.09125 -0.298506 0.89625 0.896494C-0.29875 2.09049 -0.29875 4.03549 0.89625 5.23049C1.26325 5.59749 1.71425 5.85449 2.20725 5.99749C1.91525 7.43249 2.28625 8.93249 3.20625 10.0595C3.26225 10.1285 3.32125 10.1955 3.38125 10.2605C3.43025 10.3155 3.48025 10.3695 3.53225 10.4215L8.11425 15.0035L10.5112 12.6055L5.99025 8.08549C5.84725 7.94249 5.73825 7.77949 5.65925 7.60749C5.40425 7.04449 5.49225 6.37649 5.93425 5.93449C6.37625 5.49149 7.04425 5.40449 7.60725 5.65949C7.77925 5.73749 7.94225 5.84749 8.08525 5.99049L8.11425 6.01949L10.5112 3.62249L10.4213 3.53249C10.3682 3.48049 10.3152 3.43049 10.2612 3.38049Z" fill="#68AA3A"/>
<path fill-rule="evenodd" clip-rule="evenodd" d="M10.8857 8.79108L15.4067 13.3121C15.5497 13.4541 15.6587 13.6171 15.7377 13.7901C15.9917 14.3531 15.9047 15.0201 15.4627 15.4631C15.0207 15.9041 14.3517 15.9921 13.7897 15.7371C13.6167 15.6591 13.4537 15.5491 13.3117 15.4061L13.2827 15.3781L10.8857 17.7741L11.1317 18.0201L11.1357 18.0161C11.2007 18.0761 11.2687 18.1341 11.3367 18.1891C12.4647 19.1091 13.9637 19.4811 15.3987 19.1891C15.5427 19.6831 15.7997 20.1341 16.1667 20.5001C17.3617 21.6951 19.3057 21.6951 20.5007 20.5001C21.6957 19.3061 21.6957 17.3621 20.5007 16.1671C20.1337 15.8001 19.6817 15.5421 19.1887 15.3991C19.4817 13.9641 19.1097 12.4651 18.1897 11.3371C18.1347 11.2691 18.0757 11.2011 18.0157 11.1351C17.9667 11.0821 17.9167 11.0281 17.8647 10.9761L13.2827 6.39508L10.8857 8.79108Z" fill="#D9413D"/>
<path fill-rule="evenodd" clip-rule="evenodd" d="M8.08542 15.4064C7.94242 15.5494 7.77942 15.6584 7.60642 15.7374C7.04442 15.9924 6.37642 15.9044 5.93442 15.4634C5.49242 15.0204 5.40442 14.3524 5.65942 13.7904C5.73742 13.6174 5.84742 13.4544 5.99042 13.3114L6.01942 13.2824L3.81042 11.0744L3.72042 11.1634C3.66742 11.2164 3.61742 11.2694 3.56842 11.3234C3.50842 11.3894 3.45042 11.4574 3.39542 11.5244C2.51042 12.6174 2.20042 14.0184 2.46242 15.3294C2.46542 15.3284 2.46842 15.3284 2.47142 15.3274L2.46442 15.3374C2.48142 15.4214 2.50042 15.5054 2.52242 15.5884C2.43642 15.6044 2.35142 15.6264 2.26742 15.6514L2.26542 15.6544V15.6524C1.83242 15.7804 1.42442 16.0134 1.08342 16.3544C-0.00957817 17.4484 -0.00957817 19.2194 1.08342 20.3134C2.17642 21.4064 3.94842 21.4064 5.04242 20.3134C5.38342 19.9714 5.61642 19.5634 5.74442 19.1324C5.83042 19.1544 5.91742 19.1744 6.00342 19.1914C7.43742 19.4814 8.93342 19.1094 10.0604 18.1904C10.1284 18.1354 10.1954 18.0764 10.2614 18.0154C10.3154 17.9674 10.3684 17.9164 10.4204 17.8644L15.0024 13.2824L12.6054 10.8854L8.08542 15.4064Z" fill="#0080BE"/>
<path fill-rule="evenodd" clip-rule="evenodd" d="M4.97223 2.0768C4.92723 2.7788 4.03423 3.2928 2.97823 3.2238C1.92323 3.1568 1.10423 2.5318 1.14923 1.8298C1.19523 1.1288 2.08723 0.614798 3.14223 0.682798C4.19823 0.750798 5.01723 1.3748 4.97223 2.0768Z" fill="#FEFEFE"/>
<path fill-rule="evenodd" clip-rule="evenodd" d="M20.6237 17.3683C20.5887 17.9053 19.9067 18.2993 19.0987 18.2473C18.2907 18.1943 17.6637 17.7173 17.6987 17.1803C17.7327 16.6423 18.4157 16.2493 19.2237 16.3023C20.0317 16.3533 20.6587 16.8313 20.6237 17.3683Z" fill="#FEFEFE"/>
<path fill-rule="evenodd" clip-rule="evenodd" d="M4.32386 17.3683C4.28886 17.9053 3.60586 18.2993 2.79886 18.2473C1.99086 18.1943 1.36386 17.7173 1.39886 17.1803C1.43286 16.6423 2.11586 16.2493 2.92386 16.3023C3.73186 16.3533 4.35886 16.8313 4.32386 17.3683Z" fill="#FEFEFE"/>
<path fill-rule="evenodd" clip-rule="evenodd" d="M20.1754 1.8966C20.1304 2.5986 19.2384 3.1126 18.1824 3.0436C17.1264 2.9766 16.3074 2.3516 16.3524 1.6496C16.3984 0.947601 17.2904 0.434602 18.3464 0.502602C19.4024 0.570602 20.2204 1.1946 20.1754 1.8966Z" fill="#FEFEFE"/>
<path fill-rule="evenodd" clip-rule="evenodd" d="M2.2676 15.6515C2.2676 15.6525 2.2666 15.6525 2.2656 15.6525V15.6545L2.2676 15.6515Z" fill="#12110C"/>
<path fill-rule="evenodd" clip-rule="evenodd" d="M2.4628 15.3292C2.4628 15.3322 2.4638 15.3352 2.4648 15.3372L2.4708 15.3272C2.4678 15.3282 2.4648 15.3282 2.4628 15.3292Z" fill="#12110C"/>
<path fill-rule="evenodd" clip-rule="evenodd" d="M8.32428 15.9669C7.71228 16.5789 6.79328 16.6839 6.11328 16.2709C6.13928 16.3029 6.16728 16.3349 6.19828 16.3649C6.88028 17.0479 8.36228 17.0379 9.07428 16.3239L13.5593 11.8399L13.0053 11.2859L8.32428 15.9669Z" fill="#FEFEFE"/>
<path fill-rule="evenodd" clip-rule="evenodd" d="M5.8718 2.74859L5.6748 2.94559L5.6888 2.95959C7.0828 2.75159 8.5528 3.18359 9.6258 4.25559L9.7508 4.38159L10.1798 3.95359C9.0078 2.79259 7.3688 2.39259 5.8718 2.74859Z" fill="#FEFEFE"/>
<path fill-rule="evenodd" clip-rule="evenodd" d="M5.42963 8.32428C4.81763 7.71228 4.71263 6.79328 5.12563 6.11328C5.09363 6.13928 5.06163 6.16728 5.03063 6.19828C4.34863 6.88028 4.35963 8.36128 5.07263 9.07428L9.55663 13.5593L10.1106 13.0063L5.42963 8.32428Z" fill="#FEFEFE"/>
<path fill-rule="evenodd" clip-rule="evenodd" d="M12.3219 5.07238L7.83789 9.55638L8.39089 10.1114L13.0719 5.42938C13.6849 4.81838 14.6039 4.71238 15.2839 5.12638C15.2569 5.09338 15.2289 5.06238 15.1979 5.03138C14.5159 4.34838 13.0349 4.35938 12.3219 5.07238Z" fill="#FEFEFE"/>
<path fill-rule="evenodd" clip-rule="evenodd" d="M16.3242 12.3224L11.8402 7.83737L11.2852 8.39137L15.9672 13.0734C16.5782 13.6844 16.6842 14.6034 16.2702 15.2844C16.3032 15.2584 16.3352 15.2294 16.3662 15.1984C17.0482 14.5164 17.0372 13.0354 16.3242 12.3224Z" fill="#FEFEFE"/>
</g>
</svg>
