<svg width="60" height="60" viewBox="0 0 60 60" fill="none" xmlns="http://www.w3.org/2000/svg">
<path fill-rule="evenodd" clip-rule="evenodd" d="M50.6998 40.071H9.2998V41.426C9.2998 43.134 10.6838 44.518 12.3918 44.518H47.6078C49.3158 44.518 50.6998 43.134 50.6998 41.426V40.071ZM49.1938 41.571C49.1208 42.382 48.4368 43.018 47.6078 43.018H12.3918C11.5628 43.018 10.8788 42.382 10.8058 41.571H49.1938Z" fill="#0039D1"></path>
<path d="M48.0021 40.0701V16.9651C48.0021 16.1451 47.3381 15.4811 46.5191 15.4811H13.4811C12.6611 15.4811 11.9971 16.1451 11.9971 16.9651V40.0701" stroke="#0039D1" stroke-width="1.5"></path>
<path d="M44.8791 37.156V18.604H15.1201V37.156" stroke="#0039D1" stroke-width="1.5"></path>
<path d="M34.373 40.0701V40.9831C34.373 41.5221 33.936 41.9591 33.397 41.9591H26.603C26.064 41.9591 25.627 41.5221 25.627 40.9831V40.0701" stroke="#0039D1" stroke-width="1.5"></path>
<path fill-rule="evenodd" clip-rule="evenodd" d="M23.3076 22.5505L26.0766 32.8835L29.1206 29.8395L33.9806 34.6995L35.4566 33.2235L30.5976 28.3635L33.6406 25.3195L23.3076 22.5505ZM25.4296 24.6725L30.7436 26.0965L29.5366 27.3035L28.4756 28.3635L28.0606 28.7795L26.8526 29.9865L25.4296 24.6725Z" fill="#0039D1"></path>
</svg>