<svg width="184" height="32" viewBox="0 0 184 32" fill="none" xmlns="http://www.w3.org/2000/svg">
<path fill-rule="evenodd" clip-rule="evenodd" d="M137.434 5.21875H140.516V21.9921H137.434V20.5787C136.527 21.7521 135.235 22.3281 133.563 22.3281C131.962 22.3281 130.577 21.7281 129.428 20.5068C128.306 19.2854 127.731 17.7761 127.731 16.0028C127.731 14.2294 128.306 12.7441 129.428 11.5227C130.574 10.3014 131.959 9.67742 133.563 9.67742C135.235 9.67742 136.525 10.2534 137.434 11.4268V5.21875ZM134.137 19.3787C135.091 19.3787 135.881 19.0668 136.503 18.4454C137.126 17.7974 137.434 16.9841 137.434 16.0028C137.434 15.0214 137.123 14.2054 136.503 13.5814C135.881 12.9334 135.094 12.6241 134.137 12.6241C133.182 12.6241 132.393 12.9361 131.749 13.5814C131.127 14.2054 130.816 15.0188 130.816 16.0028C130.816 16.9841 131.127 17.8001 131.749 18.4454C132.393 19.0668 133.18 19.3787 134.137 19.3787ZM54.9181 20.5039C53.7242 19.2826 53.126 17.7972 53.126 15.9999C53.126 14.2026 53.7242 12.7172 54.9181 11.4959C56.1359 10.2746 57.6409 9.67456 59.433 9.67456C61.7516 9.67456 63.8044 10.8719 64.7855 12.7652L62.1345 14.3226C61.6559 13.3412 60.6296 12.7172 59.4118 12.7172C57.5718 12.7172 56.2104 14.0826 56.2104 15.9999C56.2104 16.9332 56.5215 17.7252 57.1197 18.3466C57.718 18.9466 58.4811 19.2559 59.4144 19.2559C60.6561 19.2559 61.6825 18.6559 62.1611 17.6746L64.836 19.2079C63.7857 21.1012 61.7543 22.3226 59.4357 22.3226C57.6435 22.3252 56.1386 21.7252 54.9181 20.5039ZM67.3756 20.5039C68.5934 21.7252 70.0984 22.3252 71.8666 22.3252C73.6348 22.3252 75.1371 21.7252 76.3576 20.5039C77.5781 19.2826 78.1976 17.7732 78.1976 15.9999C78.1976 14.2266 77.5754 12.7439 76.3576 11.5199C75.1398 10.2959 73.6348 9.67456 71.8666 9.67456C70.0984 9.67456 68.5934 10.2986 67.3756 11.5199C66.1578 12.7412 65.5596 14.2266 65.5596 15.9999C65.5596 17.7732 66.1578 19.2826 67.3756 20.5039ZM74.1852 18.3732C73.563 18.9946 72.7973 19.3066 71.8666 19.3066C70.9333 19.3066 70.1702 18.9946 69.548 18.3732C68.9524 17.7492 68.6413 16.9599 68.6413 15.9999C68.6413 15.0399 68.9497 14.2506 69.548 13.6266C70.1702 13.0052 70.9333 12.6932 71.8666 12.6932C72.7999 12.6932 73.563 13.0052 74.1852 13.6266C74.8048 14.2506 75.1159 15.0399 75.1159 15.9999C75.1159 16.9599 74.8074 17.7492 74.1852 18.3732ZM91.295 14.6346C91.295 13.0772 90.8642 11.8772 90.0054 10.9919C89.1678 10.1066 88.0936 9.67456 86.7827 9.67456C85.1581 9.67456 83.9642 10.2266 83.2224 11.3519V10.0106H80.1406V21.9919H83.2224V15.5226C83.2224 13.5332 84.2487 12.5519 85.8494 12.5519C87.2826 12.5519 88.2132 13.4132 88.2132 15.0186V21.9892H91.295V14.6346ZM94.9064 20.5039C93.7125 19.2826 93.1143 17.7972 93.1143 15.9999C93.1143 14.2026 93.7125 12.7172 94.9064 11.4959C96.1242 10.2746 97.6292 9.67456 99.4213 9.67456C101.74 9.67456 103.793 10.8719 104.774 12.7652L102.123 14.3226C101.644 13.3412 100.618 12.7172 99.4 12.7172C97.56 12.7172 96.1987 14.0826 96.1987 15.9999C96.1987 16.9332 96.5098 17.7252 97.108 18.3466C97.7063 18.9466 98.4694 19.2559 99.4027 19.2559C100.644 19.2559 101.671 18.6559 102.149 17.6746L104.824 19.2079C103.774 21.1012 101.743 22.3226 99.424 22.3226C97.6318 22.3252 96.1269 21.7252 94.9064 20.5039ZM111.865 22.3252C110.096 22.3252 108.591 21.7252 107.374 20.5039C106.156 19.2826 105.558 17.7732 105.558 15.9999C105.558 14.2266 106.156 12.7412 107.374 11.5199C108.591 10.2986 110.096 9.67456 111.865 9.67456C113.633 9.67456 115.138 10.2959 116.356 11.5199C117.573 12.7412 118.196 14.2266 118.196 15.9999C118.196 17.7732 117.573 19.2826 116.356 20.5039C115.138 21.7252 113.633 22.3252 111.865 22.3252ZM111.865 19.3066C112.795 19.3066 113.561 18.9946 114.183 18.3732C114.805 17.7492 115.114 16.9599 115.114 15.9999C115.114 15.0399 114.803 14.2506 114.183 13.6266C113.561 13.0052 112.798 12.6932 111.865 12.6932C110.931 12.6932 110.168 13.0052 109.546 13.6266C108.948 14.2506 108.637 15.0399 108.637 15.9999C108.637 16.9599 108.948 17.7492 109.546 18.3732C110.168 18.9946 110.934 19.3066 111.865 19.3066ZM126.851 9.76807C125.229 9.76807 123.797 10.5337 123.221 12.0623V10.0107H120.14V21.9867H123.221V16.2614C123.221 15.1121 123.58 14.2987 124.32 13.7947C125.059 13.2907 125.918 13.0987 126.851 13.2187V9.76807Z" fill="#0039D1"/>
<path fill-rule="evenodd" clip-rule="evenodd" d="M155.918 16.0001C155.918 14.2268 155.344 12.7415 154.198 11.5201C153.076 10.2961 151.691 9.67479 150.09 9.67212C148.417 9.67212 147.125 10.2481 146.218 11.4215V10.0081H143.137V26.7815H146.218V20.5761C147.128 21.7495 148.417 22.3255 150.09 22.3255C151.691 22.3255 153.076 21.7255 154.198 20.5041C155.344 19.2828 155.918 17.7735 155.918 16.0001ZM151.882 18.4455C151.26 19.0668 150.47 19.3788 149.516 19.3788C148.561 19.3788 147.771 19.0668 147.152 18.4455C146.53 17.8001 146.218 16.9841 146.218 16.0028C146.218 15.0188 146.53 14.2055 147.152 13.5815C147.771 12.9361 148.561 12.6241 149.516 12.6241C150.473 12.6241 151.26 12.9335 151.882 13.5815C152.526 14.2055 152.837 15.0215 152.837 16.0028C152.837 16.9841 152.528 17.7975 151.882 18.4455ZM170.059 10.0106H166.977V11.4266C166.047 10.2532 164.757 9.67725 163.085 9.67725C161.481 9.67725 160.12 10.3012 158.974 11.5226C157.852 12.7439 157.277 14.2292 157.277 16.0026C157.277 17.7759 157.852 19.2852 158.974 20.5066C160.122 21.7279 161.484 22.3279 163.085 22.3279C164.754 22.3279 166.047 21.7519 166.977 20.5786V21.9919H170.059V10.0106ZM166.023 18.4452C165.4 19.0666 164.611 19.3786 163.656 19.3786C162.702 19.3786 161.912 19.0666 161.292 18.4452C160.67 17.7999 160.359 16.9839 160.359 16.0026C160.359 15.0186 160.67 14.2052 161.292 13.5812C161.912 12.9359 162.702 12.6239 163.656 12.6239C164.613 12.6239 165.4 12.9332 166.023 13.5812C166.666 14.2052 166.977 15.0212 166.977 16.0026C166.977 16.9839 166.669 17.7972 166.023 18.4452ZM183.737 10.0107H180.44L177.789 18.0587L174.683 10.0081H171.314L176.212 21.6054C175.641 23.2347 174.731 23.9307 173.083 23.9067V26.7841C176.14 26.9521 178.148 25.4427 179.39 21.9921L183.737 10.0107Z" fill="#00D986"/>
<path d="M23.2021 24.4667L27.2198 32H30.4611C39.2569 32 46.4149 24.8213 46.4149 16C46.4149 7.17867 39.2569 0 30.4611 0H27.2198L23.2021 7.53333H30.4611C35.1143 7.53333 38.9033 11.3307 38.9033 16C38.9033 20.6693 35.1169 24.4667 30.4611 24.4667H23.2021Z" fill="#00D986"/>
<path d="M23.2127 24.4667L19.195 32H15.9538C7.15792 32 0 24.8213 0 16C0 7.17867 7.15792 0 15.9538 0H19.195L23.2127 7.53333H15.9538C11.3006 7.53333 7.51156 11.3333 7.51156 16C7.51156 20.6667 11.3006 24.4667 15.9538 24.4667H23.2127Z" fill="#0039D1"/>
</svg>
