<svg width="82" height="82" viewBox="0 0 82 82" fill="none" xmlns="http://www.w3.org/2000/svg">
<path d="M65.1112 66.7613L63.2312 57.3463C62.8152 55.2713 61.6872 53.3813 60.0502 52.0293C59.0052 51.1693 57.9472 50.6153 56.9332 50.3933L48.8942 48.0593C48.7192 48.0083 48.5542 47.9313 48.4032 47.8293C47.9802 47.5433 47.7022 47.0873 47.6432 46.5793L47.2722 43.3993C49.5232 41.6513 51.1882 39.0383 51.9872 35.9883C53.4222 35.8603 54.5252 34.2633 54.5252 32.2493C54.5252 30.3883 53.5902 28.8823 52.3092 28.5613C52.3092 28.5613 52.9732 15.2393 40.9992 15.2393C29.0242 15.2393 29.6232 28.5813 29.6232 28.5813C28.3782 28.9373 27.4772 30.4203 27.4772 32.2493C27.4772 34.2613 28.5732 35.8563 30.0072 35.9883C30.8102 39.0343 32.4742 41.6483 34.7242 43.3993L34.3572 46.5793C34.2982 47.0873 34.0202 47.5433 33.5962 47.8293C33.4462 47.9313 33.2802 48.0083 33.1062 48.0593L25.0942 50.3843C24.0552 50.6143 22.9952 51.1683 21.9522 52.0293C20.3092 53.3863 19.1812 55.2743 18.7692 57.3463L16.8892 66.7613" stroke="#0039D1" stroke-width="1.75"></path>
<path d="M30.4756 22.8578C30.9416 21.9018 31.8536 21.1678 32.8526 20.8028C34.4756 20.2128 36.2936 20.6848 37.8646 21.4018C40.1326 22.4368 42.1146 23.6558 44.6576 23.9358C47.0806 24.2028 49.3006 23.9338 51.4776 22.8238" stroke="#0039D1" stroke-width="1.75"></path>
<path d="M33.5967 47.8296L40.9987 55.5036" stroke="#0039D1" stroke-width="1.75"></path>
<path d="M48.401 47.8296L40.999 55.5036" stroke="#0039D1" stroke-width="1.75"></path>
<path d="M40.999 55.5034V60.5554" stroke="#0039D1" stroke-width="1.75"></path>
<path d="M21.061 1.00049H8.439C4.331 1.00049 1 4.33049 1 8.43849V21.0615" stroke="#0039D1" stroke-width="1.75"></path>
<path d="M81.0005 21.061V8.439C81.0005 4.331 77.6695 1 73.5615 1H60.9395" stroke="#0039D1" stroke-width="1.75"></path>
<path d="M60.9395 80.9995H73.5615C77.6695 80.9995 81.0005 77.6695 81.0005 73.5615V60.9385" stroke="#0039D1" stroke-width="1.75"></path>
<path d="M1 60.939V73.561C1 77.669 4.331 81 8.439 81H21.061" stroke="#0039D1" stroke-width="1.75"></path>
</svg>