<svg width="130" height="23" viewBox="0 0 130 23" fill="none" xmlns="http://www.w3.org/2000/svg">
<mask id="mask0" mask-type="alpha" maskUnits="userSpaceOnUse" x="44" y="4" width="86" height="12">
<path fill-rule="evenodd" clip-rule="evenodd" d="M44.459 4.61157H130V15.4966H44.459V4.61157Z" fill="white"/>
</mask>
<g mask="url(#mask0)">
<path fill-rule="evenodd" clip-rule="evenodd" d="M59.632 11.4446C59.632 10.1126 60.504 9.01857 61.931 9.01857C63.294 9.01857 64.214 10.0656 64.214 11.4446C64.214 12.8236 63.294 13.8696 61.931 13.8696C60.504 13.8696 59.632 12.7766 59.632 11.4446ZM65.767 11.4446V7.65557H64.118V8.57457C63.595 7.89357 62.803 7.46557 61.724 7.46557C59.6 7.46557 57.935 9.13057 57.935 11.4446C57.935 13.7596 59.6 15.4246 61.724 15.4246C62.803 15.4246 63.595 14.9956 64.118 14.3146V15.2346H65.767V11.4446ZM121.448 11.4446C121.448 10.1126 122.32 9.01857 123.747 9.01857C125.11 9.01857 126.03 10.0656 126.03 11.4446C126.03 12.8236 125.11 13.8696 123.747 13.8696C122.32 13.8696 121.448 12.7766 121.448 11.4446ZM129.428 14.8736V14.9926H129.538C129.563 14.9926 129.583 14.9876 129.597 14.9786C129.613 14.9686 129.62 14.9526 129.62 14.9326C129.62 14.9126 129.613 14.8986 129.597 14.8886C129.583 14.8786 129.563 14.8736 129.538 14.8736H129.428ZM129.539 14.7896C129.596 14.7896 129.64 14.8026 129.672 14.8286C129.703 14.8546 129.718 14.8886 129.718 14.9326C129.718 14.9696 129.706 15.0006 129.68 15.0246C129.656 15.0486 129.621 15.0636 129.575 15.0686L129.721 15.2366H129.607L129.471 15.0696H129.428V15.2366H129.333V14.7896H129.539ZM129.51 15.3906C129.562 15.3906 129.611 15.3806 129.656 15.3616C129.7 15.3416 129.74 15.3146 129.773 15.2806C129.807 15.2466 129.834 15.2066 129.853 15.1616C129.872 15.1156 129.882 15.0676 129.882 15.0156C129.882 14.9636 129.872 14.9146 129.853 14.8686C129.834 14.8236 129.807 14.7836 129.773 14.7496C129.74 14.7166 129.7 14.6906 129.656 14.6706C129.611 14.6516 129.562 14.6416 129.51 14.6416C129.458 14.6416 129.409 14.6516 129.363 14.6706C129.317 14.6906 129.277 14.7166 129.243 14.7496C129.209 14.7836 129.182 14.8236 129.164 14.8686C129.144 14.9146 129.134 14.9636 129.134 15.0156C129.134 15.0676 129.144 15.1156 129.164 15.1616C129.182 15.2066 129.209 15.2466 129.243 15.2806C129.277 15.3146 129.317 15.3416 129.363 15.3616C129.409 15.3806 129.458 15.3906 129.51 15.3906ZM129.51 14.5346C129.578 14.5346 129.641 14.5466 129.701 14.5716C129.76 14.5976 129.812 14.6316 129.856 14.6756C129.901 14.7186 129.936 14.7706 129.962 14.8286C129.987 14.8876 130 14.9486 130 15.0156C130 15.0816 129.987 15.1436 129.962 15.2016C129.936 15.2596 129.901 15.3106 129.856 15.3546C129.812 15.3986 129.76 15.4326 129.701 15.4576C129.641 15.4836 129.578 15.4966 129.51 15.4966C129.441 15.4966 129.377 15.4836 129.317 15.4576C129.257 15.4326 129.205 15.3986 129.161 15.3546C129.116 15.3106 129.082 15.2596 129.056 15.2016C129.031 15.1436 129.018 15.0816 129.018 15.0156C129.018 14.9486 129.031 14.8876 129.056 14.8286C129.082 14.7706 129.116 14.7186 129.161 14.6756C129.205 14.6316 129.257 14.5976 129.317 14.5716C129.377 14.5466 129.441 14.5346 129.51 14.5346ZM127.584 11.4446V4.61157H125.934V8.57457C125.412 7.89357 124.619 7.46557 123.541 7.46557C121.416 7.46557 119.752 9.13057 119.752 11.4446C119.752 13.7596 121.416 15.4246 123.541 15.4246C124.619 15.4246 125.412 14.9956 125.934 14.3146V15.2346H127.584V11.4446ZM86.219 8.93957C87.282 8.93957 87.964 9.60557 88.138 10.7786H84.206C84.381 9.68457 85.047 8.93957 86.219 8.93957ZM86.252 7.46557C84.032 7.46557 82.478 9.08257 82.478 11.4446C82.478 13.8546 84.095 15.4246 86.362 15.4246C87.504 15.4246 88.55 15.1386 89.469 14.3616L88.661 13.1416C88.027 13.6486 87.218 13.9336 86.458 13.9336C85.395 13.9336 84.428 13.4426 84.19 12.0786H89.818C89.835 11.8726 89.85 11.6666 89.85 11.4446C89.835 9.08257 88.376 7.46557 86.252 7.46557ZM106.148 11.4446C106.148 10.1126 107.02 9.01857 108.447 9.01857C109.81 9.01857 110.73 10.0656 110.73 11.4446C110.73 12.8236 109.81 13.8696 108.447 13.8696C107.02 13.8696 106.148 12.7766 106.148 11.4446ZM112.284 11.4446V7.65557H110.635V8.57457C110.112 7.89357 109.319 7.46557 108.241 7.46557C106.117 7.46557 104.452 9.13057 104.452 11.4446C104.452 13.7596 106.117 15.4246 108.241 15.4246C109.319 15.4246 110.112 14.9956 110.635 14.3146V15.2346H112.284V11.4446ZM96.841 11.4446C96.841 13.7436 98.443 15.4246 100.884 15.4246C102.026 15.4246 102.787 15.1706 103.612 14.5206L102.819 13.1886C102.201 13.6326 101.55 13.8696 100.838 13.8696C99.521 13.8546 98.554 12.9026 98.554 11.4446C98.554 9.98657 99.521 9.03457 100.838 9.01857C101.55 9.01857 102.201 9.25657 102.819 9.70057L103.612 8.36857C102.787 7.71857 102.026 7.46557 100.884 7.46557C98.443 7.46557 96.841 9.14557 96.841 11.4446ZM118.087 7.46557C117.135 7.46557 116.517 7.90857 116.09 8.57457V7.65557H114.456V15.2346H116.105V10.9846C116.105 9.73257 116.644 9.03457 117.722 9.03457C118.055 9.03457 118.404 9.08257 118.753 9.22457L119.259 7.67157C118.895 7.52857 118.42 7.46557 118.087 7.46557ZM73.917 8.25757C73.124 7.73457 72.03 7.46557 70.825 7.46557C68.907 7.46557 67.67 8.38457 67.67 9.89057C67.67 11.1276 68.59 11.8886 70.286 12.1266L71.063 12.2376C71.966 12.3636 72.394 12.6026 72.394 13.0296C72.394 13.6166 71.792 13.9496 70.667 13.9496C69.525 13.9496 68.701 13.5846 68.145 13.1566L67.369 14.4416C68.272 15.1076 69.414 15.4246 70.65 15.4246C72.839 15.4246 74.107 14.3936 74.107 12.9506C74.107 11.6186 73.108 10.9216 71.459 10.6836L70.682 10.5726C69.968 10.4776 69.398 10.3346 69.398 9.82757C69.398 9.27257 69.937 8.93957 70.84 8.93957C71.808 8.93957 72.743 9.30457 73.203 9.58957L73.917 8.25757ZM95.177 7.46557C94.226 7.46557 93.607 7.90857 93.179 8.57457V7.65557H91.547V15.2346H93.195V10.9846C93.195 9.73257 93.734 9.03457 94.812 9.03457C95.145 9.03457 95.495 9.08257 95.843 9.22457L96.35 7.67157C95.986 7.52857 95.51 7.46557 95.177 7.46557ZM81.114 7.65557H78.42V5.35657H76.755V7.65557H75.216V9.16157H76.755V12.6176C76.755 14.3776 77.436 15.4246 79.386 15.4246C80.099 15.4246 80.924 15.2016 81.447 14.8376L80.971 13.4266C80.48 13.7116 79.941 13.8546 79.513 13.8546C78.689 13.8546 78.42 13.3476 78.42 12.5856V9.16157H81.114V7.65557ZM56.477 15.2346V10.4776C56.477 8.68557 55.335 7.48157 53.496 7.46557C52.529 7.44957 51.53 7.75057 50.833 8.81257C50.309 7.97257 49.485 7.46557 48.328 7.46557C47.519 7.46557 46.726 7.70257 46.108 8.59057V7.65557H44.459V15.2346H46.124V11.0326C46.124 9.71657 46.853 9.01857 47.979 9.01857C49.073 9.01857 49.628 9.73257 49.628 11.0166V15.2346H51.293V11.0326C51.293 9.71657 52.053 9.01857 53.148 9.01857C54.273 9.01857 54.812 9.73257 54.812 11.0166V15.2346H56.477Z" fill="#231F20"/>
</g>
<mask id="mask1" mask-type="alpha" maskUnits="userSpaceOnUse" x="0" y="-1" width="130" height="24">
<path fill-rule="evenodd" clip-rule="evenodd" d="M0 22.7905H130V-0.000488281H0V22.7905Z" fill="white"/>
</mask>
<g mask="url(#mask1)">
<path fill-rule="evenodd" clip-rule="evenodd" d="M13.4512 20.3545H23.4222V2.43652H13.4512V20.3545Z" fill="#FF5F00"/>
<path fill-rule="evenodd" clip-rule="evenodd" d="M14.085 11.3953C14.085 7.76027 15.787 4.52227 18.437 2.43627C16.499 0.910268 14.053 -0.000732422 11.395 -0.000732422C5.10198 -0.000732422 0.000976562 5.10227 0.000976562 11.3953C0.000976562 17.6883 5.10198 22.7913 11.395 22.7913C14.053 22.7913 16.499 21.8803 18.437 20.3543C15.787 18.2673 14.085 15.0303 14.085 11.3953Z" fill="#EB001B"/>
<path fill-rule="evenodd" clip-rule="evenodd" d="M36.8735 11.3953C36.8735 17.6883 31.7715 22.7913 25.4785 22.7913C22.8205 22.7913 20.3745 21.8803 18.4365 20.3543C21.0875 18.2673 22.7895 15.0303 22.7895 11.3953C22.7895 7.76027 21.0875 4.52227 18.4365 2.43627C20.3745 0.910268 22.8205 -0.000732422 25.4785 -0.000732422C31.7715 -0.000732422 36.8735 5.10227 36.8735 11.3953Z" fill="#F79E1B"/>
<path fill-rule="evenodd" clip-rule="evenodd" d="M36.5176 18.4566V18.0146H36.4026L36.2696 18.3176L36.1366 18.0146H36.0206V18.4566H36.1026V18.1226L36.2266 18.4106H36.3116L36.4356 18.1216V18.4566H36.5176ZM35.7866 18.4566V18.0896H35.9346V18.0156H35.5576V18.0896H35.7056V18.4566H35.7866Z" fill="#F79E1B"/>
</g>
</svg>
