<svg width="60" height="60" viewBox="0 0 60 60" fill="none" xmlns="http://www.w3.org/2000/svg">
<path fill-rule="evenodd" clip-rule="evenodd" d="M30.7051 37.4725C30.5281 37.4725 30.3851 37.6165 30.3851 37.7925C30.3851 37.9695 30.5281 38.1135 30.7051 38.1135C30.8821 38.1135 31.0251 37.9695 31.0251 37.7925C31.0251 37.6165 30.8821 37.4725 30.7051 37.4725Z" fill="#0039D1"></path>
<path fill-rule="evenodd" clip-rule="evenodd" d="M36.4418 39.8113H30.7048H24.9668C24.9668 39.8113 25.1028 41.2773 24.8138 42.7163C24.5918 43.8203 23.7808 44.7993 22.5808 45.4153C22.2448 45.5863 22.4008 45.9933 22.8038 45.9933H30.7048H38.6058C39.0078 45.9933 39.1648 45.5863 38.8288 45.4153C37.6288 44.7993 36.8168 43.8203 36.5958 42.7163C36.3058 41.2773 36.4418 39.8113 36.4418 39.8113ZM34.9248 41.3113C34.9488 41.8293 35.0058 42.4203 35.1248 43.0123C35.2288 43.5313 35.4218 44.0293 35.6918 44.4933H30.7048H25.7168C25.9868 44.0293 26.1798 43.5313 26.2838 43.0123C26.4028 42.4203 26.4598 41.8293 26.4838 41.3113H30.7048H34.9248Z" fill="#0039D1"></path>
<path d="M14.0312 35.7566H47.3783" stroke="#0039D1" stroke-width="1.5"></path>
<path fill-rule="evenodd" clip-rule="evenodd" d="M48.4653 14.0076H11.5343C10.5203 14.0076 9.69727 14.8296 9.69727 15.8446V37.9746C9.69727 38.9886 10.5203 39.8116 11.5343 39.8116H48.4653C49.4803 39.8116 50.3023 38.9886 50.3023 37.9746V15.8446C50.3023 14.8296 49.4803 14.0076 48.4653 14.0076ZM48.4653 15.5076C48.6513 15.5076 48.8023 15.6586 48.8023 15.8446V37.9746C48.8023 38.1606 48.6513 38.3116 48.4653 38.3116H11.5343C11.3483 38.3116 11.1973 38.1606 11.1973 37.9746V15.8446C11.1973 15.6586 11.3483 15.5076 11.5343 15.5076H48.4653Z" fill="#0039D1"></path>
<path fill-rule="evenodd" clip-rule="evenodd" d="M14.8018 22.0719H18.4218V18.4529H14.8018V22.0719ZM16.3018 20.5719H16.9218V19.9529H16.3018V20.5719Z" fill="#0039D1"></path>
<path fill-rule="evenodd" clip-rule="evenodd" d="M21.8477 22.0719H25.4677V18.4529H21.8477V22.0719ZM23.3477 20.5719H23.9677V19.9529H23.3477V20.5719Z" fill="#0039D1"></path>
<path fill-rule="evenodd" clip-rule="evenodd" d="M28.8945 22.0719H32.5135V18.4529H28.8945V22.0719ZM30.3945 20.5719H31.0135V19.9529H30.3945V20.5719Z" fill="#0039D1"></path>
<path fill-rule="evenodd" clip-rule="evenodd" d="M35.9414 22.0719H39.5614V18.4529H35.9414V22.0719ZM37.4414 20.5719H38.0614V19.9529H37.4414V20.5719Z" fill="#0039D1"></path>
<path fill-rule="evenodd" clip-rule="evenodd" d="M42.9873 22.0719H46.6073V18.4529H42.9873V22.0719ZM44.4873 20.5719H45.1073V19.9529H44.4873V20.5719Z" fill="#0039D1"></path>
<path fill-rule="evenodd" clip-rule="evenodd" d="M14.8018 28.4239H18.4218V24.8049H14.8018V28.4239ZM16.3018 26.9249H16.9218V26.3059H16.3018V26.9249Z" fill="#0039D1"></path>
<path fill-rule="evenodd" clip-rule="evenodd" d="M21.8477 28.4239H25.4677V24.8049H21.8477V28.4239ZM23.3477 26.9249H23.9677V26.3059H23.3477V26.9249Z" fill="#0039D1"></path>
<path fill-rule="evenodd" clip-rule="evenodd" d="M28.8945 28.4239H32.5135V24.8049H28.8945V28.4239ZM30.3945 26.9249H31.0135V26.3059H30.3945V26.9249Z" fill="#0039D1"></path>
<path fill-rule="evenodd" clip-rule="evenodd" d="M35.9414 28.4239H39.5614V24.8049H35.9414V28.4239ZM37.4414 26.9249H38.0614V26.3059H37.4414V26.9249Z" fill="#0039D1"></path>
<path fill-rule="evenodd" clip-rule="evenodd" d="M42.9873 28.4239H46.6073V24.8049H42.9873V28.4239ZM44.4873 26.9249H45.1073V26.3059H44.4873V26.9249Z" fill="#0039D1"></path>
</svg>