<svg width="60" height="60" viewBox="0 0 60 60" fill="none" xmlns="http://www.w3.org/2000/svg">
<path d="M11.1885 24.5505H35.4755" stroke="#0039D1" stroke-width="1.5"></path>
<path d="M23.332 12.407V24.563" stroke="#0039D1" stroke-width="1.5"></path>
<path d="M11.1885 24.5632C11.1885 17.8552 16.6255 12.4052 23.3335 12.4052C30.0415 12.4052 35.4785 17.8742 35.4785 24.5822" stroke="#0039D1" stroke-width="1.5"></path>
<path d="M23.3342 12.405C23.3342 12.405 16.8242 15.005 16.8242 24.551" stroke="#0039D1" stroke-width="1.5"></path>
<path d="M23.334 12.405C23.334 12.405 29.844 15.005 29.844 24.551" stroke="#0039D1" stroke-width="1.5"></path>
<path d="M23.3327 19.3407C16.6257 19.3407 14.8887 15.8217 14.8887 15.8217" stroke="#0039D1" stroke-width="1.5"></path>
<path d="M31.7799 15.822C31.7799 15.822 30.0429 19.341 23.3359 19.341" stroke="#0039D1" stroke-width="1.5"></path>
<path d="M23.3359 36.7058V24.5508" stroke="#0039D1" stroke-width="1.5"></path>
<path d="M35.4785 24.5632C35.4785 31.2702 30.0415 36.7082 23.3335 36.7082C16.6255 36.7082 11.1885 31.2702 11.1885 24.5632" stroke="#0039D1" stroke-width="1.5"></path>
<path d="M23.334 36.7077C23.334 36.7077 29.844 34.1087 29.844 24.5627" stroke="#0039D1" stroke-width="1.5"></path>
<path d="M16.8232 24.5632C16.8232 34.1092 23.3332 36.7082 23.3332 36.7082V36.7092C23.3332 39.6402 26.2952 41.6852 29.0122 40.5862C32.4522 39.1982 36.7032 36.3712 39.5192 30.6242C40.0422 29.5542 41.1442 28.8912 42.3342 28.8912C43.5572 28.8912 44.5482 29.8822 44.5482 31.1052V34.3912V38.9472" stroke="#0039D1" stroke-width="1.5"></path>
<path d="M31.7799 33.2908C31.7799 33.2908 30.0429 29.7728 23.3359 29.7728" stroke="#0039D1" stroke-width="1.5"></path>
<path d="M14.8887 33.2908C14.8887 33.2908 16.6257 29.7728 23.3327 29.7728" stroke="#0039D1" stroke-width="1.5"></path>
<path fill-rule="evenodd" clip-rule="evenodd" d="M45.7391 34.3914H43.3581C41.6611 34.3914 40.2861 35.7664 40.2861 37.4624V44.5234C40.2861 46.2194 41.6611 47.5944 43.3581 47.5944H45.7391C47.4351 47.5944 48.8101 46.2194 48.8101 44.5234V37.4624C48.8101 35.7664 47.4351 34.3914 45.7391 34.3914ZM45.7391 35.8914C46.6051 35.8914 47.3101 36.5964 47.3101 37.4624V44.5234C47.3101 45.3894 46.6051 46.0944 45.7391 46.0944H43.3581C42.4911 46.0944 41.7861 45.3894 41.7861 44.5234V37.4624C41.7861 36.5964 42.4911 35.8914 43.3581 35.8914H45.7391Z" fill="#0039D1"></path>
</svg>