<svg width="319" height="647" viewBox="0 0 319 647" fill="none" xmlns="http://www.w3.org/2000/svg">
<path fill-rule="evenodd" clip-rule="evenodd" d="M341.01 426.411L424.429 458.264L579.647 324.68C649.233 264.067 656.647 158.04 596.174 88.333C535.702 18.6253 429.888 11.2261 360.302 71.8392L205.882 206.348L225.752 293.557L411.947 131.371C448.764 99.3007 504.752 103.216 536.747 140.097C568.743 176.979 564.819 233.079 528.002 265.149L341.01 426.411Z" fill="#0039D1" stroke="#0039D1" stroke-width="3"/>
<path fill-rule="evenodd" clip-rule="evenodd" d="M339.93 426.256L359.852 513.202L290.059 575.339C220.402 635.743 114.451 628.334 53.879 558.824C-6.69275 489.314 0.698261 383.617 70.3545 323.213L140.932 262.01L224.469 293.791L122.084 382.576C85.2295 414.535 81.3189 470.461 113.367 507.238C145.415 544.015 201.475 547.935 238.33 515.976L339.93 426.256Z" stroke="#00C67A" stroke-width="3"/>
</svg>
