<svg width="81" height="80" viewBox="0 0 81 80" fill="none" xmlns="http://www.w3.org/2000/svg">
<path fill-rule="evenodd" clip-rule="evenodd" d="M41.1455 53.0547C40.9445 53.0547 40.7825 53.2167 40.7825 53.4177C40.7825 53.6177 40.9445 53.7807 41.1455 53.7807C41.3465 53.7807 41.5085 53.6177 41.5085 53.4177C41.5085 53.2167 41.3465 53.0547 41.1455 53.0547Z" fill="#0039D1"></path>
<path fill-rule="evenodd" clip-rule="evenodd" d="M47.6491 56.3418H41.1461H34.6421C34.6421 56.3418 34.7961 58.0028 34.4681 59.6348C34.2171 60.8848 33.2971 61.9958 31.9371 62.6928C31.5561 62.8878 31.7341 63.3478 32.1901 63.3478H41.1461H50.1021C50.5581 63.3478 50.7351 62.8878 50.3551 62.6928C48.9941 61.9958 48.0751 60.8848 47.8231 59.6348C47.4961 58.0028 47.6491 56.3418 47.6491 56.3418ZM45.8831 58.0918C45.9111 58.6688 45.9761 59.3238 46.1071 59.9798C46.2211 60.5448 46.4271 61.0888 46.7131 61.5978H41.1461H35.5781C35.8651 61.0888 36.0701 60.5448 36.1841 59.9798C36.3161 59.3228 36.3801 58.6688 36.4091 58.0918H41.1461H45.8831Z" fill="#0039D1"></path>
<path d="M52.976 27.0909H61.279C62.429 27.0909 63.361 28.0239 63.361 29.1739V54.2589C63.361 55.4089 62.429 56.3419 61.279 56.3419H19.416C18.266 56.3419 17.333 55.4089 17.333 54.2589V29.1739C17.333 28.0239 18.266 27.0909 19.416 27.0909H29.708" stroke="#0039D1" stroke-width="1.75"></path>
<path d="M45.4966 24.0118H34.8926" stroke="#0039D1" stroke-width="1.75"></path>
<path d="M32.0635 41.1182V24.0122" stroke="#0039D1" stroke-width="1.75"></path>
<path d="M55.0877 41.1182H27.5977" stroke="#0039D1" stroke-width="1.75"></path>
<path d="M32.0635 16H46.6055C48.8235 16 50.6205 17.798 50.6205 20.015V41.118" stroke="#0039D1" stroke-width="1.75"></path>
<path d="M32.0636 16C30.2416 16 28.7646 17.477 28.7646 19.299C28.7646 20.204 29.1296 21.024 29.7196 21.621H47.0796C46.4886 21.024 46.1246 20.204 46.1246 19.299C46.1246 19.028 46.1566 18.765 46.2186 18.513" stroke="#0039D1" stroke-width="1.75"></path>
<path fill-rule="evenodd" clip-rule="evenodd" d="M41.0436 27.1973C40.4116 27.1973 39.8586 27.3223 39.3846 27.5723C38.9106 27.8223 38.5426 28.1803 38.2806 28.6473C38.1036 28.9633 37.9816 29.3163 37.9166 29.7083C37.8626 30.0233 38.0976 30.3183 38.4166 30.3473L38.4236 30.3483C38.4406 30.3493 38.4576 30.3503 38.4736 30.3503C38.7346 30.3503 38.9576 30.1633 39.0166 29.9033C39.1136 29.4713 39.2916 29.1353 39.5466 28.8953C39.8946 28.5693 40.3816 28.4073 41.0086 28.4073C41.6456 28.4073 42.1306 28.5503 42.4666 28.8353C42.8016 29.1203 42.9686 29.4893 42.9686 29.9423C42.9686 30.3623 42.8466 30.6873 42.6006 30.9193C42.5696 30.9483 42.5326 30.9783 42.4916 31.0083H37.7686C37.4696 31.0083 37.2266 31.2503 37.2266 31.5503C37.2266 31.8483 37.4696 32.0923 37.7686 32.0923H39.4786C39.3626 32.1383 39.2616 32.1823 39.1776 32.2253C38.8966 32.3693 38.6566 32.5393 38.4506 32.7303H37.7686C37.4696 32.7303 37.2266 32.9733 37.2266 33.2723C37.2266 33.5693 37.4646 33.8073 37.7596 33.8133C37.6606 34.1173 37.6056 34.4483 37.6056 34.8143C37.6056 35.4093 37.7436 35.9493 38.0226 36.4363C38.3006 36.9253 38.6796 37.2963 39.1576 37.5513C39.6366 37.8043 40.2136 37.9323 40.8886 37.9323C41.9396 37.9323 42.7786 37.6163 43.4036 36.9833C43.9146 36.4683 44.2246 35.8013 44.3336 34.9863C44.3756 34.6763 44.1506 34.3903 43.8396 34.3573C43.8206 34.3553 43.8016 34.3543 43.7816 34.3543C43.5216 34.3543 43.2946 34.5423 43.2406 34.8023C43.1706 35.1393 43.0666 35.4173 42.9296 35.6353C42.7296 35.9543 42.4426 36.2103 42.0696 36.4033C41.6976 36.5963 41.2776 36.6943 40.8106 36.6943C40.1406 36.6943 39.6206 36.5303 39.2506 36.2033C38.8796 35.8763 38.6946 35.4513 38.6946 34.9283C38.6946 34.6223 38.7616 34.3553 38.8966 34.1273C38.9636 34.0123 39.0486 33.9083 39.1496 33.8143H43.7966C44.0956 33.8143 44.3386 33.5723 44.3386 33.2723C44.3386 32.9733 44.0956 32.7303 43.7966 32.7303H41.9186C42.3816 32.5633 42.7386 32.3963 42.9756 32.2283C43.0356 32.1853 43.0906 32.1383 43.1466 32.0923H43.7966C44.0956 32.0923 44.3386 31.8483 44.3386 31.5503C44.3386 31.2843 44.1436 31.0733 43.8916 31.0263C43.9976 30.7303 44.0516 30.4073 44.0516 30.0553C44.0516 29.2173 43.7796 28.5293 43.2376 27.9973C42.6956 27.4643 41.9636 27.1973 41.0436 27.1973Z" fill="#0039D1"></path>
</svg>