<svg width="62" height="21" viewBox="0 0 62 21" fill="none" xmlns="http://www.w3.org/2000/svg">
<mask id="mask0" mask-type="alpha" maskUnits="userSpaceOnUse" x="0" y="0" width="62" height="21">
<path fill-rule="evenodd" clip-rule="evenodd" d="M0 0H62V20.1244H0V0Z" fill="white"/>
</mask>
<g mask="url(#mask0)">
<path fill-rule="evenodd" clip-rule="evenodd" d="M30.6951 0.203035L26.5279 19.5145H21.5475L25.7148 0.203035H30.6951ZM51.7344 12.7047L54.377 5.48828L55.9016 12.7047H51.7344ZM57.3246 19.5145H62L57.9344 0.203035H53.6656C52.7508 0.203035 51.9377 0.812871 51.5311 1.62599L44.0098 19.5145H49.2951L50.3115 16.6686H56.7148L57.3246 19.5145ZM44.3148 13.2129C44.3148 8.1309 37.3016 7.82598 37.3016 5.58992C37.3016 4.87844 38.0131 4.16697 39.4361 3.96369C40.1475 3.86205 42.1803 3.76041 44.4164 4.87844L45.3311 0.812871C44.1115 0.406313 42.5869 -0.000244141 40.6557 -0.000244141C35.6754 -0.000244141 32.2197 2.64238 32.2197 6.40303C32.2197 9.1473 34.659 10.7735 36.5902 11.6883C38.5213 12.603 39.2328 13.2129 39.2328 14.1276C39.2328 15.4489 37.7082 15.9571 36.2852 16.0588C33.7443 16.0588 32.3213 15.3473 31.1016 14.8391L30.1869 19.108C31.4066 19.6161 33.541 20.1243 35.7771 20.1243C40.859 19.8194 44.3148 17.2784 44.3148 13.2129ZM23.5803 0.203035L15.4492 19.5145H10.1639L6.2 4.06533C5.99672 3.15058 5.79344 2.74402 4.98033 2.33746C3.76066 1.72762 1.82951 1.11779 0 0.711231L0.101639 0.101395H8.63934C9.75738 0.101395 10.6721 0.812871 10.977 2.03254L13.1115 13.2129L18.2951 -0.000244141H23.5803V0.203035Z" fill="#1C2F76"/>
</g>
</svg>
