<svg width="81" height="80" viewBox="0 0 81 80" fill="none" xmlns="http://www.w3.org/2000/svg">
<path d="M52.7066 50.8513H11.6416V14.7983H55.3416V48.2163" stroke="#0039D1" stroke-width="1.75"></path>
<path d="M11.6416 20.2616H55.3416" stroke="#0039D1" stroke-width="1.75"></path>
<path d="M15.7373 30.1844V24.6804H29.6083V30.1844" stroke="#0039D1" stroke-width="1.75"></path>
<path d="M15.7373 34.7343H29.6083" stroke="#0039D1" stroke-width="1.75"></path>
<path d="M15.7373 38.3651H29.6083" stroke="#0039D1" stroke-width="1.75"></path>
<path d="M15.7373 41.995H29.6083" stroke="#0039D1" stroke-width="1.75"></path>
<path d="M54.8065 58.6884H19.4785V50.8514" stroke="#0039D1" stroke-width="1.75"></path>
<path d="M55.3408 22.6366H63.1778V50.3166" stroke="#0039D1" stroke-width="1.75"></path>
<path fill-rule="evenodd" clip-rule="evenodd" d="M51.7422 47.2528L55.8322 62.5188L60.3302 58.0218L67.5102 65.2008L69.6902 63.0208L62.5112 55.8408L67.0082 51.3428L51.7422 47.2528ZM54.2172 49.7278L63.6272 52.2488L61.2732 54.6038L60.3302 55.5458L59.0932 56.7838L56.7392 59.1378L54.2172 49.7278Z" fill="#0039D1"></path>
</svg>