<svg width="164" height="66" viewBox="0 0 164 66" fill="none" xmlns="http://www.w3.org/2000/svg">
<path fill-rule="evenodd" clip-rule="evenodd" d="M164 19.3018L143.886 65.5H137.661L145.128 49.3346L131.905 19.3018H138.453L148.014 42.3378H148.14L157.438 19.3018H164ZM108.726 41.549C108.713 43.1029 109.465 44.5701 110.723 45.472C112.051 46.5159 113.709 47.0759 115.401 47.0418C117.95 47.0286 120.384 46.0242 122.178 44.2309C124.172 42.3509 125.177 40.158 125.177 37.6233C123.294 36.1298 120.684 35.3778 117.324 35.3778C114.874 35.3778 112.83 35.9668 111.199 37.1448C109.544 38.349 108.726 39.8057 108.726 41.549ZM116.519 18.2606C120.973 18.2606 124.485 19.4517 127.058 21.8207C129.632 24.2056 130.926 27.4634 130.926 31.6047V51.3671H125.164V46.9155H124.901C122.404 50.5783 119.092 52.4083 114.951 52.4083C111.412 52.4083 108.465 51.3671 106.079 49.2715C103.769 47.3284 102.464 44.4466 102.517 41.4228C102.517 38.0992 103.769 35.4646 106.282 33.5083C108.792 31.5547 112.141 30.5634 116.332 30.5634C119.907 30.5634 122.854 31.2155 125.164 32.5197V31.1393C125.177 29.0831 124.262 27.1268 122.681 25.8095C121.086 24.3818 119.016 23.5903 116.871 23.6166C113.509 23.6166 110.849 25.0312 108.878 27.8657L103.569 24.5316C106.495 20.3535 110.81 18.2606 116.519 18.2606ZM78.0223 10.2725V26.6378H88.1226C90.3695 26.7009 92.5269 25.8227 94.0844 24.2187C97.2469 21.145 97.3205 16.0782 94.2449 12.9177C94.1976 12.8677 94.1449 12.8046 94.0844 12.7546C92.54 11.1113 90.3695 10.2094 88.1226 10.2725H78.0223ZM78.0223 32.3935V51.3671H72V4.50365H87.9727C91.8244 4.41688 95.5499 5.88144 98.3124 8.55552C101.112 11.0745 102.69 14.6741 102.63 18.4472C102.717 22.2362 101.135 25.8726 98.3124 28.3942C95.5157 31.0525 92.0638 32.3935 87.9727 32.3803L78.0223 32.3935Z" fill="#5F6368"/>
<path fill-rule="evenodd" clip-rule="evenodd" d="M53 28.9186C53 27.1089 52.8492 25.2967 52.5345 23.5H27V33.7548H41.6214C41.0157 37.0647 39.061 39.9925 36.2098 41.8385V48.5H44.9408C50.0614 43.8718 53 37.0179 53 28.9186Z" fill="#4285F4"/>
<path fill-rule="evenodd" clip-rule="evenodd" d="M27.1103 55.5C34.3906 55.5 40.5243 53.0928 45 48.9345L36.299 42.13C33.874 43.7906 30.7557 44.7258 27.1103 44.7258C20.0699 44.7258 14.0997 39.9486 11.962 33.5H3V40.5065C7.57324 49.6944 16.9016 55.5 27.1103 55.5Z" fill="#34A853"/>
<path fill-rule="evenodd" clip-rule="evenodd" d="M12 33.6171C10.8538 30.3049 10.8538 26.7082 12 23.3855V16.5H2.91567C-0.97189 24.0563 -0.97189 32.9568 2.91567 40.5L12 33.6171Z" fill="#FBBC04"/>
<path fill-rule="evenodd" clip-rule="evenodd" d="M27.0225 11.2724C30.8521 11.2086 34.5584 12.6778 37.325 15.3532L45 7.58473C40.1309 2.95925 33.6948 0.424659 27.0094 0.501706C16.8565 0.501706 7.55672 6.30415 3 15.4914L11.9244 22.5C14.0532 16.0493 20.0116 11.2724 27.0225 11.2724Z" fill="#EA4335"/>
</svg>
