<svg width="314" height="246" viewBox="0 0 314 246" fill="none" xmlns="http://www.w3.org/2000/svg">
<g filter="url(#filter0_i)">
<path fill-rule="evenodd" clip-rule="evenodd" d="M193.867 148.555C194.832 148.555 195.712 148.317 196.507 147.842C197.302 147.367 197.938 146.731 198.416 145.933C198.894 145.135 199.133 144.246 199.133 143.267C199.133 142.288 198.894 141.399 198.416 140.601C197.938 139.803 197.302 139.167 196.507 138.692C195.712 138.217 194.832 137.979 193.867 137.979C192.931 137.979 192.063 138.219 191.263 138.699C190.463 139.179 189.82 139.82 189.332 140.623C188.844 141.426 188.601 142.307 188.601 143.267C188.601 144.246 188.837 145.135 189.31 145.933C189.783 146.731 190.419 147.367 191.219 147.842C192.019 148.317 192.901 148.555 193.867 148.555ZM192.323 159.495L210.755 141.017L208.122 138.344L189.69 156.851L192.323 159.495ZM192.876 144.995C193.178 145.18 193.508 145.273 193.867 145.273C194.225 145.273 194.556 145.18 194.858 144.995C195.16 144.81 195.403 144.566 195.588 144.262C195.772 143.959 195.864 143.627 195.864 143.267C195.864 142.907 195.772 142.575 195.588 142.272C195.403 141.968 195.16 141.724 194.858 141.539C194.556 141.354 194.225 141.261 193.867 141.261C193.508 141.261 193.178 141.354 192.876 141.539C192.574 141.724 192.33 141.968 192.146 142.272C191.961 142.575 191.869 142.907 191.869 143.267C191.869 143.627 191.961 143.959 192.146 144.262C192.33 144.566 192.574 144.81 192.876 144.995ZM206.215 160.224C207.181 160.224 208.063 159.987 208.863 159.512C209.662 159.037 210.299 158.401 210.772 157.603C211.245 156.804 211.481 155.916 211.481 154.937C211.481 153.957 211.245 153.069 210.772 152.271C210.299 151.473 209.662 150.836 208.863 150.361C208.063 149.886 207.181 149.649 206.215 149.649C205.279 149.649 204.411 149.889 203.611 150.369C202.812 150.848 202.168 151.49 201.68 152.293C201.193 153.096 200.949 153.977 200.949 154.937C200.949 155.916 201.188 156.804 201.666 157.603C202.144 158.401 202.78 159.037 203.575 159.512C204.369 159.987 205.25 160.224 206.215 160.224ZM205.133 156.665C205.407 156.85 205.708 156.942 206.033 156.942C206.359 156.942 206.66 156.85 206.934 156.665C207.209 156.479 207.43 156.235 207.598 155.932C207.766 155.628 207.849 155.297 207.849 154.937C207.849 154.577 207.766 154.245 207.598 153.941C207.43 153.638 207.209 153.394 206.934 153.209C206.66 153.023 206.359 152.931 206.033 152.931C205.708 152.931 205.407 153.023 205.133 153.209C204.858 153.394 204.637 153.638 204.469 153.941C204.301 154.245 204.218 154.577 204.218 154.937C204.218 155.297 204.301 155.628 204.469 155.932C204.637 156.235 204.858 156.479 205.133 156.665Z" fill="#0039D1"/>
</g>
<g filter="url(#filter1_i)">
<path d="M135.711 160.957V153.514H119.175L128.256 145.315C129.78 143.947 131.079 142.712 132.152 141.61L132.351 141.405C133.461 140.252 134.299 138.992 134.864 137.625C135.429 136.259 135.711 134.539 135.711 132.465C135.711 129.654 135.109 127.183 133.904 125.051C132.699 122.919 131.047 121.256 128.948 120.064C126.849 118.872 124.472 118.276 121.818 118.276C118.919 118.276 116.377 118.848 114.194 119.992C112.01 121.135 110.306 122.754 109.083 124.847C107.859 126.94 107.247 129.421 107.247 132.29H115.154C115.116 131.127 115.37 130.047 115.916 129.048C116.462 128.05 117.229 127.246 118.218 126.635C119.206 126.025 120.35 125.719 121.649 125.719C122.891 125.719 123.973 126.005 124.896 126.577C125.818 127.149 126.534 127.934 127.042 128.932C127.55 129.93 127.804 131.069 127.804 132.348C127.804 133.24 127.541 134.199 127.014 135.227C126.487 136.254 125.583 137.349 124.303 138.512L107.247 154.096V160.957H135.711Z" fill="#0039D1"/>
</g>
<g filter="url(#filter2_i)">
<path d="M141.915 168.975C144.507 169.403 146.432 168.897 147.691 167.458C148.949 166.019 149.578 163.899 149.578 161.098V153.163H141.915V161.098H145.859C145.991 162.032 145.949 162.854 145.733 163.564C145.517 164.273 145.127 164.818 144.563 165.197C144 165.577 143.267 165.727 142.366 165.649L141.915 168.975Z" fill="#0039D1"/>
</g>
<g filter="url(#filter3_i)">
<path d="M179.934 160.957V154.433H183.516V147.036H179.934V136.551H172.209V147.036H163.42L176.127 119.019H167.395L154.688 147.036V154.433H172.209V160.957H179.934Z" fill="#0039D1"/>
</g>
<g filter="url(#filter4_i)">
<path fill-rule="evenodd" clip-rule="evenodd" d="M125.806 173.293C126.138 173.293 126.442 173.211 126.718 173.047C126.994 172.883 127.214 172.664 127.378 172.39C127.542 172.116 127.624 171.811 127.624 171.476H126.496C126.496 171.668 126.429 171.83 126.295 171.964C126.161 172.098 125.998 172.165 125.806 172.165C125.614 172.165 125.451 172.098 125.317 171.964C125.183 171.83 125.116 171.668 125.116 171.476H123.989C123.989 171.811 124.071 172.116 124.234 172.39C124.398 172.664 124.618 172.883 124.894 173.047C125.17 173.211 125.474 173.293 125.806 173.293ZM108.693 180.503V176.856H112.784V180.503H114.223V171.865H112.784V175.5H108.693V171.865H107.247V180.503H108.693ZM117.714 180.683C118.298 180.683 118.785 180.574 119.175 180.356C119.435 180.211 119.673 180.01 119.889 179.754L119.987 179.631L119.988 180.503H121.253V176.526C121.253 176.246 121.241 175.987 121.217 175.749C121.193 175.511 121.123 175.279 121.007 175.051C120.795 174.623 120.47 174.315 120.033 174.127C119.595 173.939 119.088 173.845 118.512 173.845C117.748 173.845 117.141 174.011 116.692 174.343C116.242 174.675 115.937 175.115 115.777 175.662L117.096 176.076C117.204 175.744 117.394 175.51 117.666 175.375C117.938 175.239 118.22 175.171 118.512 175.171C118.996 175.171 119.34 175.277 119.544 175.489C119.702 175.653 119.798 175.89 119.831 176.197L119.836 176.263L119.489 176.314L119.073 176.373C118.663 176.431 118.283 176.494 117.933 176.562C117.583 176.63 117.278 176.706 117.018 176.79C116.675 176.906 116.395 177.055 116.179 177.237C115.963 177.419 115.803 177.635 115.699 177.885C115.595 178.135 115.543 178.416 115.543 178.728C115.543 179.084 115.626 179.409 115.792 179.705C115.958 180.001 116.203 180.238 116.527 180.416C116.85 180.594 117.246 180.683 117.714 180.683ZM117.429 179.423C117.583 179.495 117.774 179.531 118.002 179.531C118.33 179.531 118.61 179.473 118.842 179.357C119.074 179.241 119.259 179.1 119.397 178.932C119.535 178.764 119.628 178.606 119.676 178.458C119.752 178.274 119.795 178.063 119.805 177.825L119.81 177.688C119.812 177.644 119.813 177.601 119.814 177.561L119.817 177.448L119.656 177.474C119.469 177.504 119.298 177.532 119.142 177.558C118.83 177.61 118.562 177.659 118.338 177.705C118.114 177.751 117.916 177.802 117.744 177.858C117.576 177.918 117.434 177.988 117.318 178.068C117.202 178.148 117.113 178.24 117.051 178.344C116.989 178.448 116.958 178.57 116.958 178.71C116.958 178.87 116.998 179.011 117.078 179.133C117.158 179.254 117.275 179.351 117.429 179.423ZM127.042 176.274L123.959 180.503H122.801V174.025H124.186V178.146L127.282 174.025H128.427V180.503H127.042V176.274ZM131.57 180.503V177.384L134.048 180.503H135.961L133.232 177.264L135.745 174.025H133.94L131.57 177.144V174.025H130.107L130.095 180.503H131.57ZM138.007 180.175L138.007 183.382H136.549V174.025H137.827L137.827 174.488L137.934 174.395C137.978 174.359 138.023 174.325 138.07 174.292C138.488 173.994 139.004 173.845 139.62 173.845C140.232 173.845 140.763 173.994 141.213 174.292C141.663 174.59 142.012 174.996 142.26 175.509C142.508 176.023 142.631 176.608 142.631 177.264C142.631 177.912 142.51 178.494 142.266 179.01C142.022 179.525 141.678 179.933 141.234 180.233C140.79 180.533 140.27 180.683 139.674 180.683L139.488 180.679C138.938 180.652 138.47 180.503 138.085 180.233L138.007 180.175ZM139.452 179.387C139.064 179.387 138.752 179.298 138.514 179.121C138.276 178.943 138.102 178.694 137.992 178.374C137.882 178.054 137.827 177.684 137.827 177.264C137.827 176.84 137.882 176.469 137.992 176.151C138.102 175.833 138.273 175.585 138.505 175.408C138.737 175.23 139.036 175.141 139.404 175.141C139.792 175.141 140.112 175.236 140.364 175.426C140.616 175.615 140.802 175.871 140.922 176.193C141.042 176.515 141.102 176.872 141.102 177.264C141.102 177.66 141.043 178.019 140.925 178.341C140.807 178.663 140.626 178.918 140.382 179.106C140.138 179.293 139.828 179.387 139.452 179.387ZM147.223 180.356C146.833 180.574 146.346 180.683 145.763 180.683C145.295 180.683 144.899 180.594 144.575 180.416C144.251 180.238 144.006 180.001 143.84 179.705C143.674 179.409 143.591 179.084 143.591 178.728C143.591 178.416 143.643 178.135 143.747 177.885C143.851 177.635 144.011 177.419 144.227 177.237C144.443 177.055 144.723 176.906 145.067 176.79C145.327 176.706 145.632 176.63 145.982 176.562C146.331 176.494 146.711 176.431 147.121 176.373L147.537 176.314L147.884 176.263L147.879 176.197C147.847 175.89 147.751 175.653 147.592 175.489C147.388 175.277 147.044 175.171 146.56 175.171C146.269 175.171 145.987 175.239 145.715 175.375C145.443 175.51 145.253 175.744 145.145 176.076L143.825 175.662C143.985 175.115 144.29 174.675 144.74 174.343C145.19 174.011 145.797 173.845 146.56 173.845C147.136 173.845 147.643 173.939 148.081 174.127C148.519 174.315 148.844 174.623 149.056 175.051C149.172 175.279 149.242 175.511 149.266 175.749C149.29 175.987 149.302 176.246 149.302 176.526V180.503H148.036L148.036 179.631L147.938 179.754C147.721 180.01 147.483 180.211 147.223 180.356ZM146.051 179.531C145.823 179.531 145.632 179.495 145.478 179.423C145.324 179.351 145.207 179.254 145.127 179.133C145.047 179.011 145.007 178.87 145.007 178.71C145.007 178.57 145.038 178.448 145.1 178.344C145.162 178.24 145.251 178.148 145.367 178.068C145.483 177.988 145.625 177.918 145.793 177.858C145.965 177.802 146.163 177.751 146.386 177.705C146.61 177.659 146.878 177.61 147.19 177.558C147.346 177.532 147.518 177.504 147.705 177.474L147.865 177.448L147.863 177.561C147.861 177.601 147.86 177.644 147.858 177.688L147.853 177.825C147.843 178.063 147.8 178.274 147.724 178.458C147.676 178.606 147.583 178.764 147.445 178.932C147.307 179.1 147.122 179.241 146.89 179.357C146.658 179.473 146.378 179.531 146.051 179.531ZM159.271 179.219V181.865H157.825V180.503H150.849V174.025H152.235V179.219H154.064V174.025H155.45V179.219H157.28V174.025H158.665V179.219H159.271ZM161.376 180.503L164.46 176.274V180.503H165.845V174.025H164.7L161.604 178.146V174.025H160.219V180.503H161.376ZM171.43 173.047C171.154 173.211 170.85 173.293 170.518 173.293C170.186 173.293 169.882 173.211 169.606 173.047C169.33 172.883 169.11 172.664 168.946 172.39C168.782 172.116 168.7 171.811 168.7 171.476H169.828C169.828 171.668 169.895 171.83 170.029 171.964C170.163 172.098 170.326 172.165 170.518 172.165C170.71 172.165 170.873 172.098 171.007 171.964C171.141 171.83 171.208 171.668 171.208 171.476H172.335C172.335 171.811 172.253 172.116 172.09 172.39C171.926 172.664 171.706 172.883 171.43 173.047ZM168.67 180.503L171.754 176.274V180.503H173.139V174.025H171.994L168.898 178.146V174.025H167.513V180.503H168.67ZM180.289 175.309V180.503H178.844V175.309H176.678V174.025H182.455V175.309H180.289ZM185.256 180.683C185.84 180.683 186.327 180.574 186.717 180.356C186.976 180.211 187.215 180.01 187.431 179.754L187.529 179.631L187.529 180.503H188.795V176.526C188.795 176.246 188.783 175.987 188.759 175.749C188.735 175.511 188.665 175.279 188.549 175.051C188.337 174.623 188.012 174.315 187.574 174.127C187.136 173.939 186.63 173.845 186.054 173.845C185.29 173.845 184.683 174.011 184.233 174.343C183.783 174.675 183.478 175.115 183.318 175.662L184.638 176.076C184.746 175.744 184.936 175.51 185.208 175.375C185.48 175.239 185.762 175.171 186.054 175.171C186.538 175.171 186.882 175.277 187.085 175.489C187.244 175.653 187.34 175.89 187.373 176.197L187.378 176.263L187.031 176.314L186.615 176.373C186.205 176.431 185.825 176.494 185.475 176.562C185.125 176.63 184.82 176.706 184.56 176.79C184.216 176.906 183.936 177.055 183.72 177.237C183.504 177.419 183.344 177.635 183.241 177.885C183.137 178.135 183.085 178.416 183.085 178.728C183.085 179.084 183.168 179.409 183.333 179.705C183.499 180.001 183.744 180.238 184.068 180.416C184.392 180.594 184.788 180.683 185.256 180.683ZM184.971 179.423C185.125 179.495 185.316 179.531 185.544 179.531C185.872 179.531 186.152 179.473 186.384 179.357C186.616 179.241 186.801 179.1 186.938 178.932C187.076 178.764 187.169 178.606 187.217 178.458C187.293 178.274 187.336 178.063 187.346 177.825L187.352 177.688C187.353 177.644 187.355 177.601 187.356 177.561L187.359 177.448L187.198 177.474C187.011 177.504 186.84 177.532 186.684 177.558C186.372 177.61 186.104 177.659 185.88 177.705C185.656 177.751 185.458 177.802 185.286 177.858C185.118 177.918 184.976 177.988 184.86 178.068C184.744 178.148 184.655 178.24 184.593 178.344C184.531 178.448 184.5 178.57 184.5 178.71C184.5 178.87 184.54 179.011 184.62 179.133C184.7 179.254 184.817 179.351 184.971 179.423ZM191.8 183.382L191.8 180.175L191.878 180.233C192.263 180.503 192.731 180.652 193.281 180.679L193.468 180.683C194.064 180.683 194.583 180.533 195.027 180.233C195.471 179.933 195.815 179.525 196.059 179.01C196.303 178.494 196.425 177.912 196.425 177.264C196.425 176.608 196.301 176.023 196.053 175.509C195.805 174.996 195.456 174.59 195.006 174.292C194.556 173.994 194.026 173.845 193.414 173.845C192.798 173.845 192.281 173.994 191.863 174.292C191.817 174.325 191.772 174.359 191.728 174.395L191.62 174.488L191.62 174.025H190.343V183.382H191.8ZM192.307 179.121C192.545 179.298 192.858 179.387 193.246 179.387C193.622 179.387 193.932 179.293 194.176 179.106C194.419 178.918 194.6 178.663 194.718 178.341C194.836 178.019 194.895 177.66 194.895 177.264C194.895 176.872 194.835 176.515 194.715 176.193C194.595 175.871 194.409 175.615 194.158 175.426C193.906 175.236 193.586 175.141 193.198 175.141C192.83 175.141 192.53 175.23 192.298 175.408C192.066 175.585 191.895 175.833 191.785 176.151C191.675 176.469 191.62 176.84 191.62 177.264C191.62 177.684 191.675 178.054 191.785 178.374C191.895 178.694 192.069 178.943 192.307 179.121ZM198.89 180.503L201.973 176.274V180.503H203.359V174.025H202.213L199.118 178.146V174.025H197.733V180.503H198.89ZM209.357 180.617V183.202H208.074V180.617C207.442 180.717 206.869 180.649 206.355 180.413C205.841 180.177 205.433 179.793 205.132 179.261C204.83 178.73 204.679 178.064 204.679 177.264C204.679 176.468 204.83 175.802 205.132 175.267C205.433 174.731 205.841 174.346 206.355 174.112C206.869 173.878 207.442 173.811 208.074 173.911V171.967H209.357V173.911C209.989 173.811 210.562 173.878 211.076 174.112C211.59 174.346 211.998 174.731 212.3 175.267C212.602 175.802 212.753 176.468 212.753 177.264C212.753 178.064 212.602 178.73 212.3 179.261C211.998 179.793 211.59 180.177 211.076 180.413C210.562 180.649 209.989 180.717 209.357 180.617ZM210.185 179.291C209.945 179.363 209.669 179.373 209.357 179.321V175.219C209.681 175.163 209.964 175.17 210.206 175.24C210.448 175.31 210.648 175.436 210.806 175.617C210.964 175.799 211.083 176.028 211.163 176.304C211.243 176.58 211.283 176.9 211.283 177.264C211.283 177.628 211.241 177.949 211.157 178.227C211.073 178.505 210.95 178.734 210.788 178.914C210.626 179.094 210.425 179.219 210.185 179.291ZM207.246 179.288C207.486 179.362 207.762 179.373 208.074 179.321V175.219C207.75 175.163 207.467 175.172 207.225 175.246C206.983 175.32 206.783 175.448 206.625 175.629C206.467 175.811 206.348 176.041 206.268 176.319C206.188 176.597 206.148 176.912 206.148 177.264C206.148 177.62 206.189 177.936 206.271 178.212C206.353 178.488 206.476 178.718 206.64 178.902C206.804 179.086 207.006 179.214 207.246 179.288Z" fill="#0039D1"/>
</g>
<path fill-rule="evenodd" clip-rule="evenodd" d="M138.631 270.153L-29.1926 437.703C-55.4568 463.925 -98.0419 463.925 -124.307 437.703V437.702C-150.572 411.48 -150.572 368.965 -124.307 342.742L43.5157 175.193L-38.3631 147.512L-181.488 290.405C-238.02 346.844 -238.02 438.351 -181.488 494.79V494.791C-124.956 551.23 -33.3004 551.23 23.2316 494.791L166.356 351.898L138.631 270.153Z" fill="#0039D1"/>
<mask id="mask0" mask-type="alpha" maskUnits="userSpaceOnUse" x="16" y="0" width="298" height="298">
<path fill-rule="evenodd" clip-rule="evenodd" d="M16.1475 0.588623H313.28V297.721H16.1475V0.588623Z" fill="white"/>
</mask>
<g mask="url(#mask0)">
<path fill-rule="evenodd" clip-rule="evenodd" d="M270.92 43.0544V43.0544C214.44 -13.4254 122.869 -13.4254 66.3897 43.0544L16.1475 93.2966L43.8471 175.101L118.765 100.182C145.005 73.9416 187.551 73.9416 213.792 100.182C240.033 126.423 240.033 168.968 213.792 195.21L138.874 270.127L220.678 297.827L270.92 247.585C327.4 191.105 327.4 99.5342 270.92 43.0544" fill="#00C67A"/>
</g>
<defs>
<filter id="filter0_i" x="188.601" y="137.979" width="22.8807" height="25.2451" filterUnits="userSpaceOnUse" color-interpolation-filters="sRGB">
<feFlood flood-opacity="0" result="BackgroundImageFix"/>
<feBlend mode="normal" in="SourceGraphic" in2="BackgroundImageFix" result="shape"/>
<feColorMatrix in="SourceAlpha" type="matrix" values="0 0 0 0 0 0 0 0 0 0 0 0 0 0 0 0 0 0 127 0" result="hardAlpha"/>
<feOffset dy="3"/>
<feGaussianBlur stdDeviation="1.5"/>
<feComposite in2="hardAlpha" operator="arithmetic" k2="-1" k3="1"/>
<feColorMatrix type="matrix" values="0 0 0 0 0 0 0 0 0 0 0 0 0 0 0 0 0 0 0.2 0"/>
<feBlend mode="normal" in2="shape" result="effect1_innerShadow"/>
</filter>
<filter id="filter1_i" x="107.247" y="118.276" width="28.464" height="45.6809" filterUnits="userSpaceOnUse" color-interpolation-filters="sRGB">
<feFlood flood-opacity="0" result="BackgroundImageFix"/>
<feBlend mode="normal" in="SourceGraphic" in2="BackgroundImageFix" result="shape"/>
<feColorMatrix in="SourceAlpha" type="matrix" values="0 0 0 0 0 0 0 0 0 0 0 0 0 0 0 0 0 0 127 0" result="hardAlpha"/>
<feOffset dy="3"/>
<feGaussianBlur stdDeviation="1.5"/>
<feComposite in2="hardAlpha" operator="arithmetic" k2="-1" k3="1"/>
<feColorMatrix type="matrix" values="0 0 0 0 0 0 0 0 0 0 0 0 0 0 0 0 0 0 0.2 0"/>
<feBlend mode="normal" in2="shape" result="effect1_innerShadow"/>
</filter>
<filter id="filter2_i" x="141.915" y="153.163" width="7.66339" height="18.959" filterUnits="userSpaceOnUse" color-interpolation-filters="sRGB">
<feFlood flood-opacity="0" result="BackgroundImageFix"/>
<feBlend mode="normal" in="SourceGraphic" in2="BackgroundImageFix" result="shape"/>
<feColorMatrix in="SourceAlpha" type="matrix" values="0 0 0 0 0 0 0 0 0 0 0 0 0 0 0 0 0 0 127 0" result="hardAlpha"/>
<feOffset dy="3"/>
<feGaussianBlur stdDeviation="1.5"/>
<feComposite in2="hardAlpha" operator="arithmetic" k2="-1" k3="1"/>
<feColorMatrix type="matrix" values="0 0 0 0 0 0 0 0 0 0 0 0 0 0 0 0 0 0 0.2 0"/>
<feBlend mode="normal" in2="shape" result="effect1_innerShadow"/>
</filter>
<filter id="filter3_i" x="154.688" y="119.019" width="28.829" height="44.9387" filterUnits="userSpaceOnUse" color-interpolation-filters="sRGB">
<feFlood flood-opacity="0" result="BackgroundImageFix"/>
<feBlend mode="normal" in="SourceGraphic" in2="BackgroundImageFix" result="shape"/>
<feColorMatrix in="SourceAlpha" type="matrix" values="0 0 0 0 0 0 0 0 0 0 0 0 0 0 0 0 0 0 127 0" result="hardAlpha"/>
<feOffset dy="3"/>
<feGaussianBlur stdDeviation="1.5"/>
<feComposite in2="hardAlpha" operator="arithmetic" k2="-1" k3="1"/>
<feColorMatrix type="matrix" values="0 0 0 0 0 0 0 0 0 0 0 0 0 0 0 0 0 0 0.2 0"/>
<feBlend mode="normal" in2="shape" result="effect1_innerShadow"/>
</filter>
<filter id="filter4_i" x="107.247" y="171.476" width="105.505" height="14.9068" filterUnits="userSpaceOnUse" color-interpolation-filters="sRGB">
<feFlood flood-opacity="0" result="BackgroundImageFix"/>
<feBlend mode="normal" in="SourceGraphic" in2="BackgroundImageFix" result="shape"/>
<feColorMatrix in="SourceAlpha" type="matrix" values="0 0 0 0 0 0 0 0 0 0 0 0 0 0 0 0 0 0 127 0" result="hardAlpha"/>
<feOffset dy="3"/>
<feGaussianBlur stdDeviation="1.5"/>
<feComposite in2="hardAlpha" operator="arithmetic" k2="-1" k3="1"/>
<feColorMatrix type="matrix" values="0 0 0 0 0 0 0 0 0 0 0 0 0 0 0 0 0 0 0.2 0"/>
<feBlend mode="normal" in2="shape" result="effect1_innerShadow"/>
</filter>
</defs>
</svg>
