<svg width="105" height="21" viewBox="0 0 105 21" fill="none" xmlns="http://www.w3.org/2000/svg">
<mask id="mask0" mask-type="alpha" maskUnits="userSpaceOnUse" x="0" y="-1" width="105" height="22">
<path fill-rule="evenodd" clip-rule="evenodd" d="M82.436 -0.000396729C83.654 1.8286 84.32 5.2586 95.586 5.0876C107.341 4.9066 100.17 8.1176 98.084 11.7466C101.847 8.3886 104.989 6.1756 105 4.8946V4.8816C104.991 3.9316 103.236 3.5006 98.694 3.5006C88.035 3.5006 85.331 3.0456 82.436 -0.000396729ZM74.596 4.0106V5.3356C73.96 5.3356 73.502 5.4166 73.224 5.5726C72.814 5.7836 72.609 6.1796 72.609 6.7606C72.609 7.3406 72.807 7.7446 73.206 7.9666C73.499 8.1256 73.96 8.2066 74.596 8.2066V14.4546C74.596 14.9076 74.745 15.2876 75.041 15.6066C75.336 15.9206 75.707 16.0796 76.144 16.0796C76.591 16.0796 76.961 15.9206 77.254 15.6066C77.541 15.2876 77.69 14.9076 77.69 14.4546V8.2066C78.529 8.2066 79.081 8.1586 79.344 8.0666C79.88 7.8806 80.15 7.4486 80.15 6.7606C80.15 6.0906 79.88 5.6606 79.344 5.4766C79.081 5.3836 78.529 5.3356 77.69 5.3356V4.0106C77.69 2.4526 77.172 1.6766 76.144 1.6766C75.111 1.6766 74.596 2.4526 74.596 4.0106ZM68.359 6.2056C68.07 5.5496 67.556 5.2216 66.817 5.2216C66.369 5.2216 65.998 5.3766 65.705 5.6876C65.417 5.9946 65.273 6.3756 65.273 6.8236V14.4546C65.273 14.9076 65.417 15.2876 65.71 15.6066C65.998 15.9206 66.369 16.0796 66.82 16.0796C67.267 16.0796 67.638 15.9206 67.93 15.6066C68.218 15.2876 68.366 14.9076 68.366 14.4546V10.6556C68.366 9.6566 68.688 8.9686 69.336 8.5986C69.927 8.3876 70.52 8.1846 71.115 7.9846C71.76 7.7366 72.081 7.2816 72.081 6.6196C72.081 6.1866 71.925 5.8096 71.618 5.4906C71.308 5.1766 70.934 5.0176 70.498 5.0176C69.732 5.0176 69.022 5.4136 68.359 6.2056ZM55.028 6.7976C54.2 7.8966 53.782 9.1766 53.782 10.6416C53.782 12.1066 54.2 13.3866 55.028 14.4816C55.939 15.6806 57.116 16.2836 58.55 16.2836C59.672 16.2836 60.556 15.8876 61.204 15.0956C61.492 15.7506 61.972 16.0796 62.645 16.0796C63.094 16.0796 63.464 15.9206 63.756 15.6066C64.045 15.2876 64.189 14.9076 64.189 14.4546V6.8236C64.189 6.3856 64.04 6.0126 63.746 5.6946C63.449 5.3796 63.083 5.2216 62.645 5.2216C61.972 5.2216 61.492 5.5496 61.204 6.2056C60.556 5.4136 59.672 5.0176 58.55 5.0176C57.127 5.0176 55.953 5.6096 55.028 6.7976ZM57.37 12.4536C57.041 11.9556 56.875 11.3476 56.875 10.6416C56.875 9.9316 57.045 9.3316 57.389 8.8466C57.77 8.2946 58.303 8.0216 58.988 8.0216C59.657 8.0216 60.189 8.2946 60.585 8.8466C60.926 9.3316 61.096 9.9316 61.096 10.6416C61.096 11.3476 60.926 11.9556 60.585 12.4536C60.205 13.0046 59.672 13.2796 58.988 13.2796C58.303 13.2796 57.763 13.0046 57.37 12.4536ZM45.512 6.6526C44.554 7.7406 44.077 9.0686 44.077 10.6416C44.077 12.2096 44.546 13.5316 45.482 14.6006C46.459 15.7206 47.724 16.2836 49.282 16.2836C50.075 16.2866 50.859 16.1166 51.58 15.7886C52.491 15.3806 52.945 14.8266 52.945 14.1266C52.945 13.7826 52.819 13.4676 52.572 13.1756C52.32 12.8866 52.025 12.7396 51.68 12.7396C51.444 12.7396 51.062 12.8316 50.533 13.0086C50.004 13.1896 49.59 13.2796 49.286 13.2796C48.602 13.2796 48.065 12.9976 47.685 12.4316C47.34 11.9476 47.17 11.3476 47.17 10.6416C47.17 9.8896 47.362 9.2836 47.743 8.8096C48.154 8.2846 48.728 8.0216 49.464 8.0216C49.741 8.0216 50.119 8.1036 50.592 8.2736C51.066 8.4396 51.428 8.5246 51.68 8.5246C52.05 8.5246 52.353 8.3766 52.59 8.0876C52.827 7.7956 52.945 7.4586 52.945 7.0786C52.945 6.3236 52.497 5.7686 51.599 5.4136C50.954 5.1506 50.181 5.0176 49.282 5.0176C47.724 5.0176 46.471 5.5616 45.512 6.6526ZM36.754 6.2056C36.466 5.5496 35.952 5.2216 35.212 5.2216C34.764 5.2216 34.394 5.3766 34.105 5.6876C33.813 5.9946 33.669 6.3756 33.669 6.8236V14.4546C33.669 14.9076 33.813 15.2876 34.105 15.6066C34.394 15.9206 34.761 16.0796 35.208 16.0796C36.274 16.0796 36.806 15.2216 36.806 13.5086C36.806 13.1796 36.788 12.6606 36.751 11.9476C36.717 11.2366 36.699 10.7156 36.699 10.3856C36.699 8.5686 37.283 7.6586 38.457 7.6586C39.63 7.6586 40.218 8.5686 40.218 10.3856C40.218 10.7156 40.196 11.2366 40.147 11.9476C40.103 12.6606 40.081 13.1796 40.081 13.5086C40.081 15.2216 40.621 16.0796 41.702 16.0796C42.149 16.0796 42.515 15.9206 42.808 15.6066C43.096 15.2876 43.24 14.9076 43.24 14.4546V8.6766C43.24 7.5186 42.893 6.6086 42.194 5.9456C41.509 5.3276 40.577 5.0176 39.404 5.0176C38.138 5.0176 37.254 5.4136 36.754 6.2056ZM23.994 6.6716C22.958 7.7736 22.441 9.0946 22.441 10.6416C22.441 12.2656 22.939 13.6086 23.935 14.6776C24.93 15.7466 26.232 16.2836 27.845 16.2836C28.848 16.2836 29.829 16.1026 30.794 15.7466C32.06 15.2736 32.693 14.6136 32.693 13.7666C32.693 13.4016 32.566 13.0826 32.319 12.8206C32.067 12.5536 31.764 12.4246 31.405 12.4246C31.208 12.4246 30.754 12.5866 30.046 12.9206C29.34 13.2486 28.737 13.4156 28.234 13.4156C27.586 13.4156 27.039 13.2896 26.591 13.0416C26.036 12.7246 25.759 12.2696 25.759 11.6766H31.342C31.856 11.6766 32.237 11.5776 32.481 11.3816C32.725 11.1816 32.847 10.8256 32.847 10.3086C32.847 8.8696 32.367 7.6256 31.413 6.5826C30.457 5.5396 29.266 5.0176 27.842 5.0176C26.311 5.0176 25.026 5.5676 23.994 6.6716ZM26.392 8.2396C26.813 7.8516 27.268 7.6586 27.757 7.6586C28.23 7.6586 28.678 7.8516 29.1 8.2396C29.521 8.6276 29.74 9.0576 29.755 9.5306H25.759C25.759 9.0576 25.969 8.6276 26.392 8.2396ZM14.171 6.2056C13.867 5.5496 13.386 5.2216 12.728 5.2216C12.291 5.2216 11.924 5.3796 11.629 5.6946C11.333 6.0126 11.185 6.3896 11.185 6.8266V18.7886C11.185 19.2386 11.329 19.6206 11.618 19.9396C11.91 20.2546 12.276 20.4126 12.724 20.4126C13.82 20.4126 14.367 19.4946 14.367 17.6556C14.367 17.3226 14.351 16.9006 14.323 16.3836C14.293 15.8696 14.278 15.5466 14.278 15.4136C14.973 15.9906 15.825 16.2836 16.827 16.2836C18.247 16.2836 19.417 15.6806 20.324 14.4816C21.171 13.3866 21.593 12.1066 21.593 10.6416C21.593 9.1766 21.167 7.8966 20.324 6.7976C19.413 5.6096 18.247 5.0176 16.824 5.0176C15.702 5.0176 14.818 5.4136 14.171 6.2056ZM14.788 12.4536C14.448 11.9556 14.278 11.3476 14.278 10.6416C14.278 9.9316 14.448 9.3316 14.788 8.8466C15.169 8.2946 15.702 8.0216 16.387 8.0216C17.071 8.0216 17.604 8.2946 17.986 8.8466C18.326 9.3316 18.499 9.9316 18.499 10.6416C18.499 11.3476 18.326 11.9556 17.986 12.4536C17.604 13.0046 17.071 13.2796 16.387 13.2796C15.702 13.2796 15.169 13.0046 14.788 12.4536ZM1.406 6.6826C0.47 7.7476 0 9.0686 0 10.6416C0 12.2096 0.47 13.5316 1.406 14.6006C2.383 15.7206 3.649 16.2836 5.206 16.2836C6.76 16.2836 8.029 15.7206 9.005 14.6006C9.941 13.5316 10.408 12.2096 10.408 10.6416C10.408 9.0686 9.941 7.7476 9.005 6.6826C8.029 5.5726 6.76 5.0176 5.206 5.0176C3.663 5.0176 2.394 5.5726 1.406 6.6826ZM3.607 12.4536C3.263 11.9556 3.093 11.3476 3.093 10.6416C3.093 9.9316 3.263 9.3316 3.607 8.8466C3.989 8.2946 4.522 8.0216 5.206 8.0216C5.891 8.0216 6.423 8.2946 6.804 8.8466C7.145 9.3316 7.314 9.9316 7.314 10.6416C7.314 11.3476 7.145 11.9556 6.804 12.4536C6.423 13.0046 5.891 13.2796 5.206 13.2796C4.522 13.2796 3.989 13.0046 3.607 12.4536ZM95.751 13.0196C94.861 13.0196 94.139 13.7426 94.14 14.6336C94.14 15.5216 94.862 16.2416 95.753 16.2416C96.641 16.2416 97.361 15.5216 97.362 14.6336C97.362 13.7406 96.641 13.0196 95.753 13.0196H95.751ZM88.41 13.0196C87.52 13.0196 86.799 13.7426 86.8 14.6336C86.8 15.5216 87.521 16.2416 88.412 16.2416C89.301 16.2416 90.022 15.5216 90.022 14.6336C90.022 13.7406 89.301 13.0196 88.412 13.0196H88.41Z" fill="white"/>
</mask>
<g mask="url(#mask0)">
<path fill-rule="evenodd" clip-rule="evenodd" d="M82.436 -0.000396729C83.654 1.8286 84.32 5.2586 95.586 5.0876C107.341 4.9066 100.17 8.1176 98.084 11.7466C101.847 8.3886 104.989 6.1756 105 4.8946V4.8816C104.991 3.9316 103.236 3.5006 98.694 3.5006C88.035 3.5006 85.331 3.0456 82.436 -0.000396729ZM74.596 4.0106V5.3356C73.96 5.3356 73.502 5.4166 73.224 5.5726C72.814 5.7836 72.609 6.1796 72.609 6.7606C72.609 7.3406 72.807 7.7446 73.206 7.9666C73.499 8.1256 73.96 8.2066 74.596 8.2066V14.4546C74.596 14.9076 74.745 15.2876 75.041 15.6066C75.336 15.9206 75.707 16.0796 76.144 16.0796C76.591 16.0796 76.961 15.9206 77.254 15.6066C77.541 15.2876 77.69 14.9076 77.69 14.4546V8.2066C78.529 8.2066 79.081 8.1586 79.344 8.0666C79.88 7.8806 80.15 7.4486 80.15 6.7606C80.15 6.0906 79.88 5.6606 79.344 5.4766C79.081 5.3836 78.529 5.3356 77.69 5.3356V4.0106C77.69 2.4526 77.172 1.6766 76.144 1.6766C75.111 1.6766 74.596 2.4526 74.596 4.0106ZM68.359 6.2056C68.07 5.5496 67.556 5.2216 66.817 5.2216C66.369 5.2216 65.998 5.3766 65.705 5.6876C65.417 5.9946 65.273 6.3756 65.273 6.8236V14.4546C65.273 14.9076 65.417 15.2876 65.71 15.6066C65.998 15.9206 66.369 16.0796 66.82 16.0796C67.267 16.0796 67.638 15.9206 67.93 15.6066C68.218 15.2876 68.366 14.9076 68.366 14.4546V10.6556C68.366 9.6566 68.688 8.9686 69.336 8.5986C69.927 8.3876 70.52 8.1846 71.115 7.9846C71.76 7.7366 72.081 7.2816 72.081 6.6196C72.081 6.1866 71.925 5.8096 71.618 5.4906C71.308 5.1766 70.934 5.0176 70.498 5.0176C69.732 5.0176 69.022 5.4136 68.359 6.2056ZM55.028 6.7976C54.2 7.8966 53.782 9.1766 53.782 10.6416C53.782 12.1066 54.2 13.3866 55.028 14.4816C55.939 15.6806 57.116 16.2836 58.55 16.2836C59.672 16.2836 60.556 15.8876 61.204 15.0956C61.492 15.7506 61.972 16.0796 62.645 16.0796C63.094 16.0796 63.464 15.9206 63.756 15.6066C64.045 15.2876 64.189 14.9076 64.189 14.4546V6.8236C64.189 6.3856 64.04 6.0126 63.746 5.6946C63.449 5.3796 63.083 5.2216 62.645 5.2216C61.972 5.2216 61.492 5.5496 61.204 6.2056C60.556 5.4136 59.672 5.0176 58.55 5.0176C57.127 5.0176 55.953 5.6096 55.028 6.7976ZM57.37 12.4536C57.041 11.9556 56.875 11.3476 56.875 10.6416C56.875 9.9316 57.045 9.3316 57.389 8.8466C57.77 8.2946 58.303 8.0216 58.988 8.0216C59.657 8.0216 60.189 8.2946 60.585 8.8466C60.926 9.3316 61.096 9.9316 61.096 10.6416C61.096 11.3476 60.926 11.9556 60.585 12.4536C60.205 13.0046 59.672 13.2796 58.988 13.2796C58.303 13.2796 57.763 13.0046 57.37 12.4536ZM45.512 6.6526C44.554 7.7406 44.077 9.0686 44.077 10.6416C44.077 12.2096 44.546 13.5316 45.482 14.6006C46.459 15.7206 47.724 16.2836 49.282 16.2836C50.075 16.2866 50.859 16.1166 51.58 15.7886C52.491 15.3806 52.945 14.8266 52.945 14.1266C52.945 13.7826 52.819 13.4676 52.572 13.1756C52.32 12.8866 52.025 12.7396 51.68 12.7396C51.444 12.7396 51.062 12.8316 50.533 13.0086C50.004 13.1896 49.59 13.2796 49.286 13.2796C48.602 13.2796 48.065 12.9976 47.685 12.4316C47.34 11.9476 47.17 11.3476 47.17 10.6416C47.17 9.8896 47.362 9.2836 47.743 8.8096C48.154 8.2846 48.728 8.0216 49.464 8.0216C49.741 8.0216 50.119 8.1036 50.592 8.2736C51.066 8.4396 51.428 8.5246 51.68 8.5246C52.05 8.5246 52.353 8.3766 52.59 8.0876C52.827 7.7956 52.945 7.4586 52.945 7.0786C52.945 6.3236 52.497 5.7686 51.599 5.4136C50.954 5.1506 50.181 5.0176 49.282 5.0176C47.724 5.0176 46.471 5.5616 45.512 6.6526ZM36.754 6.2056C36.466 5.5496 35.952 5.2216 35.212 5.2216C34.764 5.2216 34.394 5.3766 34.105 5.6876C33.813 5.9946 33.669 6.3756 33.669 6.8236V14.4546C33.669 14.9076 33.813 15.2876 34.105 15.6066C34.394 15.9206 34.761 16.0796 35.208 16.0796C36.274 16.0796 36.806 15.2216 36.806 13.5086C36.806 13.1796 36.788 12.6606 36.751 11.9476C36.717 11.2366 36.699 10.7156 36.699 10.3856C36.699 8.5686 37.283 7.6586 38.457 7.6586C39.63 7.6586 40.218 8.5686 40.218 10.3856C40.218 10.7156 40.196 11.2366 40.147 11.9476C40.103 12.6606 40.081 13.1796 40.081 13.5086C40.081 15.2216 40.621 16.0796 41.702 16.0796C42.149 16.0796 42.515 15.9206 42.808 15.6066C43.096 15.2876 43.24 14.9076 43.24 14.4546V8.6766C43.24 7.5186 42.893 6.6086 42.194 5.9456C41.509 5.3276 40.577 5.0176 39.404 5.0176C38.138 5.0176 37.254 5.4136 36.754 6.2056ZM23.994 6.6716C22.958 7.7736 22.441 9.0946 22.441 10.6416C22.441 12.2656 22.939 13.6086 23.935 14.6776C24.93 15.7466 26.232 16.2836 27.845 16.2836C28.848 16.2836 29.829 16.1026 30.794 15.7466C32.06 15.2736 32.693 14.6136 32.693 13.7666C32.693 13.4016 32.566 13.0826 32.319 12.8206C32.067 12.5536 31.764 12.4246 31.405 12.4246C31.208 12.4246 30.754 12.5866 30.046 12.9206C29.34 13.2486 28.737 13.4156 28.234 13.4156C27.586 13.4156 27.039 13.2896 26.591 13.0416C26.036 12.7246 25.759 12.2696 25.759 11.6766H31.342C31.856 11.6766 32.237 11.5776 32.481 11.3816C32.725 11.1816 32.847 10.8256 32.847 10.3086C32.847 8.8696 32.367 7.6256 31.413 6.5826C30.457 5.5396 29.266 5.0176 27.842 5.0176C26.311 5.0176 25.026 5.5676 23.994 6.6716ZM26.392 8.2396C26.813 7.8516 27.268 7.6586 27.757 7.6586C28.23 7.6586 28.678 7.8516 29.1 8.2396C29.521 8.6276 29.74 9.0576 29.755 9.5306H25.759C25.759 9.0576 25.969 8.6276 26.392 8.2396ZM14.171 6.2056C13.867 5.5496 13.386 5.2216 12.728 5.2216C12.291 5.2216 11.924 5.3796 11.629 5.6946C11.333 6.0126 11.185 6.3896 11.185 6.8266V18.7886C11.185 19.2386 11.329 19.6206 11.618 19.9396C11.91 20.2546 12.276 20.4126 12.724 20.4126C13.82 20.4126 14.367 19.4946 14.367 17.6556C14.367 17.3226 14.351 16.9006 14.323 16.3836C14.293 15.8696 14.278 15.5466 14.278 15.4136C14.973 15.9906 15.825 16.2836 16.827 16.2836C18.247 16.2836 19.417 15.6806 20.324 14.4816C21.171 13.3866 21.593 12.1066 21.593 10.6416C21.593 9.1766 21.167 7.8966 20.324 6.7976C19.413 5.6096 18.247 5.0176 16.824 5.0176C15.702 5.0176 14.818 5.4136 14.171 6.2056ZM14.788 12.4536C14.448 11.9556 14.278 11.3476 14.278 10.6416C14.278 9.9316 14.448 9.3316 14.788 8.8466C15.169 8.2946 15.702 8.0216 16.387 8.0216C17.071 8.0216 17.604 8.2946 17.986 8.8466C18.326 9.3316 18.499 9.9316 18.499 10.6416C18.499 11.3476 18.326 11.9556 17.986 12.4536C17.604 13.0046 17.071 13.2796 16.387 13.2796C15.702 13.2796 15.169 13.0046 14.788 12.4536ZM1.406 6.6826C0.47 7.7476 0 9.0686 0 10.6416C0 12.2096 0.47 13.5316 1.406 14.6006C2.383 15.7206 3.649 16.2836 5.206 16.2836C6.76 16.2836 8.029 15.7206 9.005 14.6006C9.941 13.5316 10.408 12.2096 10.408 10.6416C10.408 9.0686 9.941 7.7476 9.005 6.6826C8.029 5.5726 6.76 5.0176 5.206 5.0176C3.663 5.0176 2.394 5.5726 1.406 6.6826ZM3.607 12.4536C3.263 11.9556 3.093 11.3476 3.093 10.6416C3.093 9.9316 3.263 9.3316 3.607 8.8466C3.989 8.2946 4.522 8.0216 5.206 8.0216C5.891 8.0216 6.423 8.2946 6.804 8.8466C7.145 9.3316 7.314 9.9316 7.314 10.6416C7.314 11.3476 7.145 11.9556 6.804 12.4536C6.423 13.0046 5.891 13.2796 5.206 13.2796C4.522 13.2796 3.989 13.0046 3.607 12.4536ZM95.751 13.0196C94.861 13.0196 94.139 13.7426 94.14 14.6336C94.14 15.5216 94.862 16.2416 95.753 16.2416C96.641 16.2416 97.361 15.5216 97.362 14.6336C97.362 13.7406 96.641 13.0196 95.753 13.0196H95.751ZM88.41 13.0196C87.52 13.0196 86.799 13.7426 86.8 14.6336C86.8 15.5216 87.521 16.2416 88.412 16.2416C89.301 16.2416 90.022 15.5216 90.022 14.6336C90.022 13.7406 89.301 13.0196 88.412 13.0196H88.41Z" fill="url(#paint0_linear)"/>
</g>
<defs>
<linearGradient id="paint0_linear" x1="94.0289" y1="16.1472" x2="94.0289" y2="-5.40964e-05" gradientUnits="userSpaceOnUse">
<stop stop-color="#04B6EF"/>
<stop offset="1" stop-color="#3DCAEF"/>
</linearGradient>
</defs>
</svg>
