<svg width="80" height="81" viewBox="0 0 80 81" fill="none" xmlns="http://www.w3.org/2000/svg">
<path d="M21.306 64.7321H12.5596C10.5128 64.7321 8.85327 63.0735 8.85327 61.0267V5.56035C8.85327 3.51254 10.5128 1.854 12.5596 1.854H43.3382C45.385 1.854 47.0445 3.51254 47.0445 5.56035V46.0091" stroke="#0039D1" stroke-width="1.75"/>
<path d="M24.1643 5.19606H31.7341" stroke="#0039D1" stroke-width="1.75"/>
<path d="M70.419 76.1802H29.9321" stroke="#0039D1" stroke-width="1.75" stroke-linecap="round" stroke-linejoin="round"/>
<path fill-rule="evenodd" clip-rule="evenodd" d="M31.2316 51.8481C31.2316 53.2598 30.0862 54.4052 28.6745 54.4052C27.2618 54.4052 26.1165 53.2598 26.1165 51.8481C26.1165 50.4354 27.2618 49.29 28.6745 49.29C30.0862 49.29 31.2316 50.4354 31.2316 51.8481Z" stroke="#0039D1" stroke-width="1.75" stroke-linecap="round" stroke-linejoin="round"/>
<path d="M34.1233 54.1556C34.456 54.3137 34.8267 54.4054 35.2189 54.4054C36.6316 54.4054 37.7769 53.26 37.7769 51.8483C37.7769 50.4356 36.6316 49.2903 35.2189 49.2903C34.8267 49.2903 34.456 49.381 34.1233 49.54" stroke="#0039D1" stroke-width="1.75" stroke-linecap="round" stroke-linejoin="round"/>
<path d="M26.0134 65.3037H30.6681" stroke="#0039D1" stroke-width="1.75" stroke-linecap="round" stroke-linejoin="round"/>
<path d="M34.8196 65.3037H39.4742" stroke="#0039D1" stroke-width="1.75" stroke-linecap="round" stroke-linejoin="round"/>
<path d="M43.626 65.3037H48.2806" stroke="#0039D1" stroke-width="1.75" stroke-linecap="round" stroke-linejoin="round"/>
<path d="M52.4321 65.3037H57.0868" stroke="#0039D1" stroke-width="1.75" stroke-linecap="round" stroke-linejoin="round"/>
<path fill-rule="evenodd" clip-rule="evenodd" d="M58.7269 71.2764H24.3727C22.6791 71.2764 21.3064 69.9037 21.3064 68.209V49.0754C21.3064 47.3817 22.6791 46.009 24.3727 46.009H58.7269C60.4196 46.009 61.7932 47.3817 61.7932 49.0754V68.209C61.7932 69.9037 60.4196 71.2764 58.7269 71.2764Z" stroke="#0039D1" stroke-width="1.75" stroke-linecap="round" stroke-linejoin="round"/>
<path d="M61.7938 54.6348H67.7002C69.2016 54.6348 70.4192 55.8523 70.4192 57.3538V77.1831C70.4192 78.6845 69.2016 79.9021 67.7002 79.9021H32.6514C31.1499 79.9021 29.9324 78.6845 29.9324 77.1831V71.2767" stroke="#0039D1" stroke-width="1.75" stroke-linecap="round" stroke-linejoin="round"/>
<path fill-rule="evenodd" clip-rule="evenodd" d="M54.8626 54.4052H52.4138C51.1856 54.4052 50.1904 53.4091 50.1904 52.1817V51.5135C50.1904 50.2852 51.1856 49.29 52.4138 49.29H54.8626C56.0909 49.29 57.086 50.2852 57.086 51.5135V52.1817C57.086 53.4091 56.0909 54.4052 54.8626 54.4052Z" stroke="#0039D1" stroke-width="1.75" stroke-linecap="round" stroke-linejoin="round"/>
<path fill-rule="evenodd" clip-rule="evenodd" d="M21.7784 28.1677C21.8389 28.2681 21.8682 28.4047 21.8682 28.5755C21.8682 28.7199 21.8467 28.8486 21.8048 28.956C21.7648 29.0584 21.7033 29.1423 21.6165 29.2125C21.5267 29.2857 21.4077 29.3413 21.2623 29.3794C21.1091 29.4203 20.9199 29.4408 20.6965 29.4408H19.3989V27.7813H20.6691C20.8399 27.7813 21.0028 27.7911 21.1569 27.8135C21.3023 27.833 21.4291 27.873 21.5365 27.9335C21.6379 27.9891 21.7179 28.0662 21.7784 28.1677ZM23.0155 27.2028C22.8848 27.036 22.7296 26.8964 22.5511 26.7872C22.3765 26.6818 22.1833 26.594 21.9745 26.5277C21.7667 26.4623 21.5462 26.4155 21.315 26.3891C21.0867 26.3638 20.8545 26.3511 20.6155 26.3511H17.8691V33.435H19.3989V30.8672H20.673C21.5696 30.8672 22.2574 30.672 22.7189 30.2906C23.1872 29.9023 23.4243 29.3199 23.4243 28.5569C23.4243 28.2691 23.3882 28.0106 23.3169 27.7881C23.2448 27.5647 23.1423 27.3677 23.0155 27.2028Z" fill="#0039D1"/>
<path fill-rule="evenodd" clip-rule="evenodd" d="M27.2968 30.1428L27.9007 28.4735L28.5388 30.1428H27.2968ZM27.2061 26.3506L24.4851 33.4355H26.1105L26.8217 31.4833H29.0324L29.7788 33.4355H31.4783L28.5954 26.3506H27.2061Z" fill="#0039D1"/>
<path fill-rule="evenodd" clip-rule="evenodd" d="M36.9567 26.3508L35.2318 29.0103L33.4972 26.3508H31.6426L34.465 30.4767V33.4357H35.9938V30.4767L38.8114 26.3508H36.9567Z" fill="#0039D1"/>
<path d="M20.306 54.2576H11.6855" stroke="#0039D1" stroke-width="1.75"/>
<path d="M42.2114 8.46681H11.6855" stroke="#0039D1" stroke-width="1.75"/>
</svg>
