<svg width="40" height="40" viewBox="0 0 40 40" fill="none" xmlns="http://www.w3.org/2000/svg">
<mask id="mask0" mask-type="alpha" maskUnits="userSpaceOnUse" x="0" y="0" width="40" height="40">
<path fill-rule="evenodd" clip-rule="evenodd" d="M0 0H39.9995V40H0V0Z" fill="white"/>
</mask>
<g mask="url(#mask0)">
<path fill-rule="evenodd" clip-rule="evenodd" d="M36.28 0H3.719C1.665 0 0 1.665 0 3.72V36.28C0 38.335 1.665 40 3.719 40H36.28C38.334 40 40 38.335 40 36.28V3.72C40 1.665 38.334 0 36.28 0ZM36.28 1.167C37.688 1.167 38.833 2.312 38.833 3.72V36.28C38.833 37.688 37.688 38.833 36.28 38.833H3.719C2.311 38.833 1.166 37.688 1.166 36.28V3.72C1.166 2.312 2.311 1.167 3.719 1.167H36.28Z" fill="#00C67A"/>
</g>
<path fill-rule="evenodd" clip-rule="evenodd" d="M19.9993 9.19434C17.0643 9.19434 16.6963 9.20734 15.5443 9.25934C14.3943 9.31234 13.6083 9.49534 12.9213 9.76134C12.2103 10.0383 11.6083 10.4073 11.0073 11.0073C10.4073 11.6093 10.0373 12.2123 9.76134 12.9223C9.49434 13.6093 9.31134 14.3943 9.25934 15.5453C9.20634 16.6973 9.19434 17.0653 9.19434 20.0003C9.19434 22.9343 9.20634 23.3023 9.25934 24.4553C9.31134 25.6053 9.49434 26.3903 9.76134 27.0783C10.0373 27.7883 10.4073 28.3903 11.0073 28.9913C11.6083 29.5923 12.2103 29.9623 12.9213 30.2383C13.6083 30.5053 14.3943 30.6873 15.5443 30.7403C16.6963 30.7933 17.0643 30.8043 19.9993 30.8043C22.9343 30.8043 23.3013 30.7933 24.4543 30.7403C25.6043 30.6873 26.3893 30.5053 27.0773 30.2383C27.7873 29.9623 28.3903 29.5923 28.9913 28.9913C29.5913 28.3903 29.9613 27.7883 30.2373 27.0783C30.5043 26.3903 30.6873 25.6053 30.7393 24.4553C30.7913 23.3023 30.8043 22.9343 30.8043 20.0003C30.8043 17.0653 30.7913 16.6973 30.7393 15.5453C30.6873 14.3943 30.5043 13.6093 30.2373 12.9223C29.9613 12.2123 29.5913 11.6093 28.9913 11.0073C28.3903 10.4073 27.7873 10.0383 27.0773 9.76134C26.3893 9.49534 25.6043 9.31234 24.4543 9.25934C23.3013 9.20734 22.9343 9.19434 19.9993 9.19434ZM19.9993 11.1413C22.8843 11.1413 23.2263 11.1523 24.3653 11.2053C25.4183 11.2533 25.9913 11.4283 26.3723 11.5773C26.8763 11.7723 27.2363 12.0073 27.6143 12.3843C27.9923 12.7623 28.2263 13.1233 28.4223 13.6273C28.5703 14.0073 28.7463 14.5803 28.7943 15.6333C28.8463 16.7733 28.8573 17.1153 28.8573 20.0003C28.8573 22.8843 28.8463 23.2263 28.7943 24.3663C28.7463 25.4203 28.5703 25.9923 28.4223 26.3723C28.2263 26.8773 27.9923 27.2373 27.6143 27.6153C27.2363 27.9933 26.8763 28.2273 26.3723 28.4233C25.9913 28.5713 25.4183 28.7473 24.3653 28.7953C23.2263 28.8473 22.8843 28.8583 19.9993 28.8583C17.1143 28.8583 16.7723 28.8473 15.6333 28.7953C14.5793 28.7473 14.0073 28.5713 13.6263 28.4233C13.1223 28.2273 12.7623 27.9933 12.3843 27.6153C12.0063 27.2373 11.7713 26.8773 11.5763 26.3723C11.4283 25.9923 11.2513 25.4203 11.2043 24.3663C11.1513 23.2263 11.1413 22.8843 11.1413 20.0003C11.1413 17.1153 11.1513 16.7733 11.2043 15.6333C11.2513 14.5803 11.4283 14.0073 11.5763 13.6273C11.7713 13.1233 12.0063 12.7623 12.3843 12.3843C12.7623 12.0073 13.1223 11.7723 13.6263 11.5773C14.0073 11.4283 14.5793 11.2533 15.6333 11.2053C16.7723 11.1523 17.1143 11.1413 19.9993 11.1413Z" fill="#00C67A"/>
<path fill-rule="evenodd" clip-rule="evenodd" d="M20.0002 23.6017C18.0112 23.6017 16.3982 21.9897 16.3982 19.9997C16.3982 18.0107 18.0112 16.3987 20.0002 16.3987C21.9892 16.3987 23.6022 18.0107 23.6022 19.9997C23.6022 21.9897 21.9892 23.6017 20.0002 23.6017ZM20.0002 14.4517C16.9362 14.4517 14.4512 16.9357 14.4512 19.9997C14.4512 23.0647 16.9362 25.5487 20.0002 25.5487C23.0642 25.5487 25.5482 23.0647 25.5482 19.9997C25.5482 16.9357 23.0642 14.4517 20.0002 14.4517Z" fill="#00C67A"/>
<path fill-rule="evenodd" clip-rule="evenodd" d="M27.0637 14.2323C27.0637 14.9483 26.4827 15.5283 25.7667 15.5283C25.0507 15.5283 24.4707 14.9483 24.4707 14.2323C24.4707 13.5153 25.0507 12.9353 25.7667 12.9353C26.4827 12.9353 27.0637 13.5153 27.0637 14.2323Z" fill="#0039D1"/>
</svg>
