<svg width="80" height="80" viewBox="0 0 80 80" fill="none" xmlns="http://www.w3.org/2000/svg">
                                                        <mask id="mask0" mask-type="alpha" maskUnits="userSpaceOnUse" x="0" y="0" width="80" height="80">
                                                            <path fill-rule="evenodd" clip-rule="evenodd" d="M0 0H79.9993V79.9999H0V0Z" fill="white"></path>
                                                        </mask>
                                                        <g mask="url(#mask0)">
                                                            <path fill-rule="evenodd" clip-rule="evenodd" d="M36.411 52.3682H43.567C43.567 52.3682 43.398 54.1962 43.759 55.9912C44.036 57.3682 45.047 58.5902 46.544 59.3572C46.963 59.5712 46.767 60.0782 46.265 60.0782H36.411H26.557C26.055 60.0782 25.859 59.5712 26.278 59.3572C27.775 58.5902 28.787 57.3682 29.063 55.9912C29.424 54.1962 29.255 52.3682 29.255 52.3682H36.411Z" stroke="#0039D1" stroke-width="1.75"></path>
                                                            <path fill-rule="evenodd" clip-rule="evenodd" d="M36.8901 49.4238C36.8901 49.6888 36.6761 49.9028 36.4111 49.9028C36.1461 49.9028 35.9321 49.6888 35.9321 49.4238C35.9321 49.1588 36.1461 48.9448 36.4111 48.9448C36.6761 48.9448 36.8901 49.1588 36.8901 49.4238Z" stroke="#0039D1" stroke-width="1.75"></path>
                                                            <path d="M52.9325 52.368H29.2555H14.2945C12.9585 52.368 11.8745 51.285 11.8745 49.948V46.478H21.3665" stroke="#0039D1" stroke-width="1.75"></path>
                                                            <path d="M52.8985 46.4785H11.8755V39.9265V21.4995C11.8755 20.0495 13.0495 18.8745 14.4995 18.8745H58.3235C59.7725 18.8745 60.9475 20.0495 60.9475 21.4995V33.6845" stroke="#0039D1" stroke-width="1.75"></path>
                                                            <path d="M67.354 54.8086H54.541" stroke="#0039D1" stroke-width="1.75"></path>
                                                            <path fill-rule="evenodd" clip-rule="evenodd" d="M67.7326 60.0781H54.1616C53.4826 60.0781 52.9316 59.5271 52.9316 58.8481V46.4781V34.9141C52.9316 34.2351 53.4826 33.6841 54.1616 33.6841H60.9466H67.7326C68.4116 33.6841 68.9616 34.2351 68.9616 34.9141V58.8481C68.9616 59.5271 68.4116 60.0781 67.7326 60.0781Z" stroke="#0039D1" stroke-width="1.75"></path>
                                                            <path fill-rule="evenodd" clip-rule="evenodd" d="M61.3748 57.4678C61.3748 57.2318 61.1838 57.0398 60.9468 57.0398C60.7108 57.0398 60.5198 57.2318 60.5198 57.4678C60.5198 57.7028 60.7108 57.8948 60.9468 57.8948C61.1838 57.8948 61.3748 57.7028 61.3748 57.4678Z" stroke="#0039D1" stroke-width="1.75"></path>
                                                            <path d="M59.3589 36.3535H60.9469H62.5359" stroke="#0039D1" stroke-width="1.75"></path>
                                                        </g>
                                                    </svg>