<svg width="62" height="60" viewBox="0 0 62 60" fill="none" xmlns="http://www.w3.org/2000/svg">
                                                                    <path d="M14.1472 13.9045C14.1472 13.9045 25.5082 -2.83452 42.6982 12.0255" stroke="#0039D1" stroke-width="1.75" stroke-linecap="round" stroke-linejoin="round"></path>
                                                                    <path d="M41.0652 14.508L45.2972 13.965L44.7542 9.72897" stroke="#0039D1" stroke-width="1.75" stroke-linecap="round" stroke-linejoin="round"></path>
                                                                    <path d="M50.3445 26.9504V43.0964" stroke="#0039D1" stroke-width="1.75" stroke-linecap="round" stroke-linejoin="round"></path>
                                                                    <path d="M54.1169 43.0959V31.1039" stroke="#0039D1" stroke-width="1.75" stroke-linecap="round" stroke-linejoin="round"></path>
                                                                    <path d="M57.8894 31.1037V43.0957" stroke="#0039D1" stroke-width="1.75" stroke-linecap="round" stroke-linejoin="round"></path>
                                                                    <path d="M57.8894 26.9504V31.1034" stroke="#0039D1" stroke-width="1.75" stroke-linecap="round" stroke-linejoin="round"></path>
                                                                    <path fill-rule="evenodd" clip-rule="evenodd" d="M57.6672 14.0725C57.6672 16.0335 56.0772 17.6235 54.1172 17.6235C52.1562 17.6235 50.5662 16.0335 50.5662 14.0725C50.5662 12.1115 52.1562 10.5225 54.1172 10.5225C56.0772 10.5225 57.6672 12.1115 57.6672 14.0725Z" stroke="#0039D1" stroke-width="1.75" stroke-linecap="round" stroke-linejoin="round"></path>
                                                                    <path d="M47.3586 31.1037V22.1347C47.3586 20.8597 48.3926 19.8257 49.6676 19.8257H58.5656C59.8406 19.8257 60.8746 20.8597 60.8746 22.1347V30.2377" stroke="#0039D1" stroke-width="1.75" stroke-linecap="round" stroke-linejoin="round"></path>
                                                                    <path d="M50.3445 31.1037H57.8895" stroke="#0039D1" stroke-width="1.75" stroke-linecap="round" stroke-linejoin="round"></path>
                                                                    <path d="M41.6652 39.8H46.4362V54.874H20.1272V50.103" stroke="#0039D1" stroke-width="1.75" stroke-linecap="round" stroke-linejoin="round"></path>
                                                                    <path d="M36.9562 35.0295H41.6652V39.8695V50.1025H15.3562V45.3935" stroke="#0039D1" stroke-width="1.75" stroke-linecap="round" stroke-linejoin="round"></path>
                                                                    <path d="M32.1852 30.3195H36.9562V45.3935H10.6472V40.6235" stroke="#0039D1" stroke-width="1.75" stroke-linecap="round" stroke-linejoin="round"></path>
                                                                    <path d="M27.1837 25.5256H32.2467V40.5996H5.93774V35.5376" stroke="#0039D1" stroke-width="1.75" stroke-linecap="round" stroke-linejoin="round"></path>
                                                                    <path d="M0.874512 35.5357H-0.000488281C-0.000488281 36.0189 0.391263 36.4107 0.874512 36.4107L0.874512 35.5357ZM27.1835 35.5357V36.4107C27.6668 36.4107 28.0585 36.0189 28.0585 35.5357H27.1835ZM27.1835 20.4627H28.0585C28.0585 19.9794 27.6668 19.5877 27.1835 19.5877V20.4627ZM0.874512 20.4627V19.5877C0.391263 19.5877 -0.000488281 19.9794 -0.000488281 20.4627H0.874512ZM14.0295 23.8117C16.3423 23.8117 18.2175 25.6869 18.2175 27.9997H19.9675C19.9675 24.7204 17.3088 22.0617 14.0295 22.0617V23.8117ZM18.2175 27.9997C18.2175 30.3124 16.3423 32.1877 14.0295 32.1877V33.9377C17.3088 33.9377 19.9675 31.2789 19.9675 27.9997H18.2175ZM14.0295 32.1877C11.7168 32.1877 9.84151 30.3124 9.84151 27.9997H8.09151C8.09151 31.2789 10.7503 33.9377 14.0295 33.9377V32.1877ZM9.84151 27.9997C9.84151 25.6869 11.7168 23.8117 14.0295 23.8117V22.0617C10.7503 22.0617 8.09151 24.7204 8.09151 27.9997H9.84151ZM0.874512 36.4107H27.1835V34.6607H0.874512V36.4107ZM28.0585 35.5357V20.4627H26.3085V35.5357H28.0585ZM27.1835 19.5877H0.874512V21.3377H27.1835V19.5877ZM-0.000488281 20.4627V35.5357H1.74951V20.4627H-0.000488281Z" fill="#0039D1"></path>
                                                                    <path fill-rule="evenodd" clip-rule="evenodd" d="M22.3831 28.3742C22.3831 28.0442 22.6511 27.7752 22.9821 27.7752C23.3121 27.7752 23.5801 28.0442 23.5801 28.3742C23.5801 28.7052 23.3121 28.9732 22.9821 28.9732C22.6511 28.9732 22.3831 28.7052 22.3831 28.3742Z" stroke="#0039D1" stroke-width="1.75" stroke-linecap="round" stroke-linejoin="round"></path>
                                                                    <path fill-rule="evenodd" clip-rule="evenodd" d="M14.5511 24.8566C14.7431 24.8676 14.9111 24.9086 15.0501 24.9446C15.1911 24.9806 15.3281 25.0186 15.4671 25.0836L15.4591 25.8536C15.2191 25.7636 15.1191 25.7326 14.8751 25.6766C14.6011 25.6136 14.4091 25.5956 14.2231 25.5956C13.8981 25.5956 13.6371 25.6846 13.4401 25.8626C13.2421 26.0406 13.1431 26.2666 13.1431 26.5426C13.1431 26.7136 13.1721 26.8676 13.2291 27.0016C13.2861 27.1336 13.3641 27.2416 13.4631 27.3236C13.5611 27.4056 13.7861 27.5286 14.1361 27.6926L14.6281 27.9216C15.0451 28.1166 15.3361 28.3476 15.5011 28.6146C15.6671 28.8806 15.7491 29.2026 15.7491 29.5776C15.7491 29.9636 15.6281 30.2996 15.3841 30.5856C15.1411 30.8726 14.8951 30.9936 14.5521 31.0956L14.5481 31.7946H13.7521L13.7551 31.1396C13.3761 31.1296 13.0801 31.0086 12.8611 30.8836L12.8601 30.1066C12.9711 30.1876 13.1411 30.2646 13.3691 30.3396C13.5961 30.4156 13.8081 30.4526 14.0021 30.4526C14.2861 30.4526 14.5091 30.3726 14.6721 30.2106C14.8341 30.0496 14.9151 29.8426 14.9151 29.5896C14.9151 29.4336 14.8861 29.2926 14.8281 29.1646C14.7701 29.0366 14.6861 28.9276 14.5781 28.8386C14.4691 28.7506 14.2581 28.6306 13.9441 28.4806L13.5601 28.3016C13.1271 28.0986 12.8101 27.8506 12.6101 27.5576C12.4101 27.2636 12.3101 26.8876 12.3101 26.4296C12.3101 26.0516 12.4441 25.7196 12.7121 25.4346C12.9801 25.1506 13.2671 24.9926 13.7421 24.9126L13.7431 24.2046H14.5481L14.5511 24.8566Z" fill="#0044B7"></path>
                                                                    <path fill-rule="evenodd" clip-rule="evenodd" d="M5.65987 28.3742C5.65987 28.0532 5.39887 27.7922 5.07687 27.7922C4.75587 27.7922 4.49487 28.0532 4.49487 28.3742C4.49487 28.6962 4.75587 28.9572 5.07687 28.9572C5.39887 28.9572 5.65987 28.6962 5.65987 28.3742Z" stroke="#0039D1" stroke-width="1.75" stroke-linecap="round" stroke-linejoin="round"></path>
                                                                </svg>