<svg width="62" height="60" viewBox="0 0 62 60" fill="none" xmlns="http://www.w3.org/2000/svg">
                                                                    <path fill-rule="evenodd" clip-rule="evenodd" d="M49.1151 7.875V7.875C45.2691 7.875 42.1511 10.993 42.1511 14.839V17.44H56.0791V14.839C56.0791 10.993 52.9611 7.875 49.1151 7.875Z" stroke="#0039D1" stroke-width="1.75" stroke-linecap="round" stroke-linejoin="round"></path>
                                                                    <path fill-rule="evenodd" clip-rule="evenodd" d="M53.3504 27.2929C53.3504 24.9539 51.4544 23.0579 49.1154 23.0579C46.7754 23.0579 44.8794 24.9539 44.8794 27.2929C44.8794 28.9549 45.8394 30.3899 47.2324 31.0829V36.1459H50.9974V31.0829C52.3914 30.3899 53.3504 28.9549 53.3504 27.2929Z" stroke="#0039D1" stroke-width="1.75" stroke-linecap="round" stroke-linejoin="round"></path>
                                                                    <mask id="mask0" mask-type="alpha" maskUnits="userSpaceOnUse" x="0" y="6" width="62" height="48">
                                                                        <path fill-rule="evenodd" clip-rule="evenodd" d="M0 53.8226H61.75V6.99957H0V53.8226Z" fill="white"></path>
                                                                    </mask>
                                                                    <g mask="url(#mask0)">
                                                                        <path fill-rule="evenodd" clip-rule="evenodd" d="M37.355 41.7626H60.875V17.4406H37.355V41.7626Z" stroke="#0039D1" stroke-width="1.75" stroke-linecap="round" stroke-linejoin="round"></path>
                                                                        <path fill-rule="evenodd" clip-rule="evenodd" d="M23.9072 30.8867C28.8032 30.8867 32.7722 34.8557 32.7722 39.7507C32.7722 44.6477 28.8032 48.6157 23.9072 48.6157C19.0112 48.6157 15.0422 44.6477 15.0422 39.7507C15.0422 34.8557 19.0112 30.8867 23.9072 30.8867Z" stroke="#0039D1" stroke-width="1.75" stroke-linecap="round" stroke-linejoin="round"></path>
                                                                        <path d="M37.3552 26.5547H0.875244V52.9477H46.9402V45.0957V41.7627" stroke="#0039D1" stroke-width="1.75" stroke-linecap="round" stroke-linejoin="round"></path>
                                                                        <path fill-rule="evenodd" clip-rule="evenodd" d="M24.8202 34.248C25.1562 34.267 25.4512 34.339 25.6942 34.401C25.9422 34.465 26.1812 34.531 26.4242 34.644L26.4112 35.993C25.9892 35.836 25.8162 35.781 25.3872 35.684C24.9072 35.573 24.5732 35.542 24.2472 35.542C23.6772 35.542 23.2202 35.697 22.8742 36.009C22.5292 36.32 22.3562 36.717 22.3562 37.199C22.3562 37.501 22.4062 37.769 22.5062 38.002C22.6062 38.235 22.7412 38.424 22.9152 38.567C23.0872 38.711 23.4802 38.927 24.0932 39.214L24.9552 39.615C25.6852 39.956 26.1952 40.359 26.4842 40.827C26.7742 41.294 26.9182 41.855 26.9182 42.513C26.9182 43.189 26.7062 43.778 26.2802 44.279C25.8542 44.781 25.4232 44.993 24.8232 45.172L24.8152 46.396H23.4212L23.4272 45.249C22.7622 45.232 22.2452 45.02 21.8612 44.802L21.8602 43.44C22.0542 43.581 22.3512 43.718 22.7502 43.849C23.1492 43.98 23.5192 44.046 23.8602 44.046C24.3562 44.046 24.7472 43.905 25.0312 43.622C25.3162 43.34 25.4582 42.977 25.4582 42.535C25.4582 42.263 25.4072 42.015 25.3052 41.791C25.2032 41.566 25.0572 41.377 24.8672 41.221C24.6772 41.065 24.3082 40.855 23.7582 40.594L23.0862 40.279C22.3272 39.924 21.7722 39.489 21.4222 38.977C21.0712 38.463 20.8962 37.805 20.8962 37.002C20.8962 36.34 21.1312 35.76 21.6012 35.261C22.0702 34.762 22.5722 34.486 23.4042 34.345L23.4062 33.105H24.8152L24.8202 34.248Z" fill="#0044B7"></path>
                                                                        <path fill-rule="evenodd" clip-rule="evenodd" d="M9.25338 40.4072C9.25338 39.8442 8.79638 39.3862 8.23338 39.3862C7.67038 39.3862 7.21338 39.8442 7.21338 40.4072C7.21338 40.9702 7.67038 41.4272 8.23338 41.4272C8.79638 41.4272 9.25338 40.9702 9.25338 40.4072Z" stroke="#0039D1" stroke-width="1.75" stroke-linecap="round" stroke-linejoin="round"></path>
                                                                    </g>
                                                                </svg>