<svg width="305" height="667" viewBox="0 0 305 667" fill="none" xmlns="http://www.w3.org/2000/svg">
<path fill-rule="evenodd" clip-rule="evenodd" d="M433.567 299.546L450.451 211.862L291.943 82.1988C220.168 24.196 114.464 35.3058 56.3167 106.964C-1.83108 178.623 9.25647 284.114 81.0322 342.117L240.313 470.834L322.746 436.123L130.691 280.919C92.7153 250.23 86.8487 194.414 117.614 156.5C148.379 118.586 204.309 112.708 242.284 143.397L433.567 299.546Z" stroke="#00C67A" stroke-width="3"/>
<path fill-rule="evenodd" clip-rule="evenodd" d="M433.602 300.636L515.767 265.919L589.08 323.861C660.662 381.971 671.764 487.599 613.828 559.321C555.892 631.043 450.518 642.118 378.936 584.009L306.407 525.132L323.199 437.345L428.414 522.757C466.288 553.502 522.043 547.642 552.696 509.695C583.35 471.748 577.475 415.858 539.602 385.113L433.602 300.636Z" fill="#00C67A"/>
</svg>
