<svg width="100" height="60" viewBox="0 0 62 25" fill="none" xmlns="http://www.w3.org/2000/svg">
<path fill-rule="evenodd" clip-rule="evenodd" d="M61.9992 7.05004L54.3542 24.62H51.9882L54.8262 18.472L49.8002 7.05004H52.2892L55.9232 15.811H55.9712L59.5052 7.05004H61.9992ZM40.9903 15.511C40.9853 16.102 41.2712 16.66 41.7493 17.003C42.2543 17.4 42.8843 17.613 43.5273 17.6C44.4963 17.595 45.4212 17.213 46.1033 16.531C46.8612 15.816 47.2432 14.982 47.2432 14.018C46.5273 13.45 45.5352 13.164 44.2583 13.164C43.3272 13.164 42.5503 13.388 41.9303 13.836C41.3013 14.294 40.9903 14.848 40.9903 15.511ZM43.9522 6.65404C45.6453 6.65404 46.9802 7.10704 47.9583 8.00804C48.9363 8.91504 49.4282 10.154 49.4282 11.729V19.245H47.2383V17.552H47.1382C46.1892 18.945 44.9303 19.641 43.3563 19.641C42.0112 19.641 40.8912 19.245 39.9843 18.448C39.1062 17.709 38.6102 16.613 38.6302 15.463C38.6302 14.199 39.1062 13.197 40.0612 12.453C41.0152 11.71 42.2882 11.333 43.8812 11.333C45.2402 11.333 46.3603 11.581 47.2383 12.077V11.552C47.2432 10.77 46.8953 10.026 46.2943 9.52504C45.6882 8.98204 44.9012 8.68104 44.0863 8.69104C42.8082 8.69104 41.7972 9.22904 41.0483 10.307L39.0302 9.03904C40.1423 7.45004 41.7822 6.65404 43.9522 6.65404ZM29.3203 3.61604V9.84004H33.1593C34.0132 9.86404 34.8333 9.53004 35.4253 8.92004C36.6272 7.75104 36.6552 5.82404 35.4862 4.62204C35.4683 4.60304 35.4482 4.57904 35.4253 4.56004C34.8383 3.93504 34.0132 3.59204 33.1593 3.61604H29.3203ZM29.3203 12.029V19.245H27.0312V1.42204H33.1023C34.5662 1.38904 35.9823 1.94604 37.0323 2.96304C38.0963 3.92104 38.6962 5.29004 38.6733 6.72504C38.7063 8.16604 38.1053 9.54904 37.0323 10.508C35.9693 11.519 34.6572 12.029 33.1023 12.024L29.3203 12.029Z" fill="#5F6368"></path>
<path fill-rule="evenodd" clip-rule="evenodd" d="M20.0683 10.4744C20.0683 9.77838 20.0113 9.08138 19.8923 8.39038H10.2383V12.3344H15.7663C15.5373 13.6074 14.7983 14.7334 13.7203 15.4434V18.0054H17.0213C18.9573 16.2254 20.0683 13.5894 20.0683 10.4744Z" fill="#4285F4"></path>
<path fill-rule="evenodd" clip-rule="evenodd" d="M10.2388 20.4807C13.0008 20.4807 15.3278 19.5747 17.0258 18.0097L13.7248 15.4487C12.8048 16.0737 11.6218 16.4257 10.2388 16.4257C7.5678 16.4257 5.3028 14.6277 4.4918 12.2007H1.0918V14.8377C2.8268 18.2957 6.3658 20.4807 10.2388 20.4807Z" fill="#34A853"></path>
<path fill-rule="evenodd" clip-rule="evenodd" d="M4.49125 12.2008C4.06225 10.9318 4.06225 9.55382 4.49125 8.28082V5.64282H1.09125C-0.36375 8.53782 -0.36375 11.9478 1.09125 14.8378L4.49125 12.2008Z" fill="#FBBC04"></path>
<path fill-rule="evenodd" clip-rule="evenodd" d="M10.2379 4.05489C11.6969 4.03089 13.1089 4.58389 14.1629 5.59089L17.0869 2.66689C15.2319 0.925886 12.7799 -0.0281136 10.2329 0.000886429C6.36494 0.000886429 2.82194 2.18489 1.08594 5.64289L4.48594 8.28089C5.29694 5.85289 7.56694 4.05489 10.2379 4.05489Z" fill="#EA4335"></path>
</svg>