<svg width="80" height="80" viewBox="0 0 80 80" fill="none" xmlns="http://www.w3.org/2000/svg">
                                                            <path d="M20.1367 34.0868V27.5378H35.1807V34.0868" stroke="#0039D1" stroke-width="1.75"></path>
                                                            <path d="M20.1367 38.4423H35.1807" stroke="#0039D1" stroke-width="1.75"></path>
                                                            <path d="M20.1367 42.3807H35.1807" stroke="#0039D1" stroke-width="1.75"></path>
                                                            <path d="M20.1367 46.3182H35.1807" stroke="#0039D1" stroke-width="1.75"></path>
                                                            <path fill-rule="evenodd" clip-rule="evenodd" d="M70.1629 55.5839H9.83789V58.1309C9.83789 59.2989 10.7849 60.2449 11.9529 60.2449H68.0479C69.2159 60.2449 70.1629 59.2989 70.1629 58.1309V55.5839ZM68.4129 57.3339V58.1309C68.4129 58.3319 68.2489 58.4949 68.0479 58.4949H11.9529C11.7509 58.4949 11.5879 58.3319 11.5879 58.1309V57.3339H68.4129Z" fill="#0039D1"></path>
                                                            <path fill-rule="evenodd" clip-rule="evenodd" d="M64.2386 19.7548H15.7606C14.6596 19.7548 13.7676 20.6478 13.7676 21.7478V55.5838H66.2316V21.7478C66.2316 20.6478 65.3396 19.7548 64.2386 19.7548ZM64.2386 21.5048C64.3726 21.5048 64.4816 21.6138 64.4816 21.7478V53.8338H15.5176V21.7478C15.5176 21.6138 15.6266 21.5048 15.7606 21.5048H64.2386Z" fill="#0039D1"></path>
                                                            <path fill-rule="evenodd" clip-rule="evenodd" d="M52.2361 35.6425C52.2361 35.6425 51.4791 36.0375 50.5951 36.1565C49.7111 36.0375 48.9531 35.6425 48.9531 35.6425L47.5731 35.9425C47.2781 36.0065 47.0401 36.2815 46.9641 36.6435L46.6631 38.9445H50.5951H54.5261L54.2251 36.6435C54.1501 36.2815 53.9111 36.0065 53.6161 35.9425L52.2361 35.6425Z" fill="#0039D1"></path>
                                                            <path fill-rule="evenodd" clip-rule="evenodd" d="M50.5955 30.2479C49.6325 30.2479 48.8525 31.0929 48.8525 32.1359C48.8525 33.1789 49.6325 34.0239 50.5955 34.0239C51.5575 34.0239 52.3385 33.1789 52.3385 32.1359C52.3385 31.0929 51.5575 30.2479 50.5955 30.2479Z" fill="#0039D1"></path>
                                                            <mask id="mask0" mask-type="alpha" maskUnits="userSpaceOnUse" x="0" y="0" width="80" height="80">
                                                                <path fill-rule="evenodd" clip-rule="evenodd" d="M0 80H80V0H0V80Z" fill="white"></path>
                                                            </mask>
                                                            <g mask="url(#mask0)">
                                                                <path fill-rule="evenodd" clip-rule="evenodd" d="M44.7236 38.944H56.4646V27.204H44.7236V38.944ZM46.4736 37.194H54.7146V28.954H46.4736V37.194Z" fill="#0039D1"></path>
                                                            </g>
                                                        </svg>