<?xml version="1.0" encoding="utf-8"?>
<!-- Generator: Adobe Illustrator 18.1.1, SVG Export Plug-In . SVG Version: 6.00 Build 0)  -->
<!DOCTYPE svg PUBLIC "-//W3C//DTD SVG 1.1//EN" "http://www.w3.org/Graphics/SVG/1.1/DTD/svg11.dtd">
<svg version="1.1" id="Layer_1" xmlns="http://www.w3.org/2000/svg" xmlns:xlink="http://www.w3.org/1999/xlink" x="0px" y="0px"
	 viewBox="0 0 200 100" enable-background="new 0 0 200 100" xml:space="preserve">
<g id="_x30_8">
	<g>
		<linearGradient id="SVGID_1_" gradientUnits="userSpaceOnUse" x1="52.7275" y1="75.6634" x2="52.7275" y2="17.8532">
			<stop  offset="0" style="stop-color:#0E6AA5"/>
			<stop  offset="1" style="stop-color:#009BDE"/>
		</linearGradient>
		<path fill="url(#SVGID_1_)" d="M79.5,32.3c-15.8,0-18.9,4.8-26.2,10.3c0,0,0.2-2-1.7-2.3c-1.9-0.4-2.3,1.4-2.3,1.4s-0.6-1-0.9-2
			c-1.1-4.4-6.4-9.1-12-14.7c-5.6-5.6-11.3-5.2-11.3-5.2l-0.5,2c-1.3,4,0,5,0,6.2c0,1.2,0.3,2.3,1.3,4.2c1,1.8,1.5,7.9,1.8,10.8
			c0.4,3,2.6,4.9,3,5.3c0.4,0.4-2.8,1.8-2.8,2.2v1.7c0,0.2-1,1.2-1.3,1.5c-0.3,0.3-0.3,1.5,0,6.4c0.4,4.8,8.5,9.8,10.8,10.3
			c2.2,0.5,4.1-3.9,5.5-4.4c1.3-0.5,4.7-4.1,4.7-4.1s1,9.3,1,5.8c0-3.5,2.1-4.4,2.1-4.4l0.3-2.5c0,0,2.3,7.5,5,10.2
			c2.7,2.7,7.8,3.1,8.3,3.1c0.5,0,3.9,0.2,6.9-7.3c3-7.5-1.7-9.3-0.7-9.3c1,0,4.6-2.9,4.1-5.4c-0.5-2.5,1.9-7.6,4.2-9.9
			c2.3-2.3,2.7-8.5,2.7-8.7C81.4,33.4,80.9,32.3,79.5,32.3z"/>
	</g>
	<path fill="#008ACF" d="M86.9,42.5v14.1c0,3.5,1.9,5.6,6.1,5.6c4.3,0,6.1-2.1,6.1-5.6V42.5h-3.7v13.6c0,2.2-0.6,3.2-2.4,3.2
		c-1.7,0-2.5-1-2.5-3.2V42.5H86.9z"/>
	<polygon fill="#008ACF" points="101.5,42.5 101.5,61.8 105,61.8 105,44.3 105,44.3 108.7,61.8 111.3,61.8 115,44.3 115,44.3 
		115,61.8 118.5,61.8 118.5,42.5 112.6,42.5 110,55 107.4,42.5 	"/>
	<rect x="120.8" y="42.5" fill="#008ACF" width="3.7" height="19.4"/>
	<rect x="126.1" y="58.4" fill="#008ACF" width="3.4" height="3.4"/>
	<path fill="#008ACF" d="M142.7,48.8v-1c0-3.6-2-5.7-5.8-5.7c-4,0-6,2.1-6,6.6v7c0,3.4,1.1,6.5,6,6.5c4.6,0,5.9-3,5.9-6.5v-0.8H139
		v1c0,2.5-0.7,3.4-2.2,3.4c-1.6,0-2.2-0.8-2.2-3.4v-7.6c0-2.4,0.7-3.3,2.2-3.3c1.6,0,2.2,0.8,2.2,3.3v0.4H142.7z"/>
	<polygon fill="#008ACF" points="144.9,42.5 144.9,61.8 148.3,61.8 148.3,44.3 148.4,44.3 152,61.8 154.7,61.8 158.3,44.3 
		158.4,44.3 158.4,61.8 161.8,61.8 161.8,42.5 155.9,42.5 153.4,55 150.8,42.5 	"/>
	<path fill="#008ACF" d="M175.5,48.6V48c0-3.9-2.1-5.9-5.7-5.9c-3.3,0-5.7,1.8-5.7,5c0,2.1,1,3.7,2.9,5l3.3,2.1c1.4,0.9,2,1.6,2,2.9
		c0,1.2-0.8,2.2-2.2,2.2c-1.4,0-2.7-0.7-2.7-3.4v-0.7h-3.5v0.7c0,4,2.1,6.4,6.2,6.4c3.9,0,6-2,6-5.5c0-2.9-1.2-4.1-3.3-5.5l-3.8-2.5
		c-0.8-0.5-1.2-1-1.2-2.2c0-1.1,0.9-1.6,2-1.6c1.4,0,2.3,1,2.3,3.3v0.2H175.5z"/>
</g>
</svg>
