<svg width="62" height="61" viewBox="0 0 62 61" fill="none" xmlns="http://www.w3.org/2000/svg">
                                                                    <path fill-rule="evenodd" clip-rule="evenodd" d="M43.7969 43.1289C43.7969 47.8452 47.6202 51.6695 52.3375 51.6695C57.0539 51.6695 60.8772 47.8452 60.8772 43.1289C60.8772 38.4125 57.0539 34.5882 52.3375 34.5882C47.6202 34.5882 43.7969 38.4125 43.7969 43.1289Z" stroke="#0039D1" stroke-width="1.75" stroke-linecap="round"></path>
                                                                    <path d="M48.675 43.5745L51.5934 46.1771L56.3187 40.3984" stroke="#0039D1" stroke-width="1.75" stroke-linecap="round"></path>
                                                                    <path d="M43.7969 43.1289H2.79822C2.28084 43.1289 1.86084 42.7089 1.86084 42.1905V2.79902C1.86084 2.28066 2.28084 1.86066 2.79822 1.86066H51.3992C51.9166 1.86066 52.3376 2.28066 52.3376 2.79902V34.5882" stroke="#0039D1" stroke-width="1.75"></path>
                                                                    <path fill-rule="evenodd" clip-rule="evenodd" d="M19.8999 7.31269C19.8999 6.9822 19.6314 6.71466 19.3009 6.71466C18.9704 6.71466 18.7019 6.9822 18.7019 7.31269C18.7019 7.64319 18.9704 7.91171 19.3009 7.91171C19.6314 7.91171 19.8999 7.64319 19.8999 7.31269Z" stroke="#0039D1" stroke-width="1.75"></path>
                                                                    <path fill-rule="evenodd" clip-rule="evenodd" d="M14.3345 7.36739C14.3345 7.03591 14.067 6.76837 13.7355 6.76837C13.405 6.76837 13.1365 7.03591 13.1365 7.36739C13.1365 7.69788 13.405 7.96542 13.7355 7.96542C14.067 7.96542 14.3345 7.69788 14.3345 7.36739Z" stroke="#0039D1" stroke-width="1.75"></path>
                                                                    <path fill-rule="evenodd" clip-rule="evenodd" d="M8.76907 7.42115C8.76907 7.09066 8.50153 6.82312 8.17005 6.82312C7.83956 6.82312 7.57202 7.09066 7.57202 7.42115C7.57202 7.75164 7.83956 8.02017 8.17005 8.02017C8.50153 8.02017 8.76907 7.75164 8.76907 7.42115Z" stroke="#0039D1" stroke-width="1.75"></path>
                                                                    <path d="M1.8606 12.8733H52.3373" stroke="#0039D1" stroke-width="1.75"></path>
                                                                    <path d="M27.3586 7.36735H47.4665" stroke="#0039D1" stroke-width="1.75" stroke-linecap="round"></path>
                                                                    <path fill-rule="evenodd" clip-rule="evenodd" d="M16.922 29.9116H16.9633L18.2558 23.469H19.7125L17.6676 32.5329H16.3889L14.6508 26.1031H14.6095L12.8656 32.5329H11.5879L9.54297 23.469H11.0056L12.3049 29.8988H12.3462L14.0223 23.469H15.2331L16.922 29.9116Z" fill="#0044B7"></path>
                                                                    <path fill-rule="evenodd" clip-rule="evenodd" d="M29.3934 29.9116H29.4347L30.7272 23.469H32.1839L30.139 32.5329H28.8603L27.1233 26.1031H27.0819L25.338 32.5329H24.0593L22.0144 23.469H23.478L24.7774 29.8988H24.8187L26.4937 23.469H27.7046L29.3934 29.9116Z" fill="#0044B7"></path>
                                                                    <path fill-rule="evenodd" clip-rule="evenodd" d="M41.8649 29.9116H41.9062L43.1986 23.469H44.6553L42.6104 32.5329H41.3317L39.5937 26.1031H39.5534L37.8094 32.5329H36.5308L34.4858 23.469H35.9494L37.2488 29.8988H37.2901L38.9652 23.469H40.176L41.8649 29.9116Z" fill="#0044B7"></path>
                                                                </svg>