<svg width="130" height="23" viewBox="0 0 130 23" fill="none" xmlns="http://www.w3.org/2000/svg">
<mask id="mask0" mask-type="alpha" maskUnits="userSpaceOnUse" x="0" y="0" width="23" height="23">
<path fill-rule="evenodd" clip-rule="evenodd" d="M0.000976562 0H22.511V22.5107H0.000976562V0Z" fill="white"/>
</mask>
<g mask="url(#mask0)">
<path fill-rule="evenodd" clip-rule="evenodd" d="M11.256 -0.000244141C17.472 -0.000244141 22.511 5.03976 22.511 11.2558C22.511 17.4718 17.472 22.5108 11.256 22.5108C5.03998 22.5108 0.000976562 17.4718 0.000976562 11.2558C0.000976562 5.03976 5.03998 -0.000244141 11.256 -0.000244141Z" fill="#EB001B"/>
</g>
<mask id="mask1" mask-type="alpha" maskUnits="userSpaceOnUse" x="13" y="0" width="24" height="23">
<path fill-rule="evenodd" clip-rule="evenodd" d="M13.5957 0H36.1057V22.5107H13.5957V0Z" fill="white"/>
</mask>
<g mask="url(#mask1)">
<path fill-rule="evenodd" clip-rule="evenodd" d="M24.8507 -0.000244141C31.0667 -0.000244141 36.1057 5.03976 36.1057 11.2558C36.1057 17.4718 31.0667 22.5108 24.8507 22.5108C18.6347 22.5108 13.5957 17.4718 13.5957 11.2558C13.5957 5.03976 18.6347 -0.000244141 24.8507 -0.000244141Z" fill="#F79E1B"/>
</g>
<path fill-rule="evenodd" clip-rule="evenodd" d="M18.0507 2.26685C20.7607 4.32085 22.5057 7.57485 22.5057 11.2328C22.5057 14.8918 20.7607 18.1518 18.0507 20.2048C15.3407 18.1518 13.5957 14.8968 13.5957 11.2328C13.5957 7.56885 15.3457 4.32085 18.0507 2.26685Z" fill="#FF5F00"/>
<path fill-rule="evenodd" clip-rule="evenodd" d="M36.1966 18.7297V19.3637H36.0956V18.8407L35.9106 19.3017H35.7986L35.6136 18.8467V19.3637H35.5116V18.7297H35.6696L35.8546 19.1837L36.0396 18.7297H36.1966ZM35.4056 18.7297V18.8247H35.1976V19.3637H35.0966V18.8247H34.8896V18.7297H35.4056Z" fill="#F79E1B"/>
<mask id="mask2" mask-type="alpha" maskUnits="userSpaceOnUse" x="43" y="2" width="88" height="19">
<path fill-rule="evenodd" clip-rule="evenodd" d="M43.3789 2.50806H130V20.7771H43.3789V2.50806Z" fill="white"/>
</mask>
<g mask="url(#mask2)">
<path fill-rule="evenodd" clip-rule="evenodd" d="M89.2759 16.5471C88.6359 16.5471 88.2499 17.0401 88.2499 17.6351C88.2499 18.2301 88.6359 18.7241 89.2759 18.7241C89.8869 18.7241 90.3029 18.2521 90.3029 17.6351C90.3029 17.0121 89.8929 16.5471 89.2759 16.5471ZM89.1859 15.8451C89.6689 15.8451 90.0219 16.0411 90.2529 16.3451V14.2241H90.9929V19.3351H90.2529V18.9261C90.0169 19.2291 89.6689 19.4251 89.1859 19.4251C88.2319 19.4251 87.4859 18.6791 87.4859 17.6351C87.4859 16.5911 88.2379 15.8451 89.1859 15.8451ZM86.5439 15.8451C86.7679 15.8451 86.9419 15.8731 87.1159 15.9411L86.9359 16.6761C86.7789 16.5911 86.5549 16.5521 86.3699 16.5521C85.8979 16.5521 85.5619 16.8831 85.5619 17.4671V19.3351H84.8209V15.9351H85.5559V16.3171C85.7749 15.9961 86.1229 15.8451 86.5439 15.8451ZM82.0719 16.5471C81.4319 16.5471 81.0449 17.0401 81.0449 17.6351C81.0449 18.2301 81.4319 18.7241 82.0719 18.7241C82.6829 18.7241 83.0979 18.2521 83.0979 17.6351C83.0919 17.0121 82.6829 16.5471 82.0719 16.5471ZM83.7889 15.9351V19.3351H83.0479V18.9261C82.8119 19.2291 82.4639 19.4251 81.9819 19.4251C81.0279 19.4251 80.2819 18.6791 80.2819 17.6351C80.2819 16.5911 81.0279 15.8451 81.9819 15.8451C82.4639 15.8451 82.8179 16.0411 83.0479 16.3451V15.9351H83.7889ZM78.6319 15.8451C79.1369 15.8451 79.6029 16.0301 79.8999 16.3901L79.4229 16.8951C79.1879 16.6701 78.9349 16.5411 78.6039 16.5411C78.0319 16.5411 77.5999 16.9891 77.5999 17.6291C77.5999 18.2691 78.0319 18.7181 78.6039 18.7181C78.9289 18.7181 79.2209 18.5671 79.4399 18.3641L79.8999 18.8751C79.5909 19.2351 79.1369 19.4191 78.6319 19.4191C77.5489 19.4191 76.8419 18.6511 76.8419 17.6291C76.8419 16.6131 77.5489 15.8451 78.6319 15.8451ZM76.0339 15.8451C76.2579 15.8451 76.4319 15.8731 76.6069 15.9411L76.4269 16.6761C76.2699 16.5911 76.0459 16.5521 75.8599 16.5521C75.3889 16.5521 75.0519 16.8831 75.0519 17.4671V19.3351H74.3119V15.9351H75.0469V16.3171C75.2709 15.9961 75.6189 15.8451 76.0339 15.8451ZM71.9099 16.5071C71.3819 16.5071 71.0859 16.8501 71.0059 17.3431H72.7689C72.6899 16.8161 72.3809 16.5071 71.9099 16.5071ZM71.9219 15.8451C72.8759 15.8451 73.5259 16.5681 73.5319 17.6291C73.5319 17.7251 73.5259 17.8201 73.5149 17.9041H71.0019C71.1019 18.5161 71.5289 18.7691 72.0109 18.7691C72.3529 18.7691 72.7129 18.6341 72.9929 18.4091L73.3639 18.9371C72.9479 19.2901 72.4769 19.4141 71.9659 19.4141C70.9449 19.4141 70.2269 18.7011 70.2269 17.6241C70.2329 16.5681 70.9219 15.8451 71.9219 15.8451ZM69.7049 15.9351V16.6091H68.4029V18.0901C68.4029 18.5501 68.6449 18.7241 68.9419 18.7241C69.1719 18.7241 69.4239 18.6221 69.6269 18.4931L69.9189 19.0881C69.6429 19.2741 69.3009 19.4251 68.8749 19.4251C68.1059 19.4251 67.6519 19.0101 67.6519 18.1071V16.6091H66.9719V15.9351H67.6519V14.9081H68.3979V15.9351H69.7049ZM66.5689 16.2101L66.2489 16.7881C66.0419 16.6581 65.6209 16.4961 65.1999 16.4961C64.7959 16.4961 64.5539 16.6581 64.5539 16.9001C64.5539 17.1361 64.8009 17.2031 65.1159 17.2531L65.4689 17.3101C66.2099 17.4161 66.6529 17.7311 66.6529 18.3141C66.6529 18.9651 66.0869 19.4251 65.1039 19.4251C64.7509 19.4251 64.1449 19.3581 63.6449 18.9871L63.9869 18.4321C64.2339 18.6221 64.5539 18.7791 65.1099 18.7791C65.6149 18.7791 65.8839 18.6221 65.8839 18.3641C65.8839 18.1741 65.6989 18.0451 65.2949 17.9881L64.9409 17.9431C64.1899 17.8431 63.7859 17.4951 63.7859 16.9441C63.7859 16.2721 64.3239 15.8571 65.1939 15.8571C65.7209 15.8511 66.2149 15.9801 66.5689 16.2101ZM61.1819 16.5471C60.5429 16.5471 60.1549 17.0401 60.1549 17.6351C60.1549 18.2301 60.5429 18.7241 61.1819 18.7241C61.7939 18.7241 62.2089 18.2521 62.2089 17.6351C62.2089 17.0121 61.7989 16.5471 61.1819 16.5471ZM62.9049 15.9351V19.3351H62.1639V18.9261C61.9279 19.2291 61.5809 19.4251 61.0979 19.4251C60.1439 19.4251 59.3979 18.6791 59.3979 17.6351C59.3979 16.5911 60.1499 15.8451 61.0979 15.8451C61.5809 15.8451 61.9339 16.0411 62.1639 16.3451V15.9351H62.9049ZM57.2659 15.8451C58.0739 15.8451 58.6459 16.4011 58.6459 17.1971V19.3351H57.8999V17.4441C57.8999 16.8721 57.6019 16.5521 57.1089 16.5521C56.6309 16.5521 56.2279 16.8661 56.2279 17.4501V19.3351H55.4819V17.4441C55.4819 16.8721 55.1899 16.5521 54.6899 16.5521C54.2129 16.5521 53.8089 16.8661 53.8089 17.4501V19.3351H53.0629V15.9351H53.8039V16.3501C54.0789 15.9461 54.4999 15.8451 54.8469 15.8451C55.3629 15.8451 55.7899 16.0751 56.0199 16.4511C56.3179 15.9691 56.8449 15.8451 57.2659 15.8451ZM50.9419 15.9351L48.2549 20.7771H47.4299L48.6469 18.6401L47.1439 15.9351H47.9739L49.0679 17.8881L50.1229 15.9351H50.9419ZM45.2019 16.5471C44.5899 16.5471 44.1749 17.0181 44.1749 17.6351C44.1749 18.2521 44.5849 18.7241 45.2019 18.7241C45.8419 18.7241 46.2289 18.2301 46.2289 17.6351C46.2289 17.0401 45.8419 16.5471 45.2019 16.5471ZM45.2919 15.8451C46.2459 15.8451 46.9919 16.5911 46.9919 17.6351C46.9919 18.6791 46.2459 19.4251 45.2919 19.4251C44.8089 19.4251 44.4619 19.2291 44.2259 18.9311V19.3351H43.4849V14.2241H44.2259V16.3391C44.4559 16.0411 44.8089 15.8451 45.2919 15.8451ZM127.385 5.28006L126.707 6.50806C126.269 6.23906 125.372 5.89106 124.473 5.89106C123.615 5.89106 123.104 6.23906 123.104 6.75006C123.104 7.25506 123.631 7.40106 124.299 7.49606L125.046 7.60906C126.623 7.83306 127.559 8.50606 127.559 9.74606C127.559 11.1371 126.353 12.1091 124.266 12.1091C123.52 12.1091 122.218 11.9621 121.163 11.1771L121.898 9.99306C122.42 10.3911 123.104 10.7341 124.283 10.7341C125.36 10.7341 125.926 10.3911 125.926 9.85306C125.926 9.44306 125.534 9.17406 124.675 9.05006L123.919 8.95506C122.319 8.73606 121.466 7.99506 121.466 6.83406C121.466 5.39806 122.617 4.51706 124.457 4.51706C125.59 4.51706 126.639 4.79706 127.385 5.28006ZM119.883 5.28006L119.205 6.50806C118.767 6.23906 117.87 5.89106 116.971 5.89106C116.113 5.89106 115.603 6.23906 115.603 6.75006C115.603 7.25506 116.13 7.40106 116.797 7.49606L117.545 7.60906C119.121 7.83306 120.058 8.50606 120.058 9.74606C120.058 11.1371 118.851 12.1091 116.764 12.1091C116.018 12.1091 114.716 11.9621 113.662 11.1771L114.396 9.99306C114.919 10.3911 115.603 10.7341 116.781 10.7341C117.858 10.7341 118.425 10.3911 118.425 9.85306C118.425 9.44306 118.032 9.17406 117.173 9.05006L116.417 8.95506C114.817 8.73606 113.964 7.99506 113.964 6.83406C113.964 5.39806 115.115 4.51706 116.955 4.51706C118.088 4.51706 119.137 4.79706 119.883 5.28006ZM108.275 5.99806C106.917 5.99806 106.092 7.04706 106.092 8.31506C106.092 9.58306 106.917 10.6321 108.275 10.6321C109.582 10.6321 110.458 9.63406 110.458 8.31506C110.458 6.99706 109.582 5.99806 108.275 5.99806ZM111.939 4.69606V11.9351H110.362V11.0651C109.863 11.7041 109.117 12.1191 108.089 12.1191C106.064 12.1191 104.47 10.5261 104.47 8.31506C104.47 6.10506 106.064 4.51106 108.089 4.51106C109.117 4.51106 109.863 4.93206 110.362 5.57706V4.69606H111.939ZM99.3649 5.99806C98.0569 5.99806 97.1819 6.99706 97.1819 8.31506C97.1819 9.63406 98.0569 10.6321 99.3649 10.6321C100.722 10.6321 101.547 9.58306 101.547 8.31506C101.547 7.04706 100.722 5.99806 99.3649 5.99806ZM99.5549 4.51106C101.581 4.51106 103.174 6.10506 103.174 8.31506C103.174 10.5261 101.581 12.1191 99.5549 12.1191C98.5289 12.1191 97.7879 11.7041 97.2889 11.0701V14.9531H95.7119V4.69606H97.2889V5.55506C97.7879 4.92606 98.5289 4.51106 99.5549 4.51106ZM93.0179 4.51106C93.5019 4.51106 93.8719 4.57306 94.2359 4.71306L93.8599 6.27806C93.5289 6.10506 93.0469 6.01506 92.6599 6.01506C91.6549 6.01506 90.9369 6.72706 90.9369 7.95606V11.9351H89.3599V4.69606H90.9249V5.51006C91.3969 4.82506 92.1369 4.51106 93.0179 4.51106ZM84.0859 5.91406C82.9589 5.91406 82.3359 6.63806 82.1669 7.69806H85.9209C85.7469 6.57006 85.0899 5.91406 84.0859 5.91406ZM84.1139 4.51106C86.1389 4.51106 87.5249 6.05406 87.5369 8.31006C87.5369 8.51206 87.5199 8.71906 87.5079 8.89906H82.1619C82.3749 10.2001 83.2899 10.7391 84.3159 10.7391C85.0399 10.7391 85.8139 10.4531 86.4089 9.97606L87.1949 11.1041C86.3129 11.8611 85.3149 12.1251 84.2199 12.1251C82.0549 12.1251 80.5169 10.6161 80.5169 8.32106C80.5109 6.04806 81.9879 4.51106 84.1139 4.51106ZM79.2439 4.69606V6.13206H76.4719V9.28006C76.4719 10.2561 76.9879 10.6321 77.6229 10.6321C78.1099 10.6321 78.6489 10.4141 79.0809 10.1451L79.7099 11.4071C79.1259 11.8001 78.3959 12.1251 77.4879 12.1251C75.8489 12.1251 74.8889 11.2441 74.8889 9.31406V6.13206H73.4479V4.69606H74.8889V2.50806H76.4769V4.69606H79.2439ZM72.4159 5.28006L71.7359 6.50806C71.2979 6.23906 70.4009 5.89106 69.5039 5.89106C68.6449 5.89106 68.1339 6.23906 68.1339 6.75006C68.1339 7.25506 68.6619 7.40106 69.3289 7.49606L70.0759 7.60906C71.6519 7.83306 72.5889 8.50606 72.5889 9.74606C72.5889 11.1371 71.3819 12.1091 69.2959 12.1091C68.5489 12.1091 67.2479 11.9621 66.1929 11.1771L66.9269 9.99306C67.4499 10.3911 68.1339 10.7341 69.3119 10.7341C70.3889 10.7341 70.9569 10.3911 70.9569 9.85306C70.9569 9.44306 70.5639 9.17406 69.7049 9.05006L68.9479 8.95506C67.3479 8.73606 66.4959 7.99506 66.4959 6.83406C66.4959 5.39806 67.6459 4.51706 69.4859 4.51706C70.6199 4.51706 71.6689 4.79706 72.4159 5.28006ZM60.8059 5.99806C59.4479 5.99806 58.6239 7.04706 58.6239 8.31506C58.6239 9.58306 59.4479 10.6321 60.8059 10.6321C62.1129 10.6321 62.9889 9.63406 62.9889 8.31506C62.9889 6.99706 62.1129 5.99806 60.8059 5.99806ZM64.4699 4.69606V11.9351H62.8939V11.0651C62.3939 11.7041 61.6479 12.1191 60.6209 12.1191C58.5949 12.1191 57.0019 10.5261 57.0019 8.31506C57.0019 6.10506 58.5949 4.51106 60.6209 4.51106C61.6479 4.51106 62.3939 4.93206 62.8939 5.57706V4.69606H64.4699ZM52.3169 4.51106C54.0389 4.51106 55.2569 5.69506 55.2569 7.38906V11.9351H53.6689V7.91106C53.6689 6.69306 53.0409 6.01506 51.9859 6.01506C50.9639 6.01506 50.1119 6.68806 50.1119 7.92806V11.9401H48.5239V7.91706C48.5239 6.69906 47.8959 6.02006 46.8399 6.02006C45.8189 6.02006 44.9659 6.69306 44.9659 7.93406V11.9451H43.3789V4.70806H44.9499V5.58906C45.5329 4.73506 46.4309 4.51706 47.1719 4.51706C48.2769 4.51706 49.1749 5.00506 49.6739 5.80706C50.3019 4.76306 51.4189 4.51106 52.3169 4.51106ZM130.001 11.6311V12.2661H129.899V11.7431L129.714 12.2031H129.608L129.422 11.7491V12.2661H129.322V11.6311H129.478L129.664 12.0861L129.849 11.6311H130.001ZM129.214 11.6311V11.7271H129.007V12.2661H128.906V11.7271H128.699V11.6311H129.214Z" fill="black"/>
</g>
</svg>
