<svg width="350" height="647" viewBox="0 0 350 647" fill="none" xmlns="http://www.w3.org/2000/svg">
<path fill-rule="evenodd" clip-rule="evenodd" d="M40.5246 426.411L123.945 458.264L279.162 324.68C348.748 264.067 356.162 158.04 295.689 88.3328C235.217 18.6251 129.403 11.2259 59.8174 71.8391L-94.603 206.348L-74.7335 293.557L111.462 131.37C148.279 99.3006 204.267 103.216 236.262 140.097C268.258 176.979 264.334 233.079 227.517 265.149L40.5246 426.411Z" stroke="#0039D1" stroke-width="3"/>
<path fill-rule="evenodd" clip-rule="evenodd" d="M39.4451 426.256L59.3669 513.202L-10.4263 575.339C-80.0828 635.743 -186.034 628.334 -246.606 558.824C-307.178 489.314 -299.787 383.617 -230.131 323.213L-159.553 262.01L-76.0164 293.791L-178.401 382.576C-215.256 414.535 -219.166 470.461 -187.119 507.238C-155.071 544.015 -99.01 547.935 -62.1555 515.976L39.4451 426.256Z" fill="#00C67A"/>
</svg>
