<svg width="320" height="63" viewBox="0 0 320 63" fill="none" xmlns="http://www.w3.org/2000/svg">
<mask id="mask0" mask-type="alpha" maskUnits="userSpaceOnUse" x="0" y="0" width="320" height="63">
<path fill-rule="evenodd" clip-rule="evenodd" d="M251.235 0C254.946 5.573 256.975 16.025 291.311 15.504C327.135 14.953 305.28 24.741 298.921 35.8C310.388 25.566 319.966 18.819 320 14.919V14.876C319.974 11.982 314.626 10.668 300.782 10.668C268.297 10.668 260.056 9.281 251.235 0ZM227.343 12.225V16.261C225.403 16.261 224.004 16.508 223.16 16.981C221.908 17.626 221.286 18.833 221.286 20.602C221.286 22.372 221.888 23.602 223.105 24.279C223.994 24.763 225.403 25.01 227.343 25.01V44.054C227.343 45.431 227.794 46.592 228.695 47.562C229.598 48.521 230.728 49.006 232.057 49.006C233.421 49.006 234.548 48.521 235.44 47.562C236.318 46.592 236.769 45.431 236.769 44.054V25.01C239.328 25.01 241.009 24.864 241.811 24.584C243.445 24.018 244.268 22.698 244.268 20.602C244.268 18.562 243.445 17.252 241.811 16.689C241.009 16.407 239.328 16.261 236.769 16.261V12.225C236.769 7.477 235.192 5.11 232.057 5.11C228.91 5.11 227.343 7.477 227.343 12.225ZM208.332 18.912C207.451 16.914 205.885 15.912 203.631 15.912C202.267 15.912 201.137 16.385 200.247 17.332C199.367 18.269 198.928 19.429 198.928 20.795V44.054C198.928 45.431 199.367 46.592 200.26 47.562C201.137 48.521 202.267 49.006 203.641 49.006C205.005 49.006 206.132 48.521 207.025 47.562C207.903 46.592 208.354 45.431 208.354 44.054V32.476C208.354 29.43 209.334 27.334 211.309 26.205C213.112 25.565 214.918 24.943 216.733 24.334C218.695 23.578 219.676 22.192 219.676 20.173C219.676 18.854 219.201 17.704 218.266 16.734C217.318 15.774 216.18 15.291 214.85 15.291C212.517 15.291 210.352 16.498 208.332 18.912ZM167.704 20.715C165.179 24.064 163.907 27.966 163.907 32.431C163.907 36.896 165.179 40.797 167.704 44.134C170.481 47.787 174.066 49.625 178.44 49.625C181.857 49.625 184.552 48.42 186.524 46.006C187.404 48.003 188.869 49.006 190.921 49.006C192.287 49.006 193.414 48.521 194.305 47.562C195.185 46.592 195.624 45.431 195.624 44.054V20.795C195.624 19.464 195.173 18.323 194.272 17.355C193.369 16.396 192.253 15.912 190.921 15.912C188.869 15.912 187.404 16.914 186.524 18.912C184.552 16.498 181.857 15.291 178.44 15.291C174.099 15.291 170.526 17.095 167.704 20.715ZM174.842 37.955C173.839 36.433 173.333 34.584 173.333 32.431C173.333 30.265 173.851 28.438 174.899 26.961C176.062 25.281 177.684 24.447 179.771 24.447C181.812 24.447 183.434 25.281 184.641 26.961C185.68 28.438 186.197 30.265 186.197 32.431C186.197 34.584 185.68 36.433 184.641 37.955C183.479 39.634 181.857 40.47 179.771 40.47C177.684 40.47 176.039 39.634 174.842 37.955ZM138.703 20.274C135.784 23.591 134.329 27.637 134.329 32.431C134.329 37.211 135.761 41.236 138.613 44.496C141.591 47.912 145.446 49.625 150.195 49.625C152.61 49.633 154.999 49.118 157.197 48.116C159.971 46.873 161.356 45.183 161.356 43.052C161.356 42.002 160.975 41.046 160.219 40.155C159.45 39.274 158.551 38.824 157.501 38.824C156.78 38.824 155.618 39.106 154.004 39.646C152.393 40.2 151.131 40.47 150.205 40.47C148.119 40.47 146.484 39.614 145.324 37.888C144.274 36.411 143.756 34.584 143.756 32.431C143.756 30.141 144.341 28.292 145.504 26.848C146.755 25.247 148.503 24.447 150.747 24.447C151.593 24.447 152.743 24.695 154.185 25.215C155.628 25.721 156.732 25.98 157.501 25.98C158.628 25.98 159.553 25.53 160.274 24.649C160.997 23.758 161.356 22.732 161.356 21.571C161.356 19.271 159.992 17.581 157.254 16.498C155.291 15.696 152.934 15.291 150.195 15.291C145.446 15.291 141.625 16.95 138.703 20.274ZM112.014 18.912C111.135 16.914 109.568 15.912 107.312 15.912C105.948 15.912 104.821 16.385 103.94 17.332C103.05 18.269 102.61 19.429 102.61 20.795V44.054C102.61 45.431 103.05 46.592 103.94 47.562C104.821 48.521 105.936 49.006 107.302 49.006C110.548 49.006 112.172 46.39 112.172 41.169C112.172 40.165 112.116 38.588 112.002 36.411C111.902 34.245 111.845 32.657 111.845 31.652C111.845 26.116 113.627 23.343 117.202 23.343C120.775 23.343 122.569 26.116 122.569 31.652C122.569 32.657 122.501 34.245 122.353 36.411C122.219 38.588 122.151 40.165 122.151 41.169C122.151 46.39 123.798 49.006 127.09 49.006C128.454 49.006 129.571 48.521 130.462 47.562C131.341 46.592 131.781 45.431 131.781 44.054V26.443C131.781 22.913 130.72 20.14 128.589 18.121C126.504 16.238 123.662 15.291 120.087 15.291C116.23 15.291 113.536 16.498 112.014 18.912ZM73.123 20.332C69.967 23.691 68.388 27.717 68.388 32.431C68.388 37.38 69.91 41.474 72.944 44.733C75.977 47.992 79.946 49.625 84.862 49.625C87.917 49.625 90.905 49.074 93.848 47.992C97.706 46.549 99.634 44.539 99.634 41.958C99.634 40.842 99.249 39.872 98.494 39.072C97.727 38.259 96.803 37.865 95.71 37.865C95.111 37.865 93.725 38.362 91.571 39.377C89.418 40.379 87.58 40.888 86.045 40.888C84.073 40.888 82.404 40.503 81.04 39.746C79.348 38.778 78.502 37.392 78.502 35.587H95.518C97.085 35.587 98.246 35.284 98.99 34.686C99.734 34.077 100.107 32.993 100.107 31.417C100.107 27.029 98.641 23.241 95.732 20.06C92.822 16.881 89.192 15.291 84.85 15.291C80.183 15.291 76.27 16.971 73.123 20.332ZM80.43 25.111C81.715 23.929 83.103 23.343 84.591 23.343C86.036 23.343 87.399 23.929 88.684 25.111C89.97 26.296 90.635 27.604 90.68 29.048H78.502C78.502 27.604 79.145 26.296 80.43 25.111ZM43.187 18.912C42.261 16.914 40.795 15.912 38.789 15.912C37.459 15.912 36.342 16.396 35.44 17.355C34.538 18.323 34.087 19.474 34.087 20.805V57.26C34.087 58.634 34.527 59.797 35.406 60.766C36.297 61.725 37.413 62.21 38.778 62.21C42.115 62.21 43.784 59.415 43.784 53.808C43.784 52.793 43.739 51.508 43.649 49.931C43.558 48.363 43.514 47.382 43.514 46.976C45.634 48.734 48.227 49.625 51.283 49.625C55.612 49.625 59.176 47.787 61.938 44.134C64.52 40.797 65.806 36.896 65.806 32.431C65.806 27.966 64.509 24.064 61.938 20.715C59.164 17.095 55.612 15.291 51.271 15.291C47.855 15.291 45.16 16.498 43.187 18.912ZM45.069 37.955C44.032 36.433 43.514 34.584 43.514 32.431C43.514 30.265 44.032 28.438 45.069 26.961C46.231 25.281 47.855 24.447 49.94 24.447C52.027 24.447 53.65 25.281 54.813 26.961C55.85 28.438 56.379 30.265 56.379 32.431C56.379 34.584 55.85 36.433 54.813 37.955C53.65 39.634 52.027 40.47 49.94 40.47C47.855 40.47 46.231 39.634 45.069 37.955ZM4.286 20.365C1.432 23.613 0 27.637 0 32.431C0 37.211 1.432 41.236 4.286 44.496C7.263 47.912 11.119 49.625 15.866 49.625C20.601 49.625 24.468 47.912 27.445 44.496C30.299 41.236 31.72 37.211 31.72 32.431C31.72 27.637 30.299 23.613 27.445 20.365C24.468 16.981 20.601 15.291 15.866 15.291C11.164 15.291 7.295 16.981 4.286 20.365ZM10.993 37.955C9.946 36.433 9.427 34.584 9.427 32.431C9.427 30.265 9.946 28.438 10.993 26.961C12.155 25.281 13.779 24.447 15.866 24.447C17.951 24.447 19.576 25.281 20.736 26.961C21.774 28.438 22.292 30.265 22.292 32.431C22.292 34.584 21.774 36.433 20.736 37.955C19.576 39.634 17.951 40.47 15.866 40.47C13.779 40.47 12.155 39.634 10.993 37.955ZM291.811 39.681C289.099 39.683 286.9 41.884 286.902 44.597C286.902 47.304 289.102 49.501 291.818 49.501C294.527 49.5 296.722 47.305 296.723 44.597C296.723 41.878 294.525 39.681 291.818 39.681H291.811ZM269.44 39.681C266.727 39.683 264.529 41.884 264.532 44.597C264.532 47.304 266.728 49.501 269.447 49.501C272.155 49.5 274.351 47.305 274.352 44.597C274.352 41.878 272.155 39.681 269.447 39.681H269.44Z" fill="white"/>
</mask>
<g mask="url(#mask0)">
<path fill-rule="evenodd" clip-rule="evenodd" d="M251.235 0C254.946 5.573 256.975 16.025 291.311 15.504C327.135 14.953 305.28 24.741 298.921 35.8C310.388 25.566 319.966 18.819 320 14.919V14.876C319.974 11.982 314.626 10.668 300.782 10.668C268.297 10.668 260.056 9.281 251.235 0ZM227.343 12.225V16.261C225.403 16.261 224.004 16.508 223.16 16.981C221.908 17.626 221.286 18.833 221.286 20.602C221.286 22.372 221.888 23.602 223.105 24.279C223.994 24.763 225.403 25.01 227.343 25.01V44.054C227.343 45.431 227.794 46.592 228.695 47.562C229.598 48.521 230.728 49.006 232.057 49.006C233.421 49.006 234.548 48.521 235.44 47.562C236.318 46.592 236.769 45.431 236.769 44.054V25.01C239.328 25.01 241.009 24.864 241.811 24.584C243.445 24.018 244.268 22.698 244.268 20.602C244.268 18.562 243.445 17.252 241.811 16.689C241.009 16.407 239.328 16.261 236.769 16.261V12.225C236.769 7.477 235.192 5.11 232.057 5.11C228.91 5.11 227.343 7.477 227.343 12.225ZM208.332 18.912C207.451 16.914 205.885 15.912 203.631 15.912C202.267 15.912 201.137 16.385 200.247 17.332C199.367 18.269 198.928 19.429 198.928 20.795V44.054C198.928 45.431 199.367 46.592 200.26 47.562C201.137 48.521 202.267 49.006 203.641 49.006C205.005 49.006 206.132 48.521 207.025 47.562C207.903 46.592 208.354 45.431 208.354 44.054V32.476C208.354 29.43 209.334 27.334 211.309 26.205C213.112 25.565 214.918 24.943 216.733 24.334C218.695 23.578 219.676 22.192 219.676 20.173C219.676 18.854 219.201 17.704 218.266 16.734C217.318 15.774 216.18 15.291 214.85 15.291C212.517 15.291 210.352 16.498 208.332 18.912ZM167.704 20.715C165.179 24.064 163.907 27.966 163.907 32.431C163.907 36.896 165.179 40.797 167.704 44.134C170.481 47.787 174.066 49.625 178.44 49.625C181.857 49.625 184.552 48.42 186.524 46.006C187.404 48.003 188.869 49.006 190.921 49.006C192.287 49.006 193.414 48.521 194.305 47.562C195.185 46.592 195.624 45.431 195.624 44.054V20.795C195.624 19.464 195.173 18.323 194.272 17.355C193.369 16.396 192.253 15.912 190.921 15.912C188.869 15.912 187.404 16.914 186.524 18.912C184.552 16.498 181.857 15.291 178.44 15.291C174.099 15.291 170.526 17.095 167.704 20.715ZM174.842 37.955C173.839 36.433 173.333 34.584 173.333 32.431C173.333 30.265 173.851 28.438 174.899 26.961C176.062 25.281 177.684 24.447 179.771 24.447C181.812 24.447 183.434 25.281 184.641 26.961C185.68 28.438 186.197 30.265 186.197 32.431C186.197 34.584 185.68 36.433 184.641 37.955C183.479 39.634 181.857 40.47 179.771 40.47C177.684 40.47 176.039 39.634 174.842 37.955ZM138.703 20.274C135.784 23.591 134.329 27.637 134.329 32.431C134.329 37.211 135.761 41.236 138.613 44.496C141.591 47.912 145.446 49.625 150.195 49.625C152.61 49.633 154.999 49.118 157.197 48.116C159.971 46.873 161.356 45.183 161.356 43.052C161.356 42.002 160.975 41.046 160.219 40.155C159.45 39.274 158.551 38.824 157.501 38.824C156.78 38.824 155.618 39.106 154.004 39.646C152.393 40.2 151.131 40.47 150.205 40.47C148.119 40.47 146.484 39.614 145.324 37.888C144.274 36.411 143.756 34.584 143.756 32.431C143.756 30.141 144.341 28.292 145.504 26.848C146.755 25.247 148.503 24.447 150.747 24.447C151.593 24.447 152.743 24.695 154.185 25.215C155.628 25.721 156.732 25.98 157.501 25.98C158.628 25.98 159.553 25.53 160.274 24.649C160.997 23.758 161.356 22.732 161.356 21.571C161.356 19.271 159.992 17.581 157.254 16.498C155.291 15.696 152.934 15.291 150.195 15.291C145.446 15.291 141.625 16.95 138.703 20.274ZM112.014 18.912C111.135 16.914 109.568 15.912 107.312 15.912C105.948 15.912 104.821 16.385 103.94 17.332C103.05 18.269 102.61 19.429 102.61 20.795V44.054C102.61 45.431 103.05 46.592 103.94 47.562C104.821 48.521 105.936 49.006 107.302 49.006C110.548 49.006 112.172 46.39 112.172 41.169C112.172 40.165 112.116 38.588 112.002 36.411C111.902 34.245 111.845 32.657 111.845 31.652C111.845 26.116 113.627 23.343 117.202 23.343C120.775 23.343 122.569 26.116 122.569 31.652C122.569 32.657 122.501 34.245 122.353 36.411C122.219 38.588 122.151 40.165 122.151 41.169C122.151 46.39 123.798 49.006 127.09 49.006C128.454 49.006 129.571 48.521 130.462 47.562C131.341 46.592 131.781 45.431 131.781 44.054V26.443C131.781 22.913 130.72 20.14 128.589 18.121C126.504 16.238 123.662 15.291 120.087 15.291C116.23 15.291 113.536 16.498 112.014 18.912ZM73.123 20.332C69.967 23.691 68.388 27.717 68.388 32.431C68.388 37.38 69.91 41.474 72.944 44.733C75.977 47.992 79.946 49.625 84.862 49.625C87.917 49.625 90.905 49.074 93.848 47.992C97.706 46.549 99.634 44.539 99.634 41.958C99.634 40.842 99.249 39.872 98.494 39.072C97.727 38.259 96.803 37.865 95.71 37.865C95.111 37.865 93.725 38.362 91.571 39.377C89.418 40.379 87.58 40.888 86.045 40.888C84.073 40.888 82.404 40.503 81.04 39.746C79.348 38.778 78.502 37.392 78.502 35.587H95.518C97.085 35.587 98.246 35.284 98.99 34.686C99.734 34.077 100.107 32.993 100.107 31.417C100.107 27.029 98.641 23.241 95.732 20.06C92.822 16.881 89.192 15.291 84.85 15.291C80.183 15.291 76.27 16.971 73.123 20.332ZM80.43 25.111C81.715 23.929 83.103 23.343 84.591 23.343C86.036 23.343 87.399 23.929 88.684 25.111C89.97 26.296 90.635 27.604 90.68 29.048H78.502C78.502 27.604 79.145 26.296 80.43 25.111ZM43.187 18.912C42.261 16.914 40.795 15.912 38.789 15.912C37.459 15.912 36.342 16.396 35.44 17.355C34.538 18.323 34.087 19.474 34.087 20.805V57.26C34.087 58.634 34.527 59.797 35.406 60.766C36.297 61.725 37.413 62.21 38.778 62.21C42.115 62.21 43.784 59.415 43.784 53.808C43.784 52.793 43.739 51.508 43.649 49.931C43.558 48.363 43.514 47.382 43.514 46.976C45.634 48.734 48.227 49.625 51.283 49.625C55.612 49.625 59.176 47.787 61.938 44.134C64.52 40.797 65.806 36.896 65.806 32.431C65.806 27.966 64.509 24.064 61.938 20.715C59.164 17.095 55.612 15.291 51.271 15.291C47.855 15.291 45.16 16.498 43.187 18.912ZM45.069 37.955C44.032 36.433 43.514 34.584 43.514 32.431C43.514 30.265 44.032 28.438 45.069 26.961C46.231 25.281 47.855 24.447 49.94 24.447C52.027 24.447 53.65 25.281 54.813 26.961C55.85 28.438 56.379 30.265 56.379 32.431C56.379 34.584 55.85 36.433 54.813 37.955C53.65 39.634 52.027 40.47 49.94 40.47C47.855 40.47 46.231 39.634 45.069 37.955ZM4.286 20.365C1.432 23.613 0 27.637 0 32.431C0 37.211 1.432 41.236 4.286 44.496C7.263 47.912 11.119 49.625 15.866 49.625C20.601 49.625 24.468 47.912 27.445 44.496C30.299 41.236 31.72 37.211 31.72 32.431C31.72 27.637 30.299 23.613 27.445 20.365C24.468 16.981 20.601 15.291 15.866 15.291C11.164 15.291 7.295 16.981 4.286 20.365ZM10.993 37.955C9.946 36.433 9.427 34.584 9.427 32.431C9.427 30.265 9.946 28.438 10.993 26.961C12.155 25.281 13.779 24.447 15.866 24.447C17.951 24.447 19.576 25.281 20.736 26.961C21.774 28.438 22.292 30.265 22.292 32.431C22.292 34.584 21.774 36.433 20.736 37.955C19.576 39.634 17.951 40.47 15.866 40.47C13.779 40.47 12.155 39.634 10.993 37.955ZM291.811 39.681C289.099 39.683 286.9 41.884 286.902 44.597C286.902 47.304 289.102 49.501 291.818 49.501C294.527 49.5 296.722 47.305 296.723 44.597C296.723 41.878 294.525 39.681 291.818 39.681H291.811ZM269.44 39.681C266.727 39.683 264.529 41.884 264.532 44.597C264.532 47.304 266.728 49.501 269.447 49.501C272.155 49.5 274.351 47.305 274.352 44.597C274.352 41.878 272.155 39.681 269.447 39.681H269.44Z" fill="url(#paint0_linear)"/>
</g>
<defs>
<linearGradient id="paint0_linear" x1="286.566" y1="49.2106" x2="286.566" y2="-5.86636e-06" gradientUnits="userSpaceOnUse">
<stop stop-color="#04B6EF"/>
<stop offset="1" stop-color="#3DCAEF"/>
</linearGradient>
</defs>
</svg>
