<svg width="105" height="18" viewBox="0 0 105 18" fill="none" xmlns="http://www.w3.org/2000/svg">
<path fill-rule="evenodd" clip-rule="evenodd" d="M44.8038 9.00818C44.7928 7.98718 44.4098 7.15918 43.6528 6.52318C42.8948 5.88718 41.9428 5.56918 40.7968 5.56918C40.0718 5.56918 39.3828 5.72918 38.7298 6.05018C38.0778 6.37118 37.5318 6.87018 37.0898 7.54918C36.6478 8.22718 36.4268 9.01318 36.4268 9.90718C36.4268 11.2012 36.8528 12.2422 37.7048 13.0312C38.5568 13.8202 39.5768 14.2142 40.7648 14.2142C42.1218 14.2142 43.2998 13.6992 44.2998 12.6682L43.2578 11.5172C42.6478 12.2532 41.8718 12.6212 40.9308 12.6212C39.9898 12.6212 39.2448 12.2842 38.6988 11.6122L44.8198 9.04018L44.8038 9.00818ZM38.1468 10.2382C38.1358 10.1762 38.1308 10.0752 38.1308 9.93918C38.1308 9.07618 38.4168 8.40318 38.9908 7.91918C39.5638 7.43618 40.1978 7.19418 40.8918 7.19418C41.8058 7.19418 42.4428 7.54118 42.8008 8.23518L38.1468 10.2382Z" fill="#1F0047"/>
<path fill-rule="evenodd" clip-rule="evenodd" d="M34.4006 6.0893C33.9116 6.4263 33.5246 6.8573 33.2406 7.3833V5.6953H31.4746V14.0883H33.2406V10.4903C33.2406 9.5333 33.4626 8.7713 33.9036 8.2033C34.3456 7.6353 35.0026 7.3513 35.8756 7.3513H35.9706L35.9546 5.5683C35.4076 5.5793 34.8896 5.7533 34.4006 6.0893Z" fill="#1F0047"/>
<path fill-rule="evenodd" clip-rule="evenodd" d="M51.137 9.81291C50.853 9.62391 50.587 9.47691 50.34 9.37091C50.093 9.26591 49.838 9.17091 49.575 9.08691C49.312 9.00291 49.01 8.91891 48.668 8.83491C48.326 8.74991 48.06 8.66091 47.871 8.56591C47.597 8.43991 47.461 8.24091 47.461 7.96691C47.461 7.66191 47.593 7.43391 47.855 7.28091C48.118 7.12791 48.46 7.05191 48.881 7.05191C49.68 7.05191 50.422 7.27791 51.105 7.72991L51.768 6.42091C50.906 5.85391 49.991 5.56891 49.023 5.56891C48.055 5.56891 47.269 5.80291 46.664 6.27091C46.059 6.73891 45.757 7.36291 45.757 8.14091C45.757 9.24491 46.63 10.0339 48.376 10.5069C48.418 10.5179 48.481 10.5389 48.565 10.5699C49.68 10.9069 50.238 11.2859 50.238 11.7069C50.238 11.9899 50.121 12.2239 49.89 12.4079C49.659 12.5919 49.344 12.6839 48.944 12.6839C48.029 12.6839 47.082 12.3159 46.104 11.5799L45.252 12.9529C45.757 13.3519 46.338 13.6629 46.995 13.8829C47.653 14.1039 48.286 14.2139 48.896 14.2139C49.801 14.2139 50.542 13.9749 51.121 13.4969C51.699 13.0179 51.989 12.3789 51.989 11.5799C51.989 10.7809 51.705 10.1919 51.137 9.81291Z" fill="#1F0047"/>
<path fill-rule="evenodd" clip-rule="evenodd" d="M29.0749 4.02288C28.3069 3.38088 27.0869 3.06088 25.4149 3.06088H21.6289V14.0879H23.4909V10.8539H25.4469C27.0659 10.8539 28.2679 10.5439 29.0519 9.92288C29.8349 9.30288 30.2269 8.32488 30.2269 6.98888C30.2269 5.65288 29.8429 4.66488 29.0749 4.02288ZM27.7579 8.57388C27.3839 8.96888 26.6819 9.16588 25.6519 9.16588H23.4909V4.74888H25.3839C26.3929 4.74888 27.1349 4.90588 27.6079 5.22188C28.0809 5.53788 28.3179 6.07688 28.3179 6.83888C28.3179 7.60188 28.1309 8.17988 27.7579 8.57388Z" fill="#1F0047"/>
<path fill-rule="evenodd" clip-rule="evenodd" d="M56.1232 12.684C55.7442 12.684 55.4502 12.566 55.2402 12.329C55.0292 12.092 54.9242 11.775 54.9242 11.374V7.115H57.1332V5.695H54.9242V3.06H53.1572V11.328C53.1572 12.21 53.4222 12.913 53.9542 13.433C54.4842 13.954 55.1262 14.214 55.8782 14.214C56.6302 14.214 57.3162 13.936 57.9372 13.378L57.2112 12.131C56.8652 12.5 56.5012 12.684 56.1232 12.684Z" fill="#1F0047"/>
<path fill-rule="evenodd" clip-rule="evenodd" d="M64.9039 7.14691C64.1889 6.09491 63.2789 5.56891 62.1749 5.56891C61.0709 5.56891 60.1129 5.95791 59.3039 6.73591C58.4939 7.51491 58.0889 8.55591 58.0889 9.85991C58.0889 11.1649 58.4829 12.2159 59.2719 13.0149C60.0609 13.8149 60.9869 14.2139 62.0489 14.2139C62.5739 14.2139 63.0979 14.0849 63.6179 13.8279C64.1389 13.5699 64.5679 13.1999 64.9039 12.7149V14.0879H66.6709V5.69491H64.9039V7.14691ZM64.2099 11.8869C63.7259 12.3979 63.1369 12.6529 62.4429 12.6529C61.7489 12.6529 61.1439 12.3999 60.6289 11.8949C60.1129 11.3899 59.8559 10.7359 59.8559 9.93091C59.8559 9.12591 60.1089 8.45591 60.6129 7.91891C61.1179 7.38291 61.7219 7.11491 62.4269 7.11491C63.1319 7.11491 63.7259 7.38291 64.2099 7.91891C64.6939 8.45591 64.9359 9.12391 64.9359 9.92291C64.9359 10.7229 64.6939 11.3769 64.2099 11.8869Z" fill="#1F0047"/>
<path fill-rule="evenodd" clip-rule="evenodd" d="M90.9619 5.56879C89.6999 5.56879 88.6479 5.98679 87.8069 6.82279C86.9649 7.65979 86.5449 8.68179 86.5449 9.89179C86.5449 11.1008 86.9649 12.1248 87.8069 12.9608C88.6479 13.7968 89.6999 14.2148 90.9619 14.2148C92.2239 14.2148 93.2749 13.7968 94.1169 12.9608C94.9589 12.1248 95.3789 11.1008 95.3789 9.89179C95.3789 8.68179 94.9589 7.65979 94.1169 6.82279C93.2749 5.98679 92.2239 5.56879 90.9619 5.56879ZM92.8629 11.8718C92.3629 12.3818 91.7299 12.6358 90.9619 12.6358C90.1939 12.6358 89.5599 12.3818 89.0609 11.8718C88.5609 11.3618 88.3119 10.7018 88.3119 9.89179C88.3119 9.08179 88.5609 8.42179 89.0609 7.91179C89.5609 7.40179 90.1939 7.14679 90.9619 7.14679C91.7299 7.14679 92.3629 7.40179 92.8629 7.91179C93.3619 8.42179 93.6119 9.08179 93.6119 9.89179C93.6119 10.7018 93.3619 11.3618 92.8629 11.8718Z" fill="#E2066F"/>
<mask id="mask0" mask-type="alpha" maskUnits="userSpaceOnUse" x="96" y="5" width="9" height="13">
<path fill-rule="evenodd" clip-rule="evenodd" d="M96.418 5.56931H105V17.1487H96.418V5.56931Z" fill="white"/>
</mask>
<g mask="url(#mask0)">
<path fill-rule="evenodd" clip-rule="evenodd" d="M103.801 6.73631C103.002 5.95831 102.039 5.56931 100.914 5.56931C99.788 5.56931 98.879 6.10031 98.184 7.16231V5.69531H96.418V17.1493H98.184V12.8263C99.026 13.7513 99.975 14.2143 101.032 14.2143C102.089 14.2143 103.014 13.8103 103.808 12.9993C104.602 12.1903 105 11.1383 105 9.84431C105 8.55031 104.6 7.51431 103.801 6.73631ZM102.46 11.8793C101.945 12.3843 101.34 12.6363 100.646 12.6363C99.951 12.6363 99.363 12.3823 98.879 11.8713C98.395 11.3623 98.153 10.7063 98.153 9.90731C98.153 9.10831 98.395 8.44331 98.879 7.91131C99.363 7.38031 99.957 7.11431 100.661 7.11431C101.366 7.11431 101.971 7.38031 102.476 7.91131C102.981 8.44331 103.233 9.11131 103.233 9.91531C103.233 10.7203 102.975 11.3743 102.46 11.8793Z" fill="#E2066F"/>
</g>
<path fill-rule="evenodd" clip-rule="evenodd" d="M82.4311 5.5688C81.8421 5.5688 81.2921 5.7158 80.7821 6.0108C80.2721 6.3048 79.8901 6.7108 79.6391 7.2258V2.3978H77.8711V14.0888H79.6391V9.5448C79.6391 8.7658 79.8651 8.1748 80.3171 7.7698C80.7691 7.3648 81.3001 7.1628 81.9101 7.1628C83.1931 7.1628 83.8351 7.9348 83.8351 9.4818V14.0888H85.6021V8.9448C85.6021 7.8508 85.3101 7.0148 84.7261 6.4368C84.1421 5.8588 83.3771 5.5688 82.4311 5.5688Z" fill="#E2066F"/>
<path fill-rule="evenodd" clip-rule="evenodd" d="M75.759 8.78708C75.186 8.29308 74.334 7.90908 73.203 7.63608C72.072 7.36208 71.334 7.10708 70.987 6.87008C70.639 6.63408 70.466 6.29208 70.466 5.84508C70.466 5.39808 70.639 5.06408 70.987 4.84308C71.334 4.62208 71.778 4.51208 72.32 4.51208C72.862 4.51208 73.41 4.60608 73.968 4.79608C74.526 4.98508 74.967 5.22708 75.294 5.52208L76.287 4.11808C75.782 3.69708 75.183 3.37008 74.489 3.14008C73.795 2.90808 73.095 2.79208 72.391 2.79208C71.297 2.79208 70.379 3.06908 69.637 3.62008C68.896 4.17308 68.526 4.95908 68.526 5.97908C68.526 6.99908 68.851 7.75708 69.504 8.25108C69.829 8.51408 70.203 8.72708 70.623 8.89008C71.044 9.05308 71.659 9.23208 72.469 9.42608C73.279 9.62108 73.85 9.83608 74.181 10.0731C74.512 10.3101 74.678 10.6411 74.678 11.0671C74.678 11.4931 74.502 11.8341 74.15 12.0921C73.797 12.3501 73.321 12.4791 72.722 12.4791C71.523 12.4791 70.366 11.9961 69.251 11.0281L68.084 12.4311C69.419 13.6211 70.949 14.2141 72.675 14.2141C73.852 14.2141 74.804 13.9141 75.53 13.3151C76.256 12.7151 76.618 11.9351 76.618 10.9721C76.618 10.0091 76.332 9.28208 75.759 8.78708Z" fill="#E2066F"/>
<mask id="mask1" mask-type="alpha" maskUnits="userSpaceOnUse" x="0" y="-1" width="18" height="17">
<path fill-rule="evenodd" clip-rule="evenodd" d="M0 -0.000305176H17.1485V15.0647H0V-0.000305176Z" fill="white"/>
</mask>
<g mask="url(#mask1)">
<path fill-rule="evenodd" clip-rule="evenodd" d="M5.55802 13.1577C5.69502 13.0957 5.83302 13.0407 5.97402 12.9877C6.13202 12.9287 6.29102 12.8727 6.45302 12.8237C6.65302 12.7627 6.85602 12.7087 7.06102 12.6647C7.33902 12.6057 7.61902 12.5617 7.90102 12.5347C7.74302 13.0327 7.56802 13.5277 7.37802 14.0197C7.38602 14.1157 7.39102 14.2117 7.39302 14.3067C7.77502 14.2317 8.17002 14.1917 8.57402 14.1917C8.97802 14.1917 9.37202 14.2317 9.75402 14.3067C9.75702 14.2117 9.76102 14.1147 9.76902 14.0197C9.57902 13.5277 9.40502 13.0327 9.24602 12.5347C9.52902 12.5617 9.80902 12.6057 10.086 12.6647C10.291 12.7087 10.494 12.7627 10.695 12.8237C10.856 12.8727 11.016 12.9287 11.174 12.9877C11.314 13.0407 11.453 13.0957 11.59 13.1577C12.561 13.5907 13.447 14.2317 14.173 15.0647C15.994 13.4917 17.148 11.1687 17.148 8.5737C17.148 3.8387 13.309 -0.000305176 8.57402 -0.000305176C3.83802 -0.000305176 -0.000976562 3.8387 -0.000976562 8.5737C-0.000976562 11.1687 1.15302 13.4927 2.97402 15.0647C3.70102 14.2317 4.58602 13.5897 5.55802 13.1577Z" fill="#A0DBE8"/>
</g>
<path fill-rule="evenodd" clip-rule="evenodd" d="M6.12361 14.7085C6.52561 14.5305 6.95161 14.3945 7.39461 14.3075C7.39161 14.2115 7.38761 14.1145 7.37861 14.0205C7.56861 13.5275 7.74361 13.0325 7.90161 12.5345C7.61961 12.5625 7.33961 12.6055 7.06161 12.6645C6.85661 12.7085 6.65361 12.7635 6.45361 12.8235C6.29161 12.8725 6.13261 12.9285 5.97461 12.9875L6.59961 13.1395L6.12361 14.7085Z" fill="#525353"/>
<path fill-rule="evenodd" clip-rule="evenodd" d="M4.64961 15.6333C4.66561 15.4733 4.67461 15.3123 4.67461 15.1493C4.67461 15.0513 4.75461 14.9723 4.85261 14.9723H5.00761L5.55861 13.1573C4.58661 13.5903 3.70061 14.2323 2.97461 15.0653C3.37461 15.4103 3.80761 15.7193 4.26761 15.9873C4.38961 15.8633 4.51761 15.7453 4.64961 15.6333Z" fill="#525353"/>
<path fill-rule="evenodd" clip-rule="evenodd" d="M11.5898 13.1577L12.1398 14.9707H12.2958C12.3928 14.9707 12.4728 15.0517 12.4728 15.1487C12.4728 15.3117 12.4828 15.4727 12.4978 15.6337C12.6308 15.7457 12.7578 15.8637 12.8808 15.9867C13.3398 15.7197 13.7728 15.4107 14.1728 15.0637C13.4468 14.2317 12.5608 13.5907 11.5898 13.1577Z" fill="#525353"/>
<path fill-rule="evenodd" clip-rule="evenodd" d="M10.5491 13.1391L11.1741 12.9881C11.0161 12.9281 10.8571 12.8721 10.6951 12.8241C10.4941 12.7631 10.2911 12.7081 10.0861 12.6641C9.80909 12.6061 9.52809 12.5621 9.24609 12.5351C9.40409 13.0331 9.58009 13.5281 9.76909 14.0201C9.76109 14.1161 9.75709 14.2111 9.75409 14.3071C10.1971 14.3941 10.6221 14.5311 11.0251 14.7081L10.5491 13.1391Z" fill="#525353"/>
<path fill-rule="evenodd" clip-rule="evenodd" d="M8.57421 14.9711H9.78221C9.75821 14.7481 9.74921 14.5271 9.75521 14.3071C9.37321 14.2321 8.97821 14.1921 8.57421 14.1921C8.17021 14.1921 7.77621 14.2321 7.39421 14.3071C7.39921 14.5271 7.39021 14.7481 7.36621 14.9711H8.57421Z" fill="black"/>
<path fill-rule="evenodd" clip-rule="evenodd" d="M4.26701 15.9878C4.36701 16.0458 4.46701 16.1018 4.56901 16.1558C4.60501 15.9838 4.63201 15.8098 4.64901 15.6338C4.51701 15.7458 4.38901 15.8638 4.26701 15.9878Z" fill="black"/>
<path fill-rule="evenodd" clip-rule="evenodd" d="M6.04395 14.9711H7.36595C7.39095 14.7481 7.39995 14.5271 7.39395 14.3071C6.95095 14.3941 6.52595 14.5311 6.12395 14.7081L6.04395 14.9711Z" fill="black"/>
<path fill-rule="evenodd" clip-rule="evenodd" d="M12.4985 15.6333C12.5155 15.8103 12.5425 15.9843 12.5785 16.1553C12.6805 16.1023 12.7815 16.0453 12.8805 15.9873C12.7585 15.8633 12.6305 15.7453 12.4985 15.6333Z" fill="black"/>
<path fill-rule="evenodd" clip-rule="evenodd" d="M11.1053 14.9711L11.0253 14.7081C10.6233 14.5311 10.1973 14.3951 9.75426 14.3071C9.74926 14.5271 9.75826 14.7491 9.78226 14.9721L11.1053 14.9711Z" fill="black"/>
<path fill-rule="evenodd" clip-rule="evenodd" d="M6.04379 14.9711L6.12379 14.7081L6.59879 13.1391L5.97379 12.9881C5.83379 13.0401 5.69479 13.0961 5.55879 13.1571L5.00879 14.9711H5.59879H6.04379Z" fill="#AA9678"/>
<path fill-rule="evenodd" clip-rule="evenodd" d="M11.0248 14.7085L11.1048 14.9715H11.5498H12.1398L11.5898 13.1575C11.4538 13.0965 11.3148 13.0405 11.1738 12.9875L10.5498 13.1395L11.0248 14.7085Z" fill="#AA9678"/>
<path fill-rule="evenodd" clip-rule="evenodd" d="M5.02666 15.3383C5.03166 15.3343 5.03766 15.3303 5.04366 15.3263H5.02766C5.02766 15.3303 5.02666 15.3343 5.02666 15.3383Z" fill="#C0B098"/>
<path fill-rule="evenodd" clip-rule="evenodd" d="M8.57446 15.3266H7.31246H5.93646H5.04346L5.02746 15.3386C5.01446 15.6736 4.97046 16.0016 4.89746 16.3206C6.01146 16.8506 7.25846 17.1486 8.57446 17.1486V15.3266Z" fill="#C0B098"/>
<path fill-rule="evenodd" clip-rule="evenodd" d="M12.1213 15.3266H12.1063L12.1223 15.3386C12.1213 15.3346 12.1213 15.3306 12.1213 15.3266Z" fill="#AA9678"/>
<path fill-rule="evenodd" clip-rule="evenodd" d="M12.1052 15.3266H11.2122H9.83522H8.57422V17.1486C9.89022 17.1486 11.1372 16.8506 12.2512 16.3206C12.1782 16.0016 12.1332 15.6736 12.1222 15.3386C12.1162 15.3346 12.1102 15.3306 12.1052 15.3266Z" fill="#AA9678"/>
<path fill-rule="evenodd" clip-rule="evenodd" d="M12.4983 15.6333C12.4823 15.4733 12.4733 15.3123 12.4733 15.1493C12.4733 15.0513 12.3933 14.9723 12.2953 14.9723H12.1403H11.5493H11.1043H9.78234H8.57434H7.36534H6.04334H5.59834H5.00834H4.85234C4.75434 14.9723 4.67534 15.0513 4.67534 15.1493C4.67534 15.3123 4.66534 15.4733 4.64934 15.6333C4.63234 15.8103 4.60534 15.9843 4.56934 16.1553C4.67734 16.2133 4.78634 16.2693 4.89634 16.3213C4.96934 16.0013 5.01434 15.6733 5.02634 15.3383C5.02634 15.3343 5.02734 15.3303 5.02734 15.3263H5.04234H5.93634H7.31234H8.57434H9.83534H11.2113H12.1053H12.1203C12.1213 15.3303 12.1213 15.3343 12.1213 15.3383C12.1333 15.6733 12.1783 16.0013 12.2503 16.3213C12.3613 16.2693 12.4703 16.2133 12.5783 16.1553C12.5423 15.9843 12.5153 15.8103 12.4983 15.6333Z" fill="#8B7460"/>
<path fill-rule="evenodd" clip-rule="evenodd" d="M11.0293 13.7475C11.0033 13.7185 10.9763 13.6855 10.9493 13.6495C10.9763 13.6865 11.0033 13.7185 11.0293 13.7475Z" fill="#525353"/>
<path fill-rule="evenodd" clip-rule="evenodd" d="M11.2259 13.9438L11.2269 13.9498L11.2259 13.9438C11.2259 13.9438 11.1389 13.8758 11.0289 13.7478C11.1389 13.8758 11.2259 13.9438 11.2259 13.9438Z" fill="#AA9678"/>
<path fill-rule="evenodd" clip-rule="evenodd" d="M14.2827 6.666C14.2817 6.664 14.2797 6.663 14.2787 6.661C14.2077 6.562 14.1337 6.471 14.0587 6.389C14.0577 6.389 14.0577 6.389 14.0577 6.389C14.0577 6.389 14.0577 6.389 14.0587 6.389C14.0577 6.389 14.0567 6.388 14.0567 6.387C14.0227 6.35 13.9877 6.314 13.9527 6.281C13.9397 6.268 13.9257 6.257 13.9127 6.245C13.8907 6.225 13.8687 6.204 13.8457 6.186V6.983L14.1517 8.382C14.1547 8.393 14.1587 8.403 14.1617 8.415L14.3727 8.651L14.3757 8.649H14.5967C14.5967 8.628 14.5977 8.608 14.5977 8.588V8.587C14.5977 7.928 14.4897 7.294 14.2937 6.7C14.2897 6.689 14.2867 6.678 14.2827 6.666Z" fill="#BBBCBD"/>
<path fill-rule="evenodd" clip-rule="evenodd" d="M14.1821 8.51851C14.1821 8.52051 14.1821 8.52251 14.1831 8.52551C14.1831 8.52651 14.1831 8.52751 14.1841 8.52951C14.1881 8.56251 14.1891 8.59651 14.1901 8.63151C14.1901 8.63751 14.1911 8.64351 14.1911 8.64951V8.65251V8.65451C14.1911 8.66151 14.1901 8.66751 14.1901 8.67451C14.1891 8.70851 14.1881 8.74251 14.1841 8.77451C14.1841 8.77651 14.1831 8.77751 14.1831 8.77951L14.1821 8.78751C14.1771 8.82251 14.1711 8.85651 14.1621 8.88851V8.88951L14.1631 8.88751C14.1631 8.88751 14.1631 8.88651 14.1641 8.88651L14.3731 8.65151L14.1621 8.41451C14.1711 8.44851 14.1771 8.48251 14.1821 8.51851Z" fill="#676A6A"/>
<path fill-rule="evenodd" clip-rule="evenodd" d="M13.859 8.57319C13.788 8.57319 13.73 8.47419 13.73 8.35119C13.73 8.22919 13.788 8.13019 13.859 8.13019C13.93 8.13019 13.988 8.22919 13.988 8.35119C13.988 8.47419 13.93 8.57319 13.859 8.57319ZM14.182 8.78719C14.182 8.78219 14.184 8.77919 14.184 8.77419C14.188 8.74219 14.19 8.70819 14.191 8.67519C14.191 8.66719 14.192 8.66019 14.192 8.65219C14.192 8.64519 14.191 8.63819 14.191 8.63119C14.19 8.59619 14.188 8.56219 14.184 8.53019C14.184 8.52619 14.183 8.52219 14.182 8.51819C14.177 8.48319 14.171 8.44819 14.162 8.41519C14.159 8.40319 14.155 8.39319 14.152 8.38219C14.131 8.31519 14.104 8.25619 14.071 8.20619C14.067 8.20019 14.062 8.19319 14.058 8.18719C14.048 8.17519 14.04 8.16319 14.03 8.15319C14.016 8.13719 14.001 8.12319 13.986 8.11219C13.98 8.10719 13.974 8.10419 13.967 8.10019C13.954 8.09219 13.941 8.08419 13.926 8.07819C13.921 8.07519 13.914 8.07319 13.908 8.07219C13.888 8.06519 13.868 8.06119 13.847 8.06119C13.825 8.06119 13.805 8.06519 13.785 8.07219C13.779 8.07319 13.773 8.07519 13.767 8.07819C13.753 8.08419 13.739 8.09219 13.726 8.10019C13.72 8.10419 13.713 8.10719 13.708 8.11219C13.692 8.12319 13.677 8.13719 13.663 8.15319C13.653 8.16319 13.645 8.17519 13.636 8.18719C13.631 8.19419 13.627 8.20019 13.622 8.20619C13.589 8.25619 13.562 8.31519 13.541 8.38219C13.54 8.38519 13.54 8.38719 13.539 8.39019C13.53 8.42119 13.523 8.45319 13.517 8.48719C13.515 8.49719 13.513 8.50719 13.511 8.51719C13.506 8.55419 13.504 8.59319 13.503 8.63319C13.503 8.63819 13.502 8.64419 13.502 8.64919H13.503C13.503 8.97619 13.658 9.24019 13.848 9.24019C13.881 9.24019 13.913 9.23219 13.942 9.21719C13.947 9.21519 13.952 9.21219 13.957 9.20919C13.969 9.20219 13.982 9.19519 13.993 9.18519C14 9.18019 14.006 9.17419 14.012 9.16819C14.027 9.15419 14.042 9.13719 14.056 9.11919C14.065 9.10719 14.074 9.09419 14.083 9.08019C14.089 9.07219 14.094 9.06219 14.099 9.05219C14.109 9.03519 14.118 9.01619 14.126 8.99619C14.129 8.98919 14.132 8.98219 14.135 8.97519C14.146 8.94819 14.155 8.91919 14.163 8.88819C14.171 8.85619 14.177 8.82219 14.182 8.78719Z" fill="black"/>
<path fill-rule="evenodd" clip-rule="evenodd" d="M13.8584 8.12979C13.9294 8.12979 13.9874 8.22979 13.9874 8.35179C13.9874 8.47379 13.9294 8.57279 13.8584 8.57279C13.7874 8.57279 13.7294 8.47379 13.7294 8.35179C13.7294 8.22979 13.7874 8.12979 13.8584 8.12979Z" fill="white"/>
<path fill-rule="evenodd" clip-rule="evenodd" d="M13.5412 8.38228C13.5622 8.31528 13.5892 8.25628 13.6222 8.20628C13.6262 8.20028 13.6312 8.19428 13.6362 8.18728C13.6452 8.17528 13.6532 8.16328 13.6632 8.15328C13.6772 8.13728 13.6922 8.12328 13.7082 8.11128C13.7132 8.10728 13.7202 8.10428 13.7262 8.10028C13.7392 8.09128 13.7522 8.08428 13.7672 8.07828C13.7732 8.07528 13.7792 8.07328 13.7852 8.07128C13.8052 8.06528 13.8252 8.06128 13.8472 8.06128C13.8682 8.06128 13.8882 8.06528 13.9082 8.07128C13.9142 8.07328 13.9202 8.07528 13.9262 8.07828C13.9402 8.08428 13.9542 8.09128 13.9672 8.10028C13.9742 8.10428 13.9792 8.10728 13.9862 8.11128C14.0012 8.12328 14.0162 8.13728 14.0302 8.15328C14.0402 8.16328 14.0492 8.17528 14.0582 8.18728L14.0712 8.20628C14.1042 8.25628 14.1312 8.31528 14.1522 8.38228L13.8472 6.98428L13.5412 8.38228Z" fill="#909393"/>
<path fill-rule="evenodd" clip-rule="evenodd" d="M8.99257 8.54441C8.82557 8.54441 8.68957 8.40841 8.68957 8.24141C8.68957 8.07341 8.82557 7.93741 8.99257 7.93741C9.16057 7.93741 9.29657 8.07341 9.29657 8.24141C9.29657 8.40841 9.16057 8.54441 8.99257 8.54441ZM9.80057 8.63941C9.79957 8.61141 9.79757 8.58341 9.79457 8.55541V8.55441C9.79057 8.52741 9.78657 8.50141 9.78157 8.47541C9.78057 8.47441 9.78057 8.47341 9.78057 8.47341C9.77457 8.44741 9.76757 8.42141 9.75957 8.39741C9.75957 8.39641 9.75957 8.39641 9.75857 8.39541C9.75057 8.37041 9.74157 8.34641 9.73057 8.32241C9.73057 8.32141 9.73057 8.32141 9.72957 8.32041C9.71957 8.29741 9.70757 8.27341 9.69457 8.25141C9.65557 8.18241 9.60657 8.12041 9.54957 8.06541C9.47657 7.99741 9.39157 7.94141 9.29857 7.90241C9.29757 7.90241 9.29657 7.90241 9.29657 7.90141C9.24957 7.88341 9.20157 7.86841 9.15157 7.85841C9.15057 7.85841 9.14857 7.85841 9.14757 7.85741C9.09757 7.84841 9.04557 7.84241 8.99257 7.84241C8.94057 7.84241 8.88957 7.84841 8.84057 7.85741C8.83857 7.85741 8.83657 7.85741 8.83557 7.85841C8.78557 7.86741 8.73857 7.88241 8.69357 7.90041C8.69257 7.90041 8.69057 7.90141 8.68957 7.90141C8.64357 7.92041 8.59957 7.94341 8.55757 7.97041C8.51557 7.99741 8.47657 8.02741 8.44057 8.06141L8.43957 8.06441L8.43657 8.06541C8.37957 8.11941 8.32957 8.18341 8.29057 8.25241C8.28957 8.25341 8.28857 8.25341 8.28857 8.25441C8.27657 8.27541 8.26557 8.29741 8.25557 8.32041C8.25457 8.32241 8.25357 8.32541 8.25257 8.32741C8.24257 8.34841 8.23557 8.37041 8.22757 8.39141C8.22657 8.39641 8.22457 8.39941 8.22357 8.40441C8.21657 8.42441 8.21157 8.44541 8.20657 8.46641C8.20557 8.47241 8.20357 8.47841 8.20157 8.48341C8.19857 8.50441 8.19457 8.52541 8.19257 8.54641C8.19157 8.55341 8.18957 8.55941 8.18957 8.56641C8.18657 8.59341 8.18457 8.62241 8.18457 8.65041C8.18457 8.70441 8.19057 8.75541 8.20057 8.80641C8.20057 8.80741 8.20057 8.80841 8.20057 8.80941C8.21057 8.86041 8.22557 8.90841 8.24457 8.95541C8.24457 8.95641 8.24457 8.95641 8.24557 8.95741C8.28457 9.05141 8.34057 9.13641 8.40957 9.20941C8.46557 9.26641 8.52857 9.31541 8.59757 9.35541H8.59857C8.62057 9.36741 8.64257 9.37841 8.66557 9.38841L8.67157 9.39141C8.69257 9.40041 8.71457 9.40841 8.73657 9.41641C8.74057 9.41741 8.74357 9.41941 8.74757 9.42041C8.76757 9.42641 8.78857 9.43241 8.80957 9.43741C8.81557 9.43841 8.82157 9.44041 8.82657 9.44141C8.84757 9.44541 8.86857 9.44841 8.88957 9.45141L8.90857 9.45441C8.93657 9.45741 8.96457 9.45841 8.99257 9.45841C9.10357 9.45841 9.21057 9.43641 9.30657 9.39541C9.35557 9.37441 9.40157 9.34941 9.44457 9.32041C9.53057 9.26241 9.60457 9.18841 9.66257 9.10241C9.69157 9.05941 9.71657 9.01341 9.73657 8.96441C9.77757 8.86841 9.80057 8.76241 9.80057 8.65041V8.64541V8.63941Z" fill="black"/>
<path fill-rule="evenodd" clip-rule="evenodd" d="M8.99266 7.93741C9.15966 7.93741 9.29666 8.07341 9.29666 8.24041C9.29666 8.40841 9.15966 8.54441 8.99266 8.54441C8.82566 8.54441 8.68966 8.40841 8.68966 8.24041C8.68966 8.07341 8.82566 7.93741 8.99266 7.93741Z" fill="white"/>
<path fill-rule="evenodd" clip-rule="evenodd" d="M8.43652 8.06541H8.43952L8.44052 8.06241L8.99652 6.36041V6.15941V6.07641V6.05141V6.01641V5.99541V5.97441V5.96241V5.95841C8.68652 5.89441 8.36852 5.85941 8.04152 5.85941C7.93352 5.85941 7.82552 5.86441 7.71752 5.87141L7.67052 5.87441C7.11252 5.91741 6.56252 6.06341 6.05352 6.29441C5.61652 6.49441 5.21052 6.75741 4.84652 7.06841C4.84652 7.06841 4.84552 7.06841 4.84552 7.06941C4.74752 7.15241 4.65352 7.24041 4.56152 7.33041C4.54452 7.34741 4.52752 7.36341 4.51052 7.38041C4.42452 7.46741 4.34152 7.55741 4.26052 7.64941C4.24252 7.66941 4.22552 7.69041 4.20852 7.71141C4.12752 7.80641 4.04852 7.90341 3.97352 8.00441C3.96752 8.01341 3.96152 8.02241 3.95552 8.03041C3.88452 8.12741 3.81652 8.22741 3.75052 8.32841C3.73852 8.34841 3.72552 8.36741 3.71252 8.38741C3.65952 8.47141 3.61052 8.55741 3.56152 8.64441H6.09152H6.09652L8.43652 8.06541Z" fill="#BBBCBD"/>
<path fill-rule="evenodd" clip-rule="evenodd" d="M10.5761 7.874C10.5811 7.808 10.5861 7.741 10.5891 7.675C10.5941 7.585 10.5971 7.495 10.5981 7.405C10.6001 7.335 10.5991 7.265 10.5991 7.195C10.5991 7.175 10.6001 7.155 10.5991 7.135C10.5971 6.955 10.5911 6.774 10.5791 6.594L10.5781 6.593C10.5781 6.592 10.5771 6.592 10.5771 6.592C10.5761 6.591 10.5741 6.59 10.5721 6.588C10.5701 6.587 10.5681 6.586 10.5641 6.584C10.5311 6.565 10.4491 6.518 10.3761 6.477C10.3751 6.476 10.3731 6.475 10.3711 6.474C10.3531 6.463 10.3351 6.454 10.3191 6.444H10.3181C10.3051 6.436 10.2931 6.429 10.2821 6.423C10.2801 6.422 10.2771 6.42 10.2751 6.419C10.2631 6.413 10.2541 6.408 10.2481 6.405C10.1321 6.345 10.0131 6.289 9.89207 6.237C9.60407 6.116 9.21607 6.009 8.99707 5.957V6.111V6.146V6.159V6.36L9.54807 8.064L9.54907 8.066C9.60607 8.12 9.65507 8.183 9.69407 8.251C9.70707 8.274 9.71907 8.297 9.72907 8.321C9.73007 8.321 9.73007 8.322 9.73007 8.322C9.74107 8.346 9.75007 8.371 9.75807 8.395C9.75907 8.396 9.75907 8.396 9.75907 8.397C9.76707 8.422 9.77407 8.447 9.78007 8.473C9.78007 8.474 9.78007 8.474 9.78107 8.475C9.78607 8.501 9.79107 8.528 9.79407 8.555V8.556C9.79707 8.583 9.79907 8.611 9.80007 8.639L9.80207 8.644H10.4771C10.5221 8.396 10.5541 8.146 10.5751 7.895C10.5751 7.888 10.5761 7.881 10.5761 7.874Z" fill="#E2DDDB"/>
<path fill-rule="evenodd" clip-rule="evenodd" d="M11.4595 7.2714C11.4595 7.2714 11.4585 7.2724 11.4585 7.2734C11.4585 7.2724 11.4595 7.2724 11.4595 7.2714Z" fill="#FBB040"/>
<path fill-rule="evenodd" clip-rule="evenodd" d="M9.80546 11.0727C9.95846 10.9197 10.1035 10.7737 10.2415 10.6307C10.3235 10.5457 10.4035 10.4617 10.4795 10.3787C11.0445 9.76569 11.4585 9.19269 11.7075 8.45469C11.7135 8.43769 11.7195 8.41469 11.7255 8.38869C11.7265 8.38469 11.7265 8.38069 11.7275 8.37669C11.7335 8.34869 11.7395 8.31869 11.7445 8.28369C11.7475 8.25969 11.7495 8.23769 11.7515 8.21469C11.6895 7.89369 11.5675 7.58169 11.4605 7.27369C11.4605 7.27469 11.4615 7.27569 11.4615 7.27669L11.4585 7.27369C11.4375 7.25469 11.4165 7.23669 11.3955 7.21669C11.3315 7.15769 11.2675 7.10069 11.2015 7.04569C11.0045 6.87969 10.7975 6.72769 10.5795 6.59369C10.5915 6.77469 10.5975 6.95469 10.5995 7.13469C10.5995 7.15469 10.5995 7.17569 10.5995 7.19569C10.5995 7.26469 10.5995 7.33469 10.5985 7.40469C10.5975 7.49469 10.5945 7.58469 10.5895 7.67469C10.5855 7.74069 10.5815 7.80769 10.5765 7.87369C10.5765 7.88069 10.5755 7.88769 10.5745 7.89469C10.5545 8.14569 10.5225 8.39669 10.4765 8.64369L10.3975 9.01869C10.2325 9.68969 9.89546 10.2997 9.61846 10.9277C9.54546 11.0947 9.47546 11.2637 9.41446 11.4357C9.40946 11.4517 9.40346 11.4687 9.39746 11.4837C9.48446 11.3927 9.56046 11.3147 9.61846 11.2577C9.68246 11.1947 9.74446 11.1337 9.80546 11.0727Z" fill="#FBB040"/>
<path fill-rule="evenodd" clip-rule="evenodd" d="M8.44043 8.06199C8.47643 8.02799 8.51543 7.99799 8.55743 7.97099C8.59943 7.94399 8.64343 7.92099 8.68943 7.90199C8.69043 7.90199 8.69143 7.90099 8.69243 7.90099C8.73843 7.88299 8.78543 7.86799 8.83543 7.85799C8.83643 7.85799 8.83843 7.85799 8.84043 7.85799C8.88943 7.84899 8.94043 7.84299 8.99243 7.84299C9.04543 7.84299 9.09743 7.84899 9.14743 7.85799C9.14843 7.85799 9.14943 7.85799 9.15043 7.85899C9.20143 7.86899 9.24943 7.88399 9.29543 7.90199C9.29643 7.90299 9.29743 7.90299 9.29743 7.90299C9.39243 7.94199 9.47643 7.99799 9.54843 8.06599V8.06499L8.99743 6.36099L8.44043 8.06199Z" fill="#909393"/>
<path fill-rule="evenodd" clip-rule="evenodd" d="M8.2448 8.95549C8.2258 8.90949 8.2108 8.86049 8.2008 8.80949C8.2008 8.80949 8.2008 8.80849 8.1998 8.80649C8.1898 8.75649 8.1848 8.70449 8.1848 8.65049C8.1848 8.62249 8.1858 8.59449 8.1888 8.56649C8.1898 8.55949 8.1908 8.55349 8.1918 8.54749C8.1948 8.52649 8.1978 8.50449 8.2028 8.48449C8.2028 8.47849 8.2048 8.47249 8.2068 8.46649C8.2118 8.44549 8.2168 8.42449 8.2238 8.40449C8.2248 8.40049 8.2258 8.39649 8.2278 8.39249C8.2348 8.37049 8.2428 8.34849 8.2518 8.32849C8.2528 8.32549 8.2548 8.32349 8.2558 8.32049C8.2658 8.29849 8.2768 8.27649 8.2888 8.25449C8.2888 8.25349 8.2898 8.25349 8.2898 8.25249C8.3298 8.18349 8.3788 8.12049 8.4368 8.06549L6.0968 8.64349H6.0918L8.4108 9.20949C8.3408 9.13749 8.2848 9.05149 8.2458 8.95749C8.2448 8.95649 8.2448 8.95649 8.2448 8.95549Z" fill="#676A6A"/>
<path fill-rule="evenodd" clip-rule="evenodd" d="M13.5109 8.51699C13.5119 8.50699 13.5149 8.49699 13.5159 8.48699C13.5219 8.45399 13.5299 8.42099 13.5379 8.38999C13.5389 8.38699 13.5399 8.38299 13.5409 8.37899L13.8459 6.98099V6.18399C13.5959 5.97699 13.3289 5.86499 13.0509 5.86499C12.6989 5.86499 12.3719 6.05899 12.1269 6.29799C11.8589 6.56099 11.6519 6.89099 11.4839 7.22399C11.4759 7.23999 11.4679 7.25399 11.4609 7.26899C11.5119 7.31399 11.5629 7.35999 11.6139 7.40599C11.7279 7.50999 11.8399 7.61699 11.9489 7.72599C12.0009 7.77699 12.0509 7.82899 12.1019 7.87999C12.1559 7.93399 12.2089 7.98899 12.2619 8.04399C12.3289 8.11599 12.3969 8.18699 12.4639 8.25999C12.4909 8.29099 12.5199 8.32199 12.5469 8.35199C12.6279 8.44099 12.7069 8.53099 12.7859 8.62099C12.7999 8.63499 12.8089 8.64499 12.8119 8.64899H13.5009C13.5009 8.64299 13.5019 8.63899 13.5019 8.63299C13.5029 8.59299 13.5059 8.55399 13.5109 8.51699Z" fill="#E2DDDB"/>
<path fill-rule="evenodd" clip-rule="evenodd" d="M11.4605 7.2734C11.4605 7.2734 11.4605 7.2724 11.4605 7.2714C11.4595 7.2724 11.4595 7.2734 11.4585 7.2734C11.4595 7.2744 11.4615 7.2764 11.4615 7.2764C11.4615 7.2754 11.4605 7.2744 11.4605 7.2734Z" fill="#E2DDDB"/>
<path fill-rule="evenodd" clip-rule="evenodd" d="M3.14629 9.5239C3.14829 9.5189 3.15029 9.5139 3.15229 9.5079C3.19629 9.3929 3.24529 9.2779 3.29629 9.1649C3.31129 9.1329 3.32529 9.1019 3.34029 9.0699C3.38229 8.9819 3.42629 8.8939 3.47229 8.8069C3.49029 8.7719 3.50829 8.7359 3.52829 8.7009C3.53929 8.6819 3.55029 8.6629 3.56129 8.6439C3.61029 8.5569 3.65929 8.4709 3.71229 8.3869C3.72529 8.3669 3.73829 8.3479 3.75029 8.3279C3.81629 8.2269 3.88429 8.1269 3.95529 8.0299C3.96129 8.0219 3.96729 8.0129 3.97429 8.0039C4.04829 7.9029 4.12729 7.8059 4.20829 7.7109C4.22629 7.6899 4.24329 7.6689 4.26029 7.6489C4.34129 7.5569 4.42429 7.4669 4.51129 7.3799C4.52729 7.3629 4.54529 7.3469 4.56229 7.3299C4.65429 7.2399 4.74829 7.1519 4.84529 7.0689C4.84629 7.0679 4.84629 7.0679 4.84629 7.0679C5.23129 5.7779 6.41029 4.8379 7.80429 4.8379C8.36629 4.8379 8.92429 4.9999 9.40229 5.2929C9.89329 5.5929 10.2933 6.0329 10.5533 6.5449C10.5543 6.5479 10.5563 6.5499 10.5573 6.5529C10.5633 6.5659 10.5713 6.5779 10.5773 6.5909C10.5773 6.5919 10.5783 6.5919 10.5783 6.5929C10.5793 6.5929 10.5793 6.5939 10.5803 6.5939C10.7973 6.7279 11.0043 6.8789 11.2013 7.0459C11.2673 7.1009 11.3323 7.1579 11.3953 7.2169C11.4163 7.2359 11.4383 7.2539 11.4583 7.2729C11.4593 7.2729 11.4593 7.2719 11.4593 7.2719C11.4593 7.2709 11.4593 7.2699 11.4603 7.2699C11.4673 7.2549 11.4743 7.2399 11.4813 7.2259C11.6783 5.9859 12.2253 5.0919 12.8703 5.0919C13.3563 5.0919 13.7883 5.5999 14.0553 6.3799L14.0573 6.3889L14.0583 6.3899C14.1333 6.4719 14.2073 6.5619 14.2783 6.6609L14.2823 6.6669V6.6659V6.6669C14.2863 6.6779 14.2903 6.6899 14.2933 6.7009L14.2833 6.6599C13.4803 4.2829 11.2323 2.5719 8.58429 2.5719C5.26329 2.5719 2.57129 5.2639 2.57129 8.5859C2.57129 9.2399 2.67529 9.8709 2.87029 10.4579C2.87029 10.4559 2.87029 10.4549 2.87029 10.4539C2.90929 10.2769 2.95429 10.1009 3.00729 9.9269C3.04929 9.7919 3.09629 9.6569 3.14629 9.5239Z" fill="#525353"/>
<path fill-rule="evenodd" clip-rule="evenodd" d="M14.3735 8.65178L14.1645 8.88578C14.1635 8.88678 14.1635 8.88678 14.1635 8.88778C14.1555 8.91878 14.1455 8.94778 14.1345 8.97578C14.1325 8.98278 14.1285 8.98978 14.1255 8.99678C14.1175 9.01578 14.1085 9.03478 14.0995 9.05278C14.0935 9.06278 14.0885 9.07178 14.0825 9.08078C14.0745 9.09478 14.0645 9.10778 14.0555 9.11978C14.0415 9.13778 14.0275 9.15378 14.0125 9.16778C14.0055 9.17378 13.9995 9.17978 13.9935 9.18578C13.9815 9.19478 13.9695 9.20278 13.9565 9.20978C13.9525 9.21278 13.9475 9.21478 13.9425 9.21678C13.9125 9.23178 13.8805 9.24078 13.8485 9.24078C13.6575 9.24078 13.5025 8.97578 13.5025 8.64978H13.5015H12.8125H12.8105H12.8115C12.9395 8.79778 13.0655 8.94878 13.1905 9.10078C13.1915 9.10278 13.1935 9.10478 13.1955 9.10678C13.3165 9.25478 13.4365 9.40278 13.5535 9.55278C13.5595 9.56078 13.5655 9.56778 13.5715 9.57578C13.6835 9.71778 13.7935 9.86178 13.9035 10.0068C13.9145 10.0198 13.9255 10.0338 13.9365 10.0478C14.0515 10.2008 14.1665 10.3538 14.2815 10.5068C14.2815 10.5078 14.2825 10.5088 14.2835 10.5098C14.4815 9.92478 14.5915 9.29978 14.5985 8.64978H14.5975H14.3755L14.3735 8.65178Z" fill="white"/>
<path fill-rule="evenodd" clip-rule="evenodd" d="M7.67168 5.8745C7.68768 5.8735 7.70268 5.8725 7.71868 5.8715C7.82568 5.8635 7.93368 5.8595 8.04268 5.8595C8.36868 5.8595 8.68768 5.8945 8.99768 5.9575V5.9615V5.9735V5.9945V6.0165V6.0505V6.0765V6.1105V5.9575C9.21568 6.0095 9.60468 6.1155 9.89268 6.2375C10.0137 6.2885 10.1327 6.3445 10.2487 6.4045C10.2547 6.4075 10.2637 6.4135 10.2757 6.4195C10.2777 6.4205 10.2807 6.4225 10.2827 6.4235C10.2937 6.4295 10.3047 6.4365 10.3187 6.4435L10.3197 6.4445C10.3367 6.4535 10.3537 6.4635 10.3727 6.4745C10.3737 6.4755 10.3757 6.4755 10.3767 6.4765C10.4507 6.5185 10.5327 6.5655 10.5647 6.5835C10.5677 6.5855 10.5697 6.5875 10.5727 6.5885C10.5737 6.5895 10.5777 6.5915 10.5777 6.5915C10.5717 6.5785 10.5647 6.5655 10.5577 6.5535C10.5567 6.5505 10.5547 6.5475 10.5537 6.5455C10.2947 6.0325 9.89368 5.5925 9.40268 5.2925C8.92468 4.9995 8.36668 4.8385 7.80468 4.8385C6.41068 4.8385 5.23168 5.7775 4.84668 7.0685C5.21168 6.7565 5.61668 6.4945 6.05368 6.2945C6.56368 6.0625 7.11368 5.9165 7.67168 5.8745Z" fill="black"/>
<path fill-rule="evenodd" clip-rule="evenodd" d="M12.1265 6.2988C12.3715 6.0588 12.6995 5.8648 13.0505 5.8648C13.3295 5.8648 13.5965 5.9778 13.8455 6.1838V6.1858V6.1868V6.1858C13.8685 6.2048 13.8905 6.2248 13.9125 6.2448C13.9255 6.2568 13.9395 6.2688 13.9525 6.2808C13.9875 6.3148 14.0225 6.3498 14.0565 6.3868C14.0575 6.3878 14.0575 6.3888 14.0585 6.3898C14.0585 6.3888 14.0575 6.3888 14.0575 6.3888L14.0545 6.3808C13.7875 5.5998 13.3565 5.0918 12.8705 5.0918C12.2245 5.0918 11.6775 5.9858 11.4805 7.2268L11.4835 7.2248C11.6515 6.8908 11.8585 6.5608 12.1265 6.2988Z" fill="black"/>
<path fill-rule="evenodd" clip-rule="evenodd" d="M6.43209 14.1948C6.48709 14.2158 6.54309 14.2348 6.59909 14.2548C7.22109 14.4718 7.88909 14.5918 8.58509 14.5918C9.37909 14.5918 10.1371 14.4368 10.8311 14.1568C10.8681 14.1418 10.9041 14.1268 10.9401 14.1108C10.9991 14.0858 11.0571 14.0598 11.1161 14.0328C11.1671 14.0078 11.2191 13.9848 11.2701 13.9598C11.2581 13.9608 11.2451 13.9638 11.2331 13.9648C11.0171 13.9888 10.8031 13.9908 10.5941 13.9608C9.35709 13.7828 9.08209 13.1858 9.12209 12.5648C9.03309 12.5128 8.94209 12.4558 8.85009 12.3878C7.89809 11.6978 7.33309 10.9628 7.33309 10.9628C7.33309 10.9628 8.06709 11.5298 9.16409 11.9538C9.18709 11.9628 9.20909 11.9698 9.23309 11.9788C9.28409 11.8018 9.34509 11.6328 9.39809 11.4848C9.40409 11.4678 9.41009 11.4518 9.41509 11.4358C9.47609 11.2638 9.54609 11.0948 9.61909 10.9278C9.89609 10.2988 10.2321 9.6898 10.3981 9.0188L10.4771 8.6438H9.80209H9.80109V8.6448H9.80009C9.80009 8.6468 9.80109 8.6488 9.80109 8.6508C9.80109 8.7618 9.77809 8.8688 9.73709 8.9648C9.71709 9.0138 9.69109 9.0598 9.66209 9.1028C9.60409 9.1888 9.53009 9.2628 9.44409 9.3208C9.40109 9.3498 9.35509 9.3748 9.30709 9.3948C9.21009 9.4358 9.10409 9.4588 8.99309 9.4588C8.96409 9.4588 8.93609 9.4568 8.90909 9.4538C8.90209 9.4538 8.89609 9.4518 8.89009 9.4508C8.86909 9.4488 8.84809 9.4458 8.82709 9.4418C8.82109 9.4408 8.81609 9.4388 8.81009 9.4368C8.78909 9.4318 8.76809 9.4268 8.74709 9.4208C8.74409 9.4198 8.74009 9.4178 8.73709 9.4168C8.71409 9.4088 8.69209 9.4018 8.67109 9.3918C8.66909 9.3908 8.66809 9.3898 8.66609 9.3888C8.64309 9.3788 8.62009 9.3678 8.59909 9.3558C8.59909 9.3558 8.59809 9.3558 8.59809 9.3548C8.52809 9.3158 8.46509 9.2668 8.41009 9.2098L6.09209 8.6438H3.56209C3.55109 8.6628 3.53909 8.6818 3.52809 8.7008C3.50909 8.7358 3.49109 8.7718 3.47209 8.8068C3.42609 8.8938 3.38209 8.9818 3.34009 9.0698C3.32609 9.1018 3.31109 9.1328 3.29709 9.1648C3.24609 9.2778 3.19709 9.3928 3.15309 9.5078C3.15109 9.5138 3.14909 9.5188 3.14709 9.5238C3.09609 9.6568 3.05009 9.7918 3.00909 9.9268C2.95509 10.1008 2.91009 10.2768 2.87109 10.4538C3.27009 11.6688 4.04409 12.7128 5.05709 13.4478C5.08709 13.4688 5.11809 13.4888 5.14809 13.5088C5.31909 13.6298 5.49609 13.7418 5.68009 13.8428C5.92109 13.9758 6.17209 14.0948 6.43209 14.1948Z" fill="white"/>
<path fill-rule="evenodd" clip-rule="evenodd" d="M10.5841 12.3266C10.5751 12.3906 10.5681 12.4546 10.5661 12.5156C10.5631 12.6276 10.5711 12.7326 10.5871 12.8326C10.5981 12.8986 10.6121 12.9636 10.6301 13.0236C10.6561 13.1166 10.6881 13.2016 10.7261 13.2816C10.7621 13.3606 10.8031 13.4326 10.8441 13.4996C10.8581 13.5216 10.8721 13.5436 10.8861 13.5636C10.9071 13.5946 10.9291 13.6236 10.9491 13.6496C10.9771 13.6866 11.0041 13.7186 11.0301 13.7486C11.1401 13.8756 11.2271 13.9436 11.2271 13.9436C11.2271 13.9436 11.2281 13.9456 11.2291 13.9496C11.2301 13.9536 11.2311 13.9586 11.2331 13.9656C11.2461 13.9636 11.2581 13.9616 11.2711 13.9596C11.5391 13.9266 11.8091 13.8526 12.0751 13.7576C12.2111 13.7086 12.3471 13.6556 12.4801 13.5956C12.5211 13.5766 12.5601 13.5556 12.6011 13.5366C13.9781 12.8696 15.1311 11.6916 15.1311 11.6916C13.4001 12.5426 11.7091 12.5086 10.5841 12.3266Z" fill="#9F2255"/>
<path fill-rule="evenodd" clip-rule="evenodd" d="M13.904 10.0063C13.794 9.86129 13.683 9.71829 13.571 9.57529C13.566 9.56829 13.56 9.56129 13.554 9.55429C13.436 9.40329 13.316 9.25429 13.195 9.10629C13.194 9.10429 13.192 9.10229 13.191 9.10129C13.066 8.94929 12.94 8.79829 12.811 8.65029C12.803 8.64029 12.795 8.63129 12.787 8.62129C12.708 8.53129 12.628 8.44229 12.548 8.35329C12.52 8.32229 12.492 8.29129 12.464 8.26129C12.398 8.18829 12.33 8.11629 12.262 8.04529C12.21 7.98929 12.156 7.93529 12.102 7.88029C12.052 7.82929 12.002 7.77729 11.95 7.72629C11.84 7.61829 11.728 7.51029 11.614 7.40629C11.564 7.36029 11.513 7.31529 11.461 7.27029C11.461 7.27029 11.461 7.27129 11.46 7.27129C11.569 7.58429 11.693 7.90029 11.755 8.22529C11.771 8.31029 11.784 8.39329 11.795 8.47329C11.946 9.60129 11.586 10.3363 11.012 11.3053C10.971 11.3743 10.928 11.4443 10.885 11.5173C10.754 11.7353 10.67 11.9433 10.621 12.1373C10.605 12.2013 10.593 12.2653 10.584 12.3273C11.709 12.5083 13.401 12.5423 15.131 11.6923C15.131 11.6923 14.792 11.1933 14.281 10.5073C14.167 10.3543 14.052 10.2003 13.936 10.0483C13.925 10.0333 13.914 10.0203 13.904 10.0063Z" fill="#E2066F"/>
<path fill-rule="evenodd" clip-rule="evenodd" d="M11.226 13.9438C11.226 13.9438 11.139 13.8758 11.029 13.7478C11.003 13.7178 10.976 13.6858 10.949 13.6498C10.928 13.6238 10.907 13.5938 10.885 13.5628C10.872 13.5428 10.857 13.5218 10.844 13.4998C10.802 13.4328 10.761 13.3608 10.725 13.2808C10.688 13.2018 10.655 13.1158 10.629 13.0238C10.611 12.9628 10.597 12.8988 10.586 12.8328C10.57 12.7328 10.562 12.6278 10.566 12.5158C10.568 12.4548 10.574 12.3908 10.583 12.3268C10.592 12.2648 10.604 12.2018 10.621 12.1358C10.669 11.9418 10.753 11.7348 10.884 11.5158C10.885 11.5158 10.885 11.5148 10.885 11.5138C10.928 11.4428 10.97 11.3738 11.011 11.3038C11.584 10.3368 11.945 9.5998 11.794 8.4728C11.784 8.3928 11.77 8.3098 11.754 8.2258C11.746 8.2838 11.736 8.3348 11.727 8.3768C11.726 8.3808 11.726 8.3848 11.725 8.3888C11.719 8.4148 11.713 8.4378 11.707 8.4548C11.458 9.1928 11.044 9.7658 10.479 10.3788C10.403 10.4618 10.323 10.5458 10.241 10.6308C10.103 10.7738 9.95801 10.9198 9.80501 11.0718C9.74401 11.1328 9.68201 11.1948 9.61901 11.2568C9.56001 11.3148 9.48401 11.3938 9.39701 11.4838C9.34401 11.6328 9.28301 11.8018 9.23201 11.9788C9.20901 11.9698 9.18701 11.9628 9.16301 11.9538C8.06701 11.5288 7.33301 10.9628 7.33301 10.9628C7.33301 10.9628 7.89701 11.6978 8.84901 12.3878C8.94101 12.4558 9.03201 12.5128 9.12101 12.5648C9.08201 13.1858 9.35601 13.7828 10.593 13.9608C10.803 13.9908 11.017 13.9888 11.232 13.9648C11.23 13.9588 11.229 13.9528 11.227 13.9498L11.226 13.9438Z" fill="black"/>
</svg>
