<svg width="105" height="24" viewBox="0 0 105 24" fill="none" xmlns="http://www.w3.org/2000/svg">
<path fill-rule="evenodd" clip-rule="evenodd" d="M43.1182 9.79299C40.9932 9.79299 40.2552 11.71 40.2552 13.21C40.2552 14.734 40.9932 16.628 43.1182 16.628C45.2652 16.628 46.0042 14.734 46.0042 13.21C46.0042 11.71 45.2652 9.79299 43.1182 9.79299ZM43.1182 17.366C40.5782 17.366 38.5002 15.496 38.5002 13.21C38.5002 10.947 40.5782 9.07699 43.1182 9.07699C45.6582 9.07699 47.7362 10.947 47.7362 13.21C47.7362 15.496 45.6582 17.366 43.1182 17.366ZM35.2672 13.996L36.8612 9.28499C37.3232 7.92199 37.1152 7.52999 35.6372 7.52999V7.06799H39.9782V7.52999C38.5232 7.52999 38.1772 7.87599 37.5992 9.56199L34.9672 17.459H34.6672L32.3112 10.231L29.9102 17.459H29.6102L27.0472 9.56199C26.4932 7.87599 26.1232 7.52999 24.7842 7.52999V7.06799H29.9102V7.52999C28.5482 7.52999 28.1782 7.85399 28.6632 9.28499L30.2102 13.996L32.5422 7.06799H32.9812L35.2672 13.996ZM60.9672 16.351H60.8052C59.9742 16.351 59.8592 16.144 59.8592 15.081V10.07H60.9672C63.3682 10.07 63.8062 11.825 63.8062 13.188C63.8062 14.596 63.3682 16.351 60.9672 16.351ZM51.2222 13.141V10.07H52.1692C53.2082 10.07 53.6702 10.786 53.6702 11.617C53.6702 12.426 53.2082 13.141 52.1692 13.141H51.2222ZM60.8972 9.37699H56.7642V9.81599C58.0572 9.81599 58.2652 10.093 58.2652 11.732V14.689C58.2652 16.328 58.0572 16.628 56.7642 16.628C55.7712 16.489 55.1012 15.958 54.1782 14.942L53.1162 13.788C54.5472 13.533 55.3092 12.633 55.3092 11.617C55.3092 10.347 54.2242 9.37699 52.1922 9.37699H48.1282V9.81599C49.4212 9.81599 49.6292 10.093 49.6292 11.732V14.689C49.6292 16.328 49.4212 16.628 48.1282 16.628V17.066H52.7232V16.628C51.4312 16.628 51.2222 16.328 51.2222 14.689V13.857H51.6152L54.1782 17.066H60.8972C64.1992 17.066 65.6312 15.312 65.6312 13.21C65.6312 11.109 64.2002 9.37699 60.8972 9.37699Z" fill="#00749A"/>
<mask id="mask0" mask-type="alpha" maskUnits="userSpaceOnUse" x="66" y="7" width="39" height="11">
<path fill-rule="evenodd" clip-rule="evenodd" d="M66.0469 7.06821H105V17.3662H66.0469V7.06821Z" fill="white"/>
</mask>
<g mask="url(#mask0)">
<path fill-rule="evenodd" clip-rule="evenodd" d="M102.183 17.3662C101.259 17.3662 100.451 16.8822 100.105 16.5812C99.9899 16.6972 99.7819 17.0432 99.7359 17.3662H99.2969V14.1802H99.7589C99.9429 15.7042 101.005 16.6042 102.368 16.6042C103.107 16.6042 103.707 16.1892 103.707 15.4972C103.707 14.8962 103.176 14.4342 102.229 13.9962L100.913 13.3722C99.9899 12.9332 99.2969 12.1712 99.2969 11.1552C99.2969 10.0472 100.336 9.10021 101.767 9.10021C102.53 9.10021 103.176 9.37721 103.569 9.70021C103.684 9.60821 103.799 9.35421 103.869 9.07721H104.308V11.8022H103.823C103.661 10.7172 103.06 9.81621 101.837 9.81621C101.19 9.81621 100.59 10.1852 100.59 10.7632C100.59 11.3632 101.075 11.6862 102.183 12.1942L103.453 12.8182C104.561 13.3482 105 14.2042 105 14.8962C105 16.3502 103.73 17.3662 102.183 17.3662ZM95.0709 17.3662C94.1479 17.3662 93.3389 16.8822 92.9929 16.5812C92.8779 16.6972 92.6699 17.0432 92.6239 17.3662H92.1849V14.1802H92.6469C92.8319 15.7042 93.8929 16.6042 95.2559 16.6042C95.9949 16.6042 96.5959 16.1892 96.5959 15.4972C96.5959 14.8962 96.0639 14.4342 95.1179 13.9962L93.8019 13.3722C92.8779 12.9332 92.1849 12.1712 92.1849 11.1552C92.1849 10.0472 93.2239 9.10021 94.6559 9.10021C95.4179 9.10021 96.0639 9.37721 96.4569 9.70021C96.5719 9.60821 96.6879 9.35421 96.7569 9.07721H97.1959V11.8022H96.7109C96.5489 10.7172 95.9489 9.81621 94.7249 9.81621C94.0789 9.81621 93.4779 10.1852 93.4779 10.7632C93.4779 11.3632 93.9629 11.6862 95.0719 12.1942L96.3409 12.8182C97.4499 13.3482 97.8879 14.2042 97.8879 14.8962C97.8879 16.3502 96.6189 17.3662 95.0709 17.3662ZM78.1459 13.1402V10.0702H79.0929C80.1319 10.0702 80.5939 10.7862 80.5939 11.6172C80.5939 12.4262 80.1319 13.1402 79.0929 13.1402H78.1459ZM90.3839 14.8962L90.2679 15.3112C90.0609 16.0732 89.8069 16.3502 88.1669 16.3502H87.8439C86.6429 16.3502 86.4349 16.0732 86.4349 14.4342V13.3722C88.2369 13.3722 88.3749 13.5332 88.3749 14.7342H88.8139V11.2942H88.3749C88.3749 12.4942 88.2369 12.6562 86.4349 12.6562V10.0702H87.7049C89.3449 10.0702 89.5989 10.3472 89.8069 11.1092L89.9219 11.5482H90.2909L90.1299 9.37721H83.3409V9.81621C84.6339 9.81621 84.8419 10.0932 84.8419 11.7322V14.6882C84.8419 16.1882 84.6659 16.5652 83.6459 16.6202C82.6769 16.4712 82.0119 15.9432 81.1019 14.9422L80.0389 13.7882C81.4719 13.5332 82.2329 12.6332 82.2329 11.6172C82.2329 10.3472 81.1479 9.37721 79.1159 9.37721H75.0519V9.81621C76.3449 9.81621 76.5529 10.0932 76.5529 11.7322V14.6882C76.5529 16.3282 76.3459 16.6282 75.0519 16.6282V17.0662H79.6469V16.6282C78.3539 16.6282 78.1459 16.3282 78.1459 14.6882V13.8572H78.5389L81.1019 17.0662H90.5919L90.7309 14.8962H90.3839ZM70.8269 7.89921H69.5099V11.9172H70.8269C72.1199 11.9172 72.7199 11.0162 72.7199 9.93121C72.7199 8.82321 72.1199 7.89921 70.8269 7.89921ZM71.3339 16.6042V17.0662H66.0469V16.6042C67.5939 16.6042 67.8709 16.2122 67.8709 13.9032V10.2082C67.8709 7.89921 67.5939 7.53021 66.0469 7.53021V7.06821H70.8269C73.2049 7.06821 74.5209 8.29221 74.5209 9.93121C74.5209 11.5252 73.2049 12.7712 70.8269 12.7712H69.5099V13.9022C69.5099 16.2122 69.7869 16.6042 71.3339 16.6042Z" fill="#00749A"/>
</g>
<mask id="mask1" mask-type="alpha" maskUnits="userSpaceOnUse" x="0" y="0" width="24" height="24">
<path fill-rule="evenodd" clip-rule="evenodd" d="M0 0.000305176H23.825V23.8239H0V0.000305176Z" fill="white"/>
</mask>
<g mask="url(#mask1)">
<path fill-rule="evenodd" clip-rule="evenodd" d="M11.912 23.2783C5.645 23.2783 0.546 18.1783 0.546 11.9113C0.546 5.6443 5.645 0.546305 11.912 0.546305C18.179 0.546305 23.277 5.6443 23.277 11.9113C23.277 18.1783 18.179 23.2783 11.912 23.2783ZM11.912 0.000305176C5.344 0.000305176 0 5.34331 0 11.9113C0 18.4803 5.344 23.8243 11.912 23.8243C18.48 23.8243 23.825 18.4803 23.825 11.9113C23.825 5.34331 18.48 0.000305176 11.912 0.000305176ZM20.879 7.00831C20.923 7.33431 20.947 7.68331 20.947 8.05931C20.947 9.0963 20.754 10.2623 20.17 11.7193L17.049 20.7453C20.087 18.9723 22.13 15.6813 22.13 11.9113C22.131 10.1353 21.677 8.4643 20.879 7.00831ZM12.091 12.8053L9.025 21.7153C9.941 21.9833 10.909 22.1313 11.912 22.1313C13.102 22.1313 14.243 21.9253 15.306 21.5513C15.278 21.5073 15.253 21.4623 15.233 21.4113L12.091 12.8053ZM18.81 11.3963C18.81 10.1323 18.357 9.2583 17.968 8.5773C17.45 7.7363 16.964 7.0233 16.964 6.1813C16.964 5.2423 17.677 4.36731 18.68 4.36731C18.725 4.36731 18.768 4.37331 18.812 4.37631C16.995 2.71031 14.572 1.69331 11.912 1.69331C8.342 1.69331 5.201 3.52531 3.374 6.2993C3.614 6.3063 3.84 6.31131 4.032 6.31131C5.1 6.31131 6.755 6.1813 6.755 6.1813C7.306 6.1493 7.37 6.9583 6.82 7.0233C6.82 7.0233 6.267 7.0893 5.651 7.1213L9.372 18.1893L11.608 11.4833L10.016 7.12031C9.466 7.0883 8.945 7.0233 8.945 7.0233C8.394 6.9903 8.458 6.1493 9.009 6.1813C9.009 6.1813 10.697 6.31131 11.701 6.31131C12.769 6.31131 14.424 6.1813 14.424 6.1813C14.975 6.1493 15.04 6.9583 14.49 7.0233C14.49 7.0233 13.935 7.0883 13.32 7.12031L17.013 18.1053L18.033 14.6993C18.474 13.2863 18.81 12.2713 18.81 11.3963ZM1.693 11.9113C1.693 15.9563 4.044 19.4523 7.453 21.1083L2.578 7.7533C2.011 9.02431 1.693 10.4303 1.693 11.9113Z" fill="#00749A"/>
</g>
</svg>
