<svg width="26" height="26" viewBox="0 0 26 26" fill="none" xmlns="http://www.w3.org/2000/svg">
<path fill-rule="evenodd" clip-rule="evenodd" d="M0 12.8748C0 5.76451 5.76475 -0.000244141 12.875 -0.000244141C19.9852 -0.000244141 25.75 5.76451 25.75 12.8748C25.75 19.9861 19.9852 25.7498 12.875 25.7498C5.7648 25.7498 0 19.9861 0 12.8748ZM12.875 1.74976C6.73125 1.74976 1.75 6.73101 1.75 12.8748C1.75 19.0195 6.7312 23.9998 12.875 23.9998C19.0188 23.9998 24 19.0195 24 12.8748C24 6.73101 19.0188 1.74976 12.875 1.74976Z" fill="#0039D1"/>
<path fill-rule="evenodd" clip-rule="evenodd" d="M19.0234 8.36245C19.3975 8.66836 19.4528 9.21961 19.1469 9.59371L12.5079 17.7127C12.3568 17.8974 12.137 18.0124 11.8991 18.0311C11.6613 18.0498 11.4261 17.9706 11.2481 17.8118L7.14706 14.1538C6.78643 13.8321 6.75485 13.279 7.07652 12.9184C7.3982 12.5577 7.95131 12.5262 8.31195 12.8478L11.7313 15.8978L17.7921 8.48593C18.098 8.11183 18.6493 8.05655 19.0234 8.36245Z" fill="#0039D1"/>
</svg>
