<svg width="80" height="80" viewBox="0 0 80 80" fill="none" xmlns="http://www.w3.org/2000/svg">
<path d="M32.5635 16.6053H40.4635" stroke="#0039D1" stroke-width="1.75"/>
<path d="M40.8436 66.5624H19.7136C17.9706 66.5624 16.5576 65.1494 16.5576 63.4064V16.5934C16.5576 14.8504 17.9706 13.4384 19.7136 13.4384H53.3136C55.0556 13.4384 56.4686 14.8504 56.4686 16.5934V31.5994" stroke="#0039D1" stroke-width="1.75"/>
<path d="M32.5635 63.3954H40.4635" stroke="#0039D1" stroke-width="1.75"/>
<path d="M16.5576 19.7723H56.4686" stroke="#0039D1" stroke-width="1.75"/>
<path d="M40.4636 60.2284H16.5576" stroke="#0039D1" stroke-width="1.75"/>
<path fill-rule="evenodd" clip-rule="evenodd" d="M24.8789 24.1649H22.4099C21.5869 24.1649 20.9209 24.8319 20.9209 25.6549V28.1239C20.9209 28.9459 21.5869 29.6129 22.4099 29.6129H24.8789C25.7019 29.6129 26.3689 28.9459 26.3689 28.1239V25.6549C26.3689 24.8319 25.7019 24.1649 24.8789 24.1649ZM22.6699 27.8629H24.6189V25.9149H22.6699V27.8629Z" fill="#0039D1"/>
<path fill-rule="evenodd" clip-rule="evenodd" d="M33.3242 24.1649H30.8562C30.0322 24.1649 29.3662 24.8319 29.3662 25.6549V28.1239C29.3662 28.9459 30.0322 29.6129 30.8562 29.6129H33.3242C34.1472 29.6129 34.8142 28.9459 34.8142 28.1239V25.6549C34.8142 24.8319 34.1472 24.1649 33.3242 24.1649ZM31.1152 27.8629H33.0642V25.9149H31.1152V27.8629Z" fill="#0039D1"/>
<path fill-rule="evenodd" clip-rule="evenodd" d="M41.7695 24.1649H39.3015C38.4775 24.1649 37.8115 24.8319 37.8115 25.6549V28.1239C37.8115 28.9459 38.4775 29.6129 39.3015 29.6129H41.7695C42.5925 29.6129 43.2595 28.9459 43.2595 28.1239V25.6549C43.2595 24.8319 42.5925 24.1649 41.7695 24.1649ZM39.5605 27.8629H41.5095V25.9149H39.5605V27.8629Z" fill="#0039D1"/>
<path fill-rule="evenodd" clip-rule="evenodd" d="M24.8789 32.9764H22.4099C21.5869 32.9764 20.9209 33.6434 20.9209 34.4664V36.9344C20.9209 37.7574 21.5869 38.4244 22.4099 38.4244H24.8789C25.7019 38.4244 26.3689 37.7574 26.3689 36.9344V34.4664C26.3689 33.6434 25.7019 32.9764 24.8789 32.9764ZM22.6699 36.6744H24.6189V34.7264H22.6699V36.6744Z" fill="#0039D1"/>
<path fill-rule="evenodd" clip-rule="evenodd" d="M33.3242 32.9764H30.8562C30.0322 32.9764 29.3662 33.6434 29.3662 34.4664V36.9344C29.3662 37.7574 30.0322 38.4244 30.8562 38.4244H33.3242C34.1472 38.4244 34.8142 37.7574 34.8142 36.9344V34.4664C34.8142 33.6434 34.1472 32.9764 33.3242 32.9764ZM31.1152 36.6744H33.0642V34.7264H31.1152V36.6744Z" fill="#0039D1"/>
<path fill-rule="evenodd" clip-rule="evenodd" d="M24.8789 41.788H22.4099C21.5869 41.788 20.9209 42.455 20.9209 43.278V45.746C20.9209 46.569 21.5869 47.236 22.4099 47.236H24.8789C25.7019 47.236 26.3689 46.569 26.3689 45.746V43.278C26.3689 42.455 25.7019 41.788 24.8789 41.788ZM22.6699 45.486H24.6189V43.538H22.6699V45.486Z" fill="#0039D1"/>
<path fill-rule="evenodd" clip-rule="evenodd" d="M33.3242 41.788H30.8562C30.0322 41.788 29.3662 42.455 29.3662 43.278V45.746C29.3662 46.569 30.0322 47.236 30.8562 47.236H33.3242C34.1472 47.236 34.8142 46.569 34.8142 45.746V43.278C34.8142 42.455 34.1472 41.788 33.3242 41.788ZM31.1152 45.486H33.0642V43.538H31.1152V45.486Z" fill="#0039D1"/>
<path d="M51.0967 39.6708V34.4148H53.1547C54.2907 34.4148 55.2127 35.3358 55.2127 36.4728" stroke="#0039D1" stroke-width="1.75"/>
<path d="M63.4302 43.8368C63.3282 47.7338 62.6822 51.6028 61.4862 55.3158C61.1002 56.5178 60.9152 57.4618 60.9152 57.4618H52.0742" stroke="#0039D1" stroke-width="1.75"/>
<path d="M51.0968 34.4149V28.9469C51.0968 27.8109 50.1757 26.8899 49.0387 26.8899C47.9017 26.8899 46.9808 27.8109 46.9808 28.9469V44.1849L45.5608 40.4919C45.1988 39.5499 44.2938 38.9279 43.2838 38.9279C41.9358 38.9279 40.8438 40.0189 40.8438 41.3669C40.8438 43.8389 41.4918 46.2699 42.7608 48.3919C43.2458 49.2039 43.8288 50.0389 44.5138 50.8049C47.0428 53.6309 47.7118 57.4619 47.7118 57.4619" stroke="#0039D1" stroke-width="1.75"/>
<path d="M55.2119 41.2089V35.9519H57.2699C58.4069 35.9519 59.3279 36.8729 59.3279 38.0099V42.9939" stroke="#0039D1" stroke-width="1.75"/>
<path d="M59.3281 38.58H61.3861C62.5231 38.58 63.4441 39.502 63.4441 40.639V43.837" stroke="#0039D1" stroke-width="1.75"/>
<path fill-rule="evenodd" clip-rule="evenodd" d="M46.0957 66.562H62.0537V60.228H46.0957V66.562ZM47.8457 64.812H60.3037V61.978H47.8457V64.812Z" fill="#0039D1"/>
<path fill-rule="evenodd" clip-rule="evenodd" d="M58.5062 62.7987C58.1772 62.7987 57.9102 63.0657 57.9102 63.3957C57.9102 63.7247 58.1772 63.9907 58.5062 63.9907C58.8352 63.9907 59.1022 63.7247 59.1022 63.3957C59.1022 63.0657 58.8352 62.7987 58.5062 62.7987Z" fill="#0039D1"/>
</svg>
