<svg width="80" height="79" viewBox="0 0 80 79" fill="none" xmlns="http://www.w3.org/2000/svg">
<path d="M32.5625 16.4953H40.4625" stroke="#0039D1" stroke-width="1.75"/>
<path d="M40.8426 65.4727H19.7126C17.9696 65.4727 16.5566 64.0874 16.5566 62.3786V16.4835C16.5566 14.7747 17.9696 13.3904 19.7126 13.3904H53.3126C55.0546 13.3904 56.4676 14.7747 56.4676 16.4835V31.1953" stroke="#0039D1" stroke-width="1.75"/>
<path d="M32.5625 62.3679H40.4625" stroke="#0039D1" stroke-width="1.75"/>
<path d="M16.5571 19.6003H56.4681" stroke="#0039D1" stroke-width="1.75"/>
<path d="M40.4626 59.2631H16.5566" stroke="#0039D1" stroke-width="1.75"/>
<path fill-rule="evenodd" clip-rule="evenodd" d="M24.8784 23.9067H22.4094C21.5864 23.9067 20.9204 24.5607 20.9204 25.3675V27.7881C20.9204 28.594 21.5864 29.2479 22.4094 29.2479H24.8784C25.7014 29.2479 26.3684 28.594 26.3684 27.7881V25.3675C26.3684 24.5607 25.7014 23.9067 24.8784 23.9067ZM22.6694 27.5322H24.6184V25.6224H22.6694V27.5322Z" fill="#0039D1"/>
<path fill-rule="evenodd" clip-rule="evenodd" d="M33.3237 23.9067H30.8557C30.0317 23.9067 29.3657 24.5607 29.3657 25.3675V27.7881C29.3657 28.594 30.0317 29.2479 30.8557 29.2479H33.3237C34.1467 29.2479 34.8137 28.594 34.8137 27.7881V25.3675C34.8137 24.5607 34.1467 23.9067 33.3237 23.9067ZM31.1147 27.5322H33.0637V25.6224H31.1147V27.5322Z" fill="#0039D1"/>
<path fill-rule="evenodd" clip-rule="evenodd" d="M41.769 23.9067H39.301C38.477 23.9067 37.811 24.5607 37.811 25.3675V27.7881C37.811 28.594 38.477 29.2479 39.301 29.2479H41.769C42.592 29.2479 43.259 28.594 43.259 27.7881V25.3675C43.259 24.5607 42.592 23.9067 41.769 23.9067ZM39.56 27.5322H41.509V25.6224H39.56V27.5322Z" fill="#0039D1"/>
<path fill-rule="evenodd" clip-rule="evenodd" d="M24.8784 32.5454H22.4094C21.5864 32.5454 20.9204 33.1993 20.9204 34.0062V36.4258C20.9204 37.2327 21.5864 37.8866 22.4094 37.8866H24.8784C25.7014 37.8866 26.3684 37.2327 26.3684 36.4258V34.0062C26.3684 33.1993 25.7014 32.5454 24.8784 32.5454ZM22.6694 36.1709H24.6184V34.2611H22.6694V36.1709Z" fill="#0039D1"/>
<path fill-rule="evenodd" clip-rule="evenodd" d="M33.3237 32.5454H30.8557C30.0317 32.5454 29.3657 33.1993 29.3657 34.0062V36.4258C29.3657 37.2327 30.0317 37.8866 30.8557 37.8866H33.3237C34.1467 37.8866 34.8137 37.2327 34.8137 36.4258V34.0062C34.8137 33.1993 34.1467 32.5454 33.3237 32.5454ZM31.1147 36.1709H33.0637V34.2611H31.1147V36.1709Z" fill="#0039D1"/>
<path fill-rule="evenodd" clip-rule="evenodd" d="M24.8784 41.1841H22.4094C21.5864 41.1841 20.9204 41.838 20.9204 42.6449V45.0645C20.9204 45.8713 21.5864 46.5253 22.4094 46.5253H24.8784C25.7014 46.5253 26.3684 45.8713 26.3684 45.0645V42.6449C26.3684 41.838 25.7014 41.1841 24.8784 41.1841ZM22.6694 44.8096H24.6184V42.8998H22.6694V44.8096Z" fill="#0039D1"/>
<path fill-rule="evenodd" clip-rule="evenodd" d="M33.3237 41.1841H30.8557C30.0317 41.1841 29.3657 41.838 29.3657 42.6449V45.0645C29.3657 45.8713 30.0317 46.5253 30.8557 46.5253H33.3237C34.1467 46.5253 34.8137 45.8713 34.8137 45.0645V42.6449C34.8137 41.838 34.1467 41.1841 33.3237 41.1841ZM31.1147 44.8096H33.0637V42.8998H31.1147V44.8096Z" fill="#0039D1"/>
<path d="M51.0957 39.1085V33.9556H53.1537C54.2897 33.9556 55.2117 34.8585 55.2117 35.9732" stroke="#0039D1" stroke-width="1.75"/>
<path d="M63.4297 43.1929C63.3277 47.0135 62.6817 50.8066 61.4857 54.4468C61.0997 55.6252 60.9147 56.5507 60.9147 56.5507H52.0737" stroke="#0039D1" stroke-width="1.75"/>
<path d="M51.0953 33.9556V28.5948C51.0953 27.4811 50.1743 26.5781 49.0373 26.5781C47.9003 26.5781 46.9793 27.4811 46.9793 28.5948V43.534L45.5593 39.9134C45.1973 38.9899 44.2923 38.3801 43.2823 38.3801C41.9343 38.3801 40.8423 39.4497 40.8423 40.7713C40.8423 43.1948 41.4903 45.5781 42.7593 47.6585C43.2443 48.4546 43.8273 49.2732 44.5123 50.0242C47.0413 52.7948 47.7103 56.5507 47.7103 56.5507" stroke="#0039D1" stroke-width="1.75"/>
<path d="M55.2114 40.6166V35.4626H57.2694C58.4064 35.4626 59.3274 36.3656 59.3274 37.4803V42.3666" stroke="#0039D1" stroke-width="1.75"/>
<path d="M59.3276 38.0391H61.3856C62.5226 38.0391 63.4436 38.943 63.4436 40.0577V43.193" stroke="#0039D1" stroke-width="1.75"/>
<path fill-rule="evenodd" clip-rule="evenodd" d="M46.0952 65.4725H62.0532V59.2627H46.0952V65.4725ZM47.8452 63.7568H60.3032V60.9784H47.8452V63.7568Z" fill="#0039D1"/>
<path fill-rule="evenodd" clip-rule="evenodd" d="M58.5052 61.783C58.1762 61.783 57.9092 62.0447 57.9092 62.3683C57.9092 62.6908 58.1762 62.9516 58.5052 62.9516C58.8342 62.9516 59.1012 62.6908 59.1012 62.3683C59.1012 62.0447 58.8342 61.783 58.5052 61.783Z" fill="#0039D1"/>
</svg>
