<svg width="80" height="80" viewBox="0 0 80 80" fill="none" xmlns="http://www.w3.org/2000/svg">
<path d="M32.8686 45.7842C27.1336 46.3742 21.3186 45.9202 15.7076 44.4242C14.7596 44.1712 14.0996 43.3122 14.0996 42.3312V39.7432" stroke="#0039D1" stroke-width="1.75"/>
<path d="M36.2506 37.3662C29.4356 38.5632 22.4246 38.2662 15.7076 36.4752C14.7586 36.2222 14.0996 35.3642 14.0996 34.3832V31.7952" stroke="#0039D1" stroke-width="1.75"/>
<path d="M41.8896 23.8467V26.4347C41.8896 27.4157 41.2296 28.2747 40.2816 28.5277C32.2306 30.6747 23.7586 30.6747 15.7076 28.5277C14.7596 28.2747 14.0996 27.4157 14.0996 26.4347V23.8467" stroke="#0039D1" stroke-width="1.75"/>
<path fill-rule="evenodd" clip-rule="evenodd" d="M27.9946 15.208C20.3206 15.208 14.0996 16.97 14.0996 19.143C14.0996 21.315 20.3206 23.078 27.9946 23.078C35.6686 23.078 41.8896 21.315 41.8896 19.143C41.8896 16.97 35.6686 15.208 27.9946 15.208ZM27.9946 16.958C34.4916 16.958 38.8476 18.256 39.9646 19.143C38.8476 20.029 34.4916 21.328 27.9946 21.328C21.4986 21.328 17.1426 20.029 16.0246 19.143C17.1426 18.256 21.4986 16.958 27.9946 16.958Z" fill="#0039D1"/>
<path d="M44.3838 53.792L50.1778 58.959L58.5328 48.741" stroke="#0039D1" stroke-width="1.75"/>
<path fill-rule="evenodd" clip-rule="evenodd" d="M35.4111 64.792H65.9011V43.243H35.4111V64.792ZM37.1611 63.042H64.1511V44.993H37.1611V63.042Z" fill="#0039D1"/>
<path d="M62.52 40.043C62.52 33.491 57.208 28.18 50.657 28.18C44.105 28.18 38.793 33.491 38.793 40.043" stroke="#0039D1" stroke-width="1.75"/>
<path d="M59.3123 40.043C59.3123 35.271 55.4292 31.388 50.6562 31.388" stroke="#0039D1" stroke-width="1.75"/>
</svg>
