<svg width="82" height="82" viewBox="0 0 82 82" fill="none" xmlns="http://www.w3.org/2000/svg">
<path fill-rule="evenodd" clip-rule="evenodd" d="M40.875 1V1C18.783 1 0.875 18.913 0.875 41.01C0.875 63.097 18.775 81 40.855 81H40.894C62.975 81 80.875 63.097 80.875 41.01C80.875 18.913 62.966 1 40.875 1Z" stroke="#0039D1" stroke-width="1.75"/>
<path d="M29.1483 44.4483L28.6832 43.7072L28.1046 44.0702L28.3164 44.7196L29.1483 44.4483ZM50.7913 30.8663L51.2564 31.6075L51.268 31.6002L51.2795 31.5925L50.7913 30.8663ZM51.7103 31.5003L52.2955 32.1508L52.335 32.1152L52.37 32.0752L51.7103 31.5003ZM33.7483 47.6613L33.163 47.0109L32.9166 47.2326L32.8789 47.562L33.7483 47.6613ZM32.8263 55.7273L31.9944 55.9986L33.6956 55.8267L32.8263 55.7273ZM56.6023 24.6233L56.9122 25.4416L56.9384 25.4317L56.9639 25.4201L56.6023 24.6233ZM18.6093 39.0113L18.8525 39.8518L18.8863 39.8421L18.9192 39.8296L18.6093 39.0113ZM18.1353 42.1593L17.8675 42.9924L17.8745 42.9946L18.1353 42.1593ZM27.6543 45.1313L28.4862 44.8601L28.3462 44.4307L27.9151 44.2961L27.6543 45.1313ZM31.2963 56.3013L30.4644 56.5726L30.4688 56.5861L30.4737 56.5995L31.2963 56.3013ZM32.8573 57.9943L32.8445 58.8692L32.8452 58.8692L32.8573 57.9943ZM34.7813 56.9853L35.3611 57.6406L35.3708 57.6321L35.3802 57.6232L34.7813 56.9853ZM39.5453 52.3863L40.0653 51.6826L39.4677 51.241L38.9351 51.7592L39.5453 52.3863ZM49.4473 59.7043L48.9272 60.408L48.9738 60.4424L49.0245 60.4704L49.4473 59.7043ZM53.0393 58.0113L53.8959 58.1899L53.8969 58.1847L53.0393 58.0113ZM59.2473 27.2963L58.3983 27.0847L58.3935 27.1038L58.3896 27.123L59.2473 27.2963ZM29.6134 45.1895L51.2564 31.6075L50.3262 30.1252L28.6832 43.7072L29.6134 45.1895ZM51.2795 31.5925C51.4774 31.4594 51.5597 31.4543 51.5383 31.4564C51.4967 31.4606 51.3198 31.4528 51.1723 31.2843C51.0418 31.1354 51.0471 30.9877 51.0527 30.9475C51.0591 30.9014 51.0724 30.9005 51.0506 30.9255L52.37 32.0752C52.5887 31.8242 52.7405 31.5165 52.7861 31.1879C52.8308 30.8652 52.776 30.4593 52.4888 30.1314C52.1845 29.7839 51.7542 29.6764 51.3653 29.715C50.9966 29.7516 50.6376 29.9153 50.3031 30.1402L51.2795 31.5925ZM51.125 30.8499L33.163 47.0109L34.3335 48.3118L52.2955 32.1508L51.125 30.8499ZM32.8789 47.562L31.9569 55.628L33.6956 55.8267L34.6176 47.7607L32.8789 47.562ZM33.6582 55.4561L29.9802 44.1771L28.3164 44.7196L31.9944 55.9986L33.6582 55.4561ZM56.2924 23.805L18.2994 38.193L18.9192 39.8296L56.9122 25.4416L56.2924 23.805ZM18.3661 38.1708C17.0628 38.5479 16.2306 39.4626 16.1447 40.557C16.0597 41.6405 16.7414 42.6304 17.8675 42.9924L18.403 41.3263C17.9922 41.1943 17.8723 40.9107 17.8893 40.6939C17.9055 40.4881 18.0788 40.0757 18.8525 39.8518L18.3661 38.1708ZM17.8745 42.9946L27.3935 45.9666L27.9151 44.2961L18.3961 41.3241L17.8745 42.9946ZM26.8224 45.4026L30.4644 56.5726L32.1282 56.0301L28.4862 44.8601L26.8224 45.4026ZM30.4737 56.5995C30.6981 57.2185 30.9453 57.7801 31.3068 58.1848C31.7263 58.6544 32.2469 58.8605 32.8445 58.8692L32.87 57.1194C32.7697 57.118 32.7239 57.1025 32.7046 57.0941C32.6883 57.087 32.659 57.0717 32.612 57.0191C32.4927 56.8855 32.3375 56.6061 32.1189 56.0031L30.4737 56.5995ZM32.8452 58.8692C33.3769 58.8766 33.813 58.7777 34.2487 58.5236C34.6207 58.3067 34.9807 57.9773 35.3611 57.6406L34.2014 56.33C33.7569 56.7234 33.5524 56.9039 33.3673 57.0118C33.246 57.0825 33.1327 57.1231 32.8694 57.1194L32.8452 58.8692ZM35.3802 57.6232C36.3543 56.7086 37.8329 55.273 40.1554 53.0135L38.9351 51.7592C36.6076 54.0236 35.1423 55.4461 34.1823 56.3475L35.3802 57.6232ZM39.0252 53.09L48.9272 60.408L49.9673 59.0006L40.0653 51.6826L39.0252 53.09ZM49.0245 60.4704C50.038 61.0297 51.1355 61.292 52.1165 60.8494C53.102 60.4048 53.6444 59.3964 53.8959 58.1899L52.1827 57.8328C51.9802 58.8042 51.6381 59.1454 51.3968 59.2543C51.151 59.3651 50.6796 59.385 49.87 58.9382L49.0245 60.4704ZM53.8969 58.1847L60.1049 27.4697L58.3896 27.123L52.1816 57.838L53.8969 58.1847ZM60.0963 27.5079C60.4601 26.0485 60.3002 24.7419 59.3841 23.9873C58.4866 23.2481 57.2546 23.3664 56.2407 23.8265L56.9639 25.4201C57.6929 25.0893 58.116 25.21 58.2715 25.3381C58.4083 25.4508 58.6995 25.8762 58.3983 27.0847L60.0963 27.5079Z" fill="#0039D1"/>
</svg>
