<svg width="60" height="60" viewBox="0 0 60 60" fill="none" xmlns="http://www.w3.org/2000/svg">
<mask id="mask0" mask-type="alpha" maskUnits="userSpaceOnUse" x="0" y="0" width="60" height="60">
<path fill-rule="evenodd" clip-rule="evenodd" d="M0 0H59.9997V59.9998H0V0Z" fill="white"/>
</mask>
<g mask="url(#mask0)">
<path d="M34.4521 39.7937V47.1637" stroke="#0039D1" stroke-width="1.5"/>
<path d="M25.4248 39.7937V47.1637" stroke="#0039D1" stroke-width="1.5"/>
<path fill-rule="evenodd" clip-rule="evenodd" d="M29.9996 22.8708C27.6856 22.8708 25.8096 24.7468 25.8096 27.0608C25.8096 29.3758 27.6856 31.2528 29.9996 31.2528C32.3136 31.2528 34.1896 29.3758 34.1896 27.0608C34.1896 24.7468 32.3136 22.8708 29.9996 22.8708ZM29.9996 24.3708C31.4826 24.3708 32.6896 25.5778 32.6896 27.0608C32.6896 28.5458 31.4826 29.7528 29.9996 29.7528C28.5166 29.7528 27.3096 28.5458 27.3096 27.0608C27.3096 25.5778 28.5166 24.3708 29.9996 24.3708Z" fill="#0039D1"/>
<path d="M22.0225 47.1638V36.5778C22.0225 35.0718 23.2435 33.8518 24.7485 33.8518H35.2515C36.7565 33.8518 37.9765 35.0718 37.9765 36.5778V47.1638" stroke="#0039D1" stroke-width="1.5"/>
<path d="M30 33.8523V38.7083" stroke="#0039D1" stroke-width="1.5"/>
<path fill-rule="evenodd" clip-rule="evenodd" d="M29.9998 17.2908L14.6348 20.8458C14.6348 51.2138 29.9998 51.6948 29.9998 51.6948C29.9998 51.6948 45.3648 51.2138 45.3648 20.8458L29.9998 17.2908ZM29.9998 18.8308L43.8558 22.0358C43.4948 48.6748 31.0208 50.1208 30.0008 50.1928C29.1338 50.1248 16.5098 48.6428 16.1438 22.0358L29.9998 18.8308Z" fill="#0039D1"/>
<path d="M40.291 14.6852L29.999 12.3042L19.708 14.6852" stroke="#0039D1" stroke-width="1.5"/>
</g>
</svg>
